<svg xmlns="http://www.w3.org/2000/svg" viewBox="0 0 120 130" enable-background="new 0 0 120 130"><style type="text/css">.st0{fill:#FFFFFF;}</style><path class="st0" d="M25.6 59.1c0 2.3-2.9 3.5-8.8 3.5 0 3.8.3 9.5 1 17.2s1 13.4 1 17.2l-.2.7c.1.3.2.8.2 1.5s-.3 1.4-1 1.9c-.7.6-1.5.8-2.6.8-2 0-3-2.3-3-6.8 0-6.7-.4-19.4-1.1-38-.7-18.6-1.4-28.5-2.1-29.6 0-3.6 2.5-5.6 7.5-5.8.7 0 1.7-.1 3-.1s2.3.2 3.1.7c.7.5 1.1 1.5 1.1 2.9 0 1.5-1 2.2-2.9 2.2l-2.6-.1c-2 0-2.9.4-2.9 1.2 0 3.3.3 8.1.8 14.4.5 6.3.8 11 .8 14 3-.8 5-1.1 5.8-1.1s1.5.3 2.1 1c.5.7.8 1.4.8 2.3zm18.8 36.7l2.2-.1c2.9 0 4.3.6 4.3 1.8.3 1.2.1 2-.4 2.5s-1.3.7-2.2.7h-13.3c-2 0-3-.8-3-2.4 0-1.6 1.1-2.4 3.2-2.4l3.2.1c.3 0 .5-1.8.5-5.3s-.3-10.7-1-21.5-1-19-1-24.4l.2-10.8c0-2.3-.1-4.2-.3-5.9-.9.3-1.8.5-2.5.5-1.7 0-2.5-.8-2.5-2.5 0-.9.5-1.6 1.6-2.2s2.4-1.1 4-1.4c3-.5 5.1-.8 6.6-.8s2.5.3 3.1.9c.6.6.9 1.2.9 2s-.2 1.4-.7 2c-.5.6-1.1.9-1.8.9l-1.9-.1c-.7 0-1.2.1-1.5.4-.3.3-.5.9-.5 1.7 0 6.9.4 17.2 1.3 30.9s1.3 24 1.3 30.9v4.5zm38.1-75h2.2c-.5 4.6-1.7 14.6-3.8 30-2 15.4-3.2 25.5-3.6 30.2-.4 4.7-.6 8-.6 9.7 0 1.7-.1 3.2-.1 4.5-.1 1.3-.2 2.6-.4 3.9-.4 2.9-1.5 4.3-3.1 4.3-1 0-1.8-.4-2.5-1.1-1.6-6.7-4-20.1-7.2-40.3-3.3-20-5.5-33-6.8-38.8.4-1.4 1.4-2.1 3.1-2.1.8 0 1.3.2 1.6.5.3.4.5.6.6.9.1.2.3.5.4.9.1.4.2.7.2.9.1.2.1.6.2 1s.2 1.7.6 3.8c.3 2.1 1.1 7.2 2.3 15.2 2.5 17.5 4.7 30.8 6.6 39.9.4-4 1.3-10.3 2.6-19 2.6-18.1 3.9-32.1 3.9-42.3 1-1.4 2.3-2.1 3.8-2.1zm21.9 42.3l-2.6-.1c-.8 0-1.4.3-1.9.8v32.6c3.6-.2 5.5-.3 5.6-.3 3.9 0 5.9.9 5.9 2.8v.4c-.5 1-1.3 1.7-2.5 2.2-1.2.5-2.2.8-3 .9-.9.1-2 .1-3.4.1h-3.3c-2.7 0-4.3-.5-5-1.5-.3-.5-.4-1.1-.4-1.9v-76.4l9.1-.9c1.1 0 2.1.3 3.2 1s1.6 1.5 1.6 2.5c0 2.1-1.6 3.1-4.8 3.1l-3-.1c-.5 0-.9 0-1.1.1l.8 17.4c0 1.4-.1 3.5-.3 6.2-.2 2.7-.3 4.7-.3 5.9.4-.1.9-.2 1.5-.4 1.4-.4 2.6-.6 3.4-.6s1.5.3 2.2.9c.6.6 1 1.3 1 2.1s-.3 1.6-.8 2.2c-.4.7-1 1-1.9 1z"/></svg>