<?xml version="1.0" encoding="utf-8"?>
<!-- Generator: Adobe Illustrator 18.1.1, SVG Export Plug-In . SVG Version: 6.00 Build 0)  -->
<svg version="1.1" id="Layer_1" xmlns="http://www.w3.org/2000/svg" xmlns:xlink="http://www.w3.org/1999/xlink" x="0px" y="0px"
	 viewBox="0 0 120 130" style="enable-background:new 0 0 120 130;" xml:space="preserve">
<style type="text/css">
	.st0{fill:#FFFFFF;}
</style>
<g>
	<path class="st0" d="M25.6,59.1c0,2.3-2.9,3.5-8.8,3.5c0,3.8,0.3,9.5,1,17.2s1,13.4,1,17.2l-0.2,0.7c0.1,0.3,0.2,0.8,0.2,1.5
		c0,0.7-0.3,1.4-1,1.9c-0.7,0.6-1.5,0.8-2.6,0.8c-2,0-3-2.3-3-6.8c0-6.7-0.4-19.4-1.1-38C10.4,38.5,9.7,28.6,9,27.5
		c0-3.6,2.5-5.6,7.5-5.8c0.7,0,1.7-0.1,3-0.1s2.3,0.2,3.1,0.7c0.7,0.5,1.1,1.5,1.1,2.9c0,1.5-1,2.2-2.9,2.2l-2.6-0.1
		c-2,0-2.9,0.4-2.9,1.2c0,3.3,0.3,8.1,0.8,14.4c0.5,6.3,0.8,11,0.8,14c3-0.8,5-1.1,5.8-1.1s1.5,0.3,2.1,1
		C25.3,57.5,25.6,58.2,25.6,59.1z"/>
	<path class="st0" d="M44.4,95.8l2.2-0.1c2.9,0,4.3,0.6,4.3,1.8c0.3,1.2,0.1,2-0.4,2.5c-0.5,0.5-1.3,0.7-2.2,0.7H35
		c-2,0-3-0.8-3-2.4c0-1.6,1.1-2.4,3.2-2.4l3.2,0.1c0.3,0,0.5-1.8,0.5-5.3s-0.3-10.7-1-21.5c-0.7-10.8-1-19-1-24.4L37.1,34
		c0-2.3-0.1-4.2-0.3-5.9c-0.9,0.3-1.8,0.5-2.5,0.5c-1.7,0-2.5-0.8-2.5-2.5c0-0.9,0.5-1.6,1.6-2.2s2.4-1.1,4-1.4
		c3-0.5,5.1-0.8,6.6-0.8s2.5,0.3,3.1,0.9c0.6,0.6,0.9,1.2,0.9,2c0,0.8-0.2,1.4-0.7,2c-0.5,0.6-1.1,0.9-1.8,0.9l-1.9-0.1
		c-0.7,0-1.2,0.1-1.5,0.4c-0.3,0.3-0.5,0.9-0.5,1.7c0,6.9,0.4,17.2,1.3,30.9c0.9,13.7,1.3,24,1.3,30.9V95.8z"/>
	<path class="st0" d="M82.5,20.8h2.2c-0.5,4.6-1.7,14.6-3.8,30c-2,15.4-3.2,25.5-3.6,30.2c-0.4,4.7-0.6,8-0.6,9.7
		c0,1.7-0.1,3.2-0.1,4.5c-0.1,1.3-0.2,2.6-0.4,3.9c-0.4,2.9-1.5,4.3-3.1,4.3c-1,0-1.8-0.4-2.5-1.1c-1.6-6.7-4-20.1-7.2-40.3
		C60.1,42,57.9,29,56.6,23.2c0.4-1.4,1.4-2.1,3.1-2.1c0.8,0,1.3,0.2,1.6,0.5c0.3,0.4,0.5,0.6,0.6,0.9c0.1,0.2,0.3,0.5,0.4,0.9
		c0.1,0.4,0.2,0.7,0.2,0.9c0.1,0.2,0.1,0.6,0.2,1c0.1,0.4,0.2,1.7,0.6,3.8c0.3,2.1,1.1,7.2,2.3,15.2c2.5,17.5,4.7,30.8,6.6,39.9
		c0.4-4,1.3-10.3,2.6-19c2.6-18.1,3.9-32.1,3.9-42.3C79.7,21.5,81,20.8,82.5,20.8z"/>
	<path class="st0" d="M104.4,63.1l-2.6-0.1c-0.8,0-1.4,0.3-1.9,0.8v32.6c3.6-0.2,5.5-0.3,5.6-0.3c3.9,0,5.9,0.9,5.9,2.8v0.4
		c-0.5,1-1.3,1.7-2.5,2.2c-1.2,0.5-2.2,0.8-3,0.9c-0.9,0.1-2,0.1-3.4,0.1h-3.3c-2.7,0-4.3-0.5-5-1.5c-0.3-0.5-0.4-1.1-0.4-1.9V22.7
		l9.1-0.9c1.1,0,2.1,0.3,3.2,1s1.6,1.5,1.6,2.5c0,2.1-1.6,3.1-4.8,3.1l-3-0.1c-0.5,0-0.9,0-1.1,0.1l0.8,17.4c0,1.4-0.1,3.5-0.3,6.2
		c-0.2,2.7-0.3,4.7-0.3,5.9c0.4-0.1,0.9-0.2,1.5-0.4c1.4-0.4,2.6-0.6,3.4-0.6s1.5,0.3,2.2,0.9c0.6,0.6,1,1.3,1,2.1s-0.3,1.6-0.8,2.2
		C105.9,62.8,105.3,63.1,104.4,63.1z"/>
</g>
</svg>
