<?xml version="1.0" encoding="utf-8"?>
<!-- Generator: Adobe Illustrator 18.1.1, SVG Export Plug-In . SVG Version: 6.00 Build 0)  -->
<svg version="1.1" id="Layer_1" xmlns="http://www.w3.org/2000/svg" xmlns:xlink="http://www.w3.org/1999/xlink" x="0px" y="0px"
	 viewBox="0 0 140 130" style="enable-background:new 0 0 140 130;" xml:space="preserve">
<style type="text/css">
	.st0{fill:#FFFFFF;}
</style>
<g>
	<path class="st0" d="M27.4,59c0,2.2-2.8,3.3-8.5,3.3c0,3.7,0.3,9.2,1,16.6c0.6,7.4,1,12.9,1,16.6l-0.2,0.6c0.1,0.3,0.1,0.8,0.1,1.5
		s-0.3,1.3-0.9,1.8c-0.6,0.5-1.5,0.8-2.5,0.8c-2,0-2.9-2.2-2.9-6.5c0-6.5-0.3-18.7-1-36.7c-0.7-18-1.4-27.5-2.1-28.6
		c0-3.5,2.4-5.4,7.2-5.6c0.7,0,1.7,0,2.9,0c1.3,0,2.2,0.2,3,0.7c0.7,0.5,1.1,1.4,1.1,2.8c0,1.4-0.9,2.1-2.8,2.1l-2.5-0.1
		c-1.9,0-2.8,0.4-2.8,1.1c0,3.2,0.2,7.8,0.7,13.9c0.5,6.1,0.8,10.6,0.8,13.5c2.9-0.7,4.8-1.1,5.6-1.1s1.5,0.3,2,1
		C27.2,57.5,27.4,58.2,27.4,59z"/>
	<path class="st0" d="M60.3,69.5l-0.9,12.9v0.4c-0.4,1.9-0.6,3.9-0.6,6.1s-0.4,4.3-1.1,6.4c-0.7,2-1.9,3.9-3.4,5.4
		c-1.5,1.6-3.2,2.4-5.1,2.4c-1.8,0-3.5-0.6-5-1.9c-1.5-1.3-2.8-2.9-3.7-4.9c-1-2-1.9-4.3-2.6-7.1c-0.8-2.7-1.3-5.4-1.7-8
		s-0.7-5.4-1-8.2c-0.4-4.4-0.5-8-0.5-10.9c0-2.8,0-5.2,0.1-7c0.1-3.4,0.3-6.3,0.4-8.9c0.2-2.6,0.3-4.6,0.3-6c0-1.4,0.1-2.6,0.1-3.5
		c0-1,0.1-2.1,0.3-3.6c0.2-1.4,0.4-2.6,0.6-3.6c0.2-1,0.6-2,1.1-3.1c0.5-1.1,1.1-2,1.7-2.7c1.5-1.6,3.2-2.3,5.1-2.3s3.4,0.2,4.5,0.5
		c1.1,0.4,2.1,0.8,2.9,1.4c0.8,0.6,1.5,1.3,2.1,2.3c0.6,0.9,1.2,1.9,1.6,2.8s0.8,2,1.1,3.2c0.4,1.6,0.9,3.9,1.3,6.8
		C59.5,50,60.3,60.4,60.3,69.5z M51.3,32.2c-0.7-1.7-1.5-3.1-2.5-4c-1-0.9-1.9-1.4-2.8-1.4c-0.9,0-1.7,0.2-2.2,0.7
		c-0.6,0.5-1,1.2-1.4,2.1c-0.4,0.9-0.8,1.9-1.1,3c-0.3,1-0.6,2.3-0.8,3.8c-0.2,1.5-0.4,2.9-0.6,4.1c-0.2,1.2-0.3,2.7-0.4,4.4
		s-0.2,3.1-0.2,4.1c-0.1,1.1-0.1,2.3-0.1,3.8s0,2.5,0,3v2.1c0,5.5,0.5,11.8,1.5,18.8c2.1,13.9,5,20.9,8.7,20.9
		c1.3,0,2.5-1.3,3.4-3.8c0.9-2.5,1.6-5.7,1.9-9.5c0.7-6.5,1-11.2,1-14.1s0-5,0-6.3c0-1.3-0.1-3.1-0.1-5.5c-0.1-2.4-0.2-4.7-0.4-6.8
		s-0.4-4.4-0.7-7c-0.3-2.6-0.7-4.8-1.2-6.8C52.6,35.8,52,33.9,51.3,32.2z"/>
	<path class="st0" d="M97.2,71.1l0.3,6.3v1.5L97.2,80l0,5.9c0,6-0.8,10.2-2.5,12.7c-1.6,2.3-4.1,3.5-7.4,3.5c-4.1,0-7.2-1.5-9.3-4.4
		c-1.9-2.5-3.2-5.9-4.1-10.2c-1.1-5.1-2-8.7-2.6-10.9c-0.1-0.2-0.4-7.8-1.1-22.8c-0.7-15-1-23.4-1-25.1c-0.5-0.6-0.7-1.3-0.7-2.1
		c0-0.8,0.3-1.6,0.9-2.2c0.6-0.6,1.3-0.9,2.1-0.9c2.5,0,3.7,2.4,3.7,7.3l0.9,35.5c0.4,0.9,0.7,2.7,1,5.4c0.3,2.7,0.4,4.8,0.4,6.4
		s0.2,3.4,0.7,5.6c0.5,2.2,1.1,4.4,2,6.7c0.8,2.3,2,4.2,3.4,5.8s2.9,2.4,4.5,2.4c2.6,0,4-2.3,4.1-7c0-0.6,0-1.3,0-2.1V43.6
		c0-1.9-0.4-4.8-1.1-8.7c-0.7-3.9-1.1-6.5-1.1-7.9c0-1.4,0.3-2.3,1-2.8s1.5-0.8,2.3-0.8l3.1,2.4v1.7l-0.9,6.2c0,4,0.2,9.7,0.7,17.4
		c0.5,7.6,0.8,13.3,0.8,17v0.1L97.2,71.1z"/>
	<path class="st0" d="M129.1,98c0,2.2-0.8,3.3-2.4,3.3c-1.3,0-2.5-0.9-3.7-2.7v-0.3c-0.2-2.7-1-6.5-2.5-11.2c-1.5-4.7-2.4-8-2.8-9.6
		c-0.4-1.7-1-4.8-1.8-9.4s-1.5-8.1-2.1-10.5v40.2c0,2.2-1.1,3.2-3.3,3.2c-0.8,0-1.5-0.3-2-0.8c-0.6-0.5-0.8-1.2-0.8-2v-0.8l0.7-59.8
		V24.9c0-0.8,0.2-1.4,0.5-1.7c0.3-0.3,1.3-0.5,2.9-0.5s3.2,0.5,4.9,1.6c1.7,1,3,2.4,4,4.1c2.1,3.4,3.1,7.2,3.1,11.3
		c0,3.3-0.8,7.1-2.5,11.4c-0.2,0.5-0.6,1.4-1.2,2.9s-0.9,2.4-1,2.6c0,2.7,0.5,6,1.3,9.9c0.8,4,1.6,7.2,2.4,9.6
		c0.7,2.4,2,6.2,3.7,11.4c1.7,5.2,2.7,8.1,2.9,8.9V98z M113.5,27.4l-0.5,20.8c0,2.1,0,3.7,0.1,4.7c1.1-1.1,2.2-2.4,3.3-3.9l1.5-8.8
		c0-3.5-0.5-6.5-1.4-8.9C115.5,28.9,114.5,27.6,113.5,27.4z"/>
</g>
</svg>
