<?xml version="1.0" encoding="utf-8"?>
<!-- Generator: Adobe Illustrator 18.1.1, SVG Export Plug-In . SVG Version: 6.00 Build 0)  -->
<svg version="1.1" id="Layer_1" xmlns="http://www.w3.org/2000/svg" xmlns:xlink="http://www.w3.org/1999/xlink" x="0px" y="0px"
	 viewBox="0 0 120 130" style="enable-background:new 0 0 120 130;" xml:space="preserve">
<style type="text/css">
	.st0{fill:#FFFFFF;}
</style>
<g>
	<path class="st0" d="M37,74.8l-1,15.1v0.5c-0.5,2.2-0.8,4.6-0.8,7.2c0,2.6-0.4,5-1.3,7.4s-2.2,4.5-4,6.3c-1.8,1.8-3.8,2.8-5.9,2.8
		c-2.1,0-4.1-0.7-5.8-2.2c-1.8-1.5-3.2-3.4-4.4-5.7c-1.1-2.3-2.2-5.1-3.1-8.3c-0.9-3.2-1.6-6.3-2-9.4c-0.5-3-0.9-6.3-1.2-9.6
		c-0.4-5.2-0.6-9.4-0.6-12.7c0-3.3,0.1-6,0.2-8.2c0.2-3.9,0.3-7.4,0.5-10.4c0.2-3,0.3-5.4,0.3-7c0-1.6,0.1-3,0.1-4.1
		c0-1.1,0.2-2.5,0.3-4.2c0.2-1.6,0.4-3.1,0.7-4.2c0.3-1.2,0.7-2.4,1.3-3.7c0.6-1.3,1.2-2.3,2-3.1c1.8-1.8,3.8-2.7,6-2.7
		c2.2,0,4,0.2,5.3,0.6c1.3,0.4,2.4,1,3.3,1.7c0.9,0.7,1.7,1.6,2.5,2.7c0.8,1.1,1.4,2.2,1.9,3.2c0.5,1,0.9,2.3,1.3,3.8
		c0.5,1.9,1,4.5,1.5,8C36.1,52.1,37,64.2,37,74.8z M26.6,31.2c-0.8-2-1.7-3.6-2.9-4.7c-1.1-1.1-2.2-1.7-3.3-1.7
		c-1.1,0-1.9,0.3-2.6,0.8c-0.7,0.5-1.2,1.4-1.7,2.4c-0.5,1.1-0.9,2.2-1.3,3.5c-0.4,1.2-0.7,2.7-1,4.5c-0.3,1.8-0.5,3.4-0.7,4.8
		c-0.2,1.4-0.3,3.1-0.5,5.1c-0.1,2-0.2,3.6-0.3,4.8c-0.1,1.2-0.1,2.7-0.1,4.5c0,1.7,0,2.9,0,3.5v2.4c0,6.4,0.6,13.7,1.8,22
		c2.4,16.2,5.8,24.4,10.2,24.4c1.6,0,2.9-1.5,4-4.4c1.1-3,1.8-6.7,2.3-11.1c0.8-7.6,1.2-13,1.2-16.4c0-3.4,0-5.8,0-7.3
		c0-1.5-0.1-3.6-0.2-6.4c-0.1-2.8-0.3-5.4-0.5-7.9c-0.2-2.5-0.5-5.2-0.9-8.2c-0.3-3-0.8-5.6-1.4-8C28,35.4,27.3,33.2,26.6,31.2z"/>
	<path class="st0" d="M80.2,26.8l-0.5,44v36.4c0,1.9-0.8,3.3-2.3,4.1c-0.8,0.4-1.7,0.6-2.5,0.6c-0.9,0-1.5-0.1-2-0.4
		c-0.4-0.3-0.8-0.6-1-1c-0.2-0.4-0.4-0.9-0.6-1.5c-0.2-0.6-0.3-1.1-0.4-1.6c-0.4-2.8-1.9-8.8-4.4-17.8c-4.9-17.4-8-30.5-9.4-39.3
		c-0.1-0.3-0.1-0.6-0.1-1.1c0-0.5,0-0.9-0.1-1.2c0-0.9-0.3-1.6-0.6-2.1c0-1.6-0.3-3.7-1-6.3c-0.7-2.5-1.1-4.1-1.2-4.6v75.4h-4.2
		v-2.2c0.2-0.6,0.1-1.8-0.1-3.7c-0.2-1.9-0.3-4.1-0.3-6.6c0-2.6-0.3-8.5-0.8-17.7C48.2,71.2,48,65.6,48,63.5V48.3l0.8-21.9
		c0-2.9,0.2-4.6,0.6-4.9c1-0.8,2.1-1.2,3.1-1.2c1.1,0,1.9,0.2,2.5,0.5c1.4,0.7,2,1.8,2,3.1c0,1.3,0.2,2.6,0.5,3.9
		c0.3,1.3,0.8,2.8,1.3,4.4c0.6,1.6,1,2.8,1.2,3.7c0.2,0.9,0.4,1.8,0.6,3c0.2,1.1,0.3,2.1,0.4,3c0.3,3,0.6,5.6,1,7.7
		c0.4,2.2,1.2,5.4,2.4,9.7c1.2,4.3,2.3,8.1,3.3,11.4c2.6,8.5,4.1,16,4.5,22.7c0.6,1.2,1,2.6,1.2,4.2l0.3-41.5V20.9
		c0.5-2,1.8-3,3.9-3s3.2,1.6,3.2,4.7v0.7C80.4,24.3,80.2,25.5,80.2,26.8z"/>
	<path class="st0" d="M105.3,67.1l-3-0.1c-0.9,0-1.6,0.3-2.1,0.9v36.8c4.1-0.2,6.2-0.3,6.3-0.3c4.4,0,6.6,1,6.6,3.1v0.4
		c-0.5,1.1-1.5,1.9-2.8,2.5c-1.3,0.6-2.4,0.9-3.4,1c-1,0.1-2.2,0.1-3.8,0.1h-3.7c-3,0-4.9-0.6-5.6-1.7c-0.3-0.5-0.5-1.3-0.5-2.2v-86
		l10.3-1c1.2,0,2.4,0.4,3.6,1.1c1.2,0.7,1.8,1.7,1.8,2.8c0,2.4-1.8,3.5-5.4,3.5l-3.4-0.1c-0.6,0-1,0-1.3,0.1l0.9,19.7
		c0,1.6-0.1,3.9-0.3,7c-0.2,3-0.3,5.3-0.3,6.7c0.4-0.1,1-0.2,1.7-0.4c1.6-0.4,2.9-0.6,3.8-0.6c0.9,0,1.7,0.3,2.4,1
		c0.7,0.7,1.1,1.5,1.1,2.4s-0.3,1.8-0.9,2.5C107,66.7,106.2,67.1,105.3,67.1z"/>
</g>
</svg>
