<?xml version="1.0" encoding="utf-8"?>
<!-- Generator: Adobe Illustrator 18.1.1, SVG Export Plug-In . SVG Version: 6.00 Build 0)  -->
<svg version="1.1" id="Layer_1" xmlns="http://www.w3.org/2000/svg" xmlns:xlink="http://www.w3.org/1999/xlink" x="0px" y="0px"
	 viewBox="0 0 165.7 130" style="enable-background:new 0 0 165.7 130;" xml:space="preserve">
<style type="text/css">
	.st0{fill:#FFFFFF;}
</style>
<g>
	<path class="st0" d="M10.5,103.7c0-1.9,0.8-2.8,2.3-2.8c0.8,0,1.8,0.3,3.1,0.8c1.3,0.5,2.4,0.8,3.3,0.8c0.9,0,1.9-0.6,3-1.8
		c1.1-1.2,1.9-2.7,2.6-4.4c1.3-3.6,1.9-6.8,1.9-9.8c0-2.9-0.5-6.1-1.5-9.4c-1-3.3-2.3-6.5-3.8-9.4c-1.5-2.9-3-5.9-4.4-8.8
		c-3.5-7-5.3-13.4-5.3-19.1c0-5.4,1.7-9.7,5.2-12.8c1.8-1.6,4-2.5,6.5-2.5c1.3,0,2.5,0.3,3.7,1c1.2,0.7,2,1.6,2.5,2.7v2.2
		c-2.9,0-4.9-0.3-5.9-1c-1.3,0.1-2.4,0.7-3.4,1.8c-1.7,2-2.6,4.4-2.6,7.1c0,2.7,0.4,5.4,1.2,8.3c0.8,2.8,1.7,5.5,2.8,8
		c1.1,2.5,2.2,4.8,3.3,7c1.1,2.1,2.1,3.9,2.8,5.3c0.8,1.4,1.2,2.1,1.2,2.1V70c0.2,0.9,0.6,2.3,1.2,4.2c0.6,1.9,1,3.4,1.4,4.5
		c0.9,3.1,1.3,5.8,1.3,8.3c0,2.5-0.3,4.9-0.9,7.1c-0.6,2.2-1.4,4.4-2.6,6.4c-1.1,2-2.6,3.6-4.5,4.9c-1.9,1.3-3.7,1.9-5.3,1.9
		s-3-0.1-4.1-0.3c-1.1-0.2-2.2-0.5-3.4-1.1C11.1,105.3,10.5,104.6,10.5,103.7z"/>
	<path class="st0" d="M53,66.7l-2.6-0.1c-0.8,0-1.4,0.3-1.8,0.8v32.3c3.6-0.2,5.4-0.3,5.5-0.3c3.9,0,5.8,0.9,5.8,2.8v0.4
		c-0.5,1-1.3,1.7-2.4,2.2s-2.1,0.8-3,0.9c-0.9,0.1-2,0.1-3.4,0.1h-3.3c-2.7,0-4.3-0.5-4.9-1.5c-0.3-0.5-0.4-1.1-0.4-1.9V26.7l9-0.9
		c1.1,0,2.1,0.3,3.2,0.9c1.1,0.6,1.6,1.5,1.6,2.5c0,2.1-1.6,3.1-4.7,3.1l-3-0.1c-0.5,0-0.9,0-1.1,0.1l0.8,17.3
		c0,1.4-0.1,3.4-0.3,6.1c-0.2,2.7-0.3,4.6-0.3,5.8c0.4-0.1,0.9-0.2,1.5-0.4c1.4-0.4,2.5-0.6,3.3-0.6c0.8,0,1.5,0.3,2.1,0.9
		c0.6,0.6,0.9,1.3,0.9,2.1s-0.3,1.5-0.8,2.2C54.5,66.4,53.8,66.7,53,66.7z"/>
	<path class="st0" d="M91,24.9h2.2c-0.5,4.5-1.7,14.4-3.7,29.7c-2,15.2-3.2,25.2-3.6,29.9c-0.4,4.7-0.6,7.9-0.6,9.6
		c0,1.7-0.1,3.2-0.1,4.5c-0.1,1.3-0.2,2.6-0.4,3.9c-0.4,2.9-1.5,4.3-3.1,4.3c-1,0-1.8-0.4-2.5-1.1c-1.6-6.6-4-19.9-7.1-39.9
		c-3.2-19.9-5.4-32.8-6.7-38.5c0.4-1.4,1.4-2,3.1-2c0.8,0,1.3,0.2,1.6,0.5s0.5,0.6,0.6,0.8c0.1,0.2,0.3,0.5,0.4,0.9
		c0.1,0.4,0.2,0.7,0.2,0.9c0.1,0.2,0.1,0.6,0.2,1c0.1,0.4,0.2,1.7,0.6,3.8c0.3,2.1,1.1,7.1,2.3,15.1c2.5,17.4,4.7,30.5,6.5,39.5
		c0.4-3.9,1.3-10.2,2.6-18.8C85.9,51,87.2,37,87.2,27C88.3,25.6,89.5,24.9,91,24.9z"/>
	<path class="st0" d="M112.7,66.7l-2.6-0.1c-0.8,0-1.4,0.3-1.8,0.8v32.3c3.6-0.2,5.4-0.3,5.5-0.3c3.9,0,5.8,0.9,5.8,2.8v0.4
		c-0.5,1-1.3,1.7-2.4,2.2s-2.1,0.8-3,0.9c-0.9,0.1-2,0.1-3.4,0.1h-3.3c-2.7,0-4.3-0.5-4.9-1.5c-0.3-0.5-0.4-1.1-0.4-1.9V26.7l9-0.9
		c1.1,0,2.1,0.3,3.2,0.9c1.1,0.6,1.6,1.5,1.6,2.5c0,2.1-1.6,3.1-4.7,3.1l-3-0.1c-0.5,0-0.9,0-1.1,0.1l0.8,17.3
		c0,1.4-0.1,3.4-0.3,6.1c-0.2,2.7-0.3,4.6-0.3,5.8c0.4-0.1,0.9-0.2,1.5-0.4c1.4-0.4,2.5-0.6,3.3-0.6c0.8,0,1.5,0.3,2.1,0.9
		c0.6,0.6,0.9,1.3,0.9,2.1s-0.3,1.5-0.8,2.2C114.2,66.4,113.5,66.7,112.7,66.7z"/>
	<path class="st0" d="M155.4,31.2L155,69.9v32c0,1.7-0.7,2.9-2,3.6c-0.7,0.4-1.5,0.6-2.2,0.6s-1.3-0.1-1.7-0.4
		c-0.4-0.2-0.7-0.5-0.9-0.9s-0.4-0.8-0.5-1.3s-0.3-1-0.3-1.4c-0.4-2.5-1.7-7.7-3.9-15.6c-4.3-15.2-7-26.7-8.2-34.5
		c-0.1-0.2-0.1-0.6-0.1-1c0-0.4,0-0.7-0.1-1c0-0.7-0.2-1.4-0.6-1.8c0-1.4-0.3-3.3-0.9-5.5c-0.6-2.2-1-3.6-1-4v66.2h-3.7v-1.9
		c0.1-0.5,0.1-1.6-0.1-3.2c-0.2-1.6-0.3-3.6-0.3-5.8s-0.2-7.4-0.7-15.5c-0.4-8.1-0.7-13.1-0.7-14.9V50.2l0.7-19.2
		c0-2.6,0.2-4,0.6-4.3c0.9-0.7,1.8-1,2.8-1c1,0,1.7,0.1,2.2,0.4c1.2,0.6,1.8,1.5,1.8,2.7c0,1.2,0.1,2.3,0.4,3.4
		c0.3,1.1,0.7,2.4,1.2,3.8c0.5,1.4,0.9,2.5,1.1,3.2c0.2,0.7,0.4,1.6,0.5,2.6c0.2,1,0.3,1.9,0.3,2.7c0.2,2.6,0.5,4.9,0.9,6.8
		c0.4,1.9,1,4.7,2.1,8.5s2,7.1,2.9,10c2.3,7.4,3.6,14.1,3.9,20c0.5,1,0.9,2.3,1,3.7l0.3-36.5V26.1c0.4-1.7,1.6-2.6,3.4-2.6
		c1.9,0,2.8,1.4,2.8,4.1v0.6C155.7,29.1,155.4,30.1,155.4,31.2z"/>
</g>
</svg>
