<?xml version="1.0" encoding="utf-8"?>
<!-- Generator: Adobe Illustrator 18.1.1, SVG Export Plug-In . SVG Version: 6.00 Build 0)  -->
<svg version="1.1" id="Layer_1" xmlns="http://www.w3.org/2000/svg" xmlns:xlink="http://www.w3.org/1999/xlink" x="0px" y="0px"
	 viewBox="0 0 160 130" style="enable-background:new 0 0 160 130;" xml:space="preserve">
<style type="text/css">
	.st0{fill:#FFFFFF;}
</style>
<g>
	<path class="st0" d="M27.5,41.8l-0.2,13.4c0,6.3,0.5,11.6,1.6,15.9v0.1c-0.5,2.2-0.7,4.8-0.7,7.9l0.9,18.7c0,3.4-1,5.1-3,5.1
		c-1.2,0-2-0.5-2.5-1.6c-0.5-1.1-0.8-2.3-0.8-3.6L23.5,81c0-3.6-0.2-9-0.7-16.2c-0.5-7.2-0.7-12.6-0.7-16.2l0.2-9.1
		c0-5-0.3-8.2-1-9.7l-5.6,0.6c-0.9,0-1.7-0.3-2.4-0.8c-0.7-0.5-1-1.2-1-2c0-0.8,0.8-1.5,2.5-2.1c1.7-0.6,3.7-1,6.1-1.3
		c4.2-0.5,7.7-0.7,10.5-0.7c0.8,0,1.6,0.3,2.3,0.8c0.7,0.6,1,1.3,1,2.1c0,0.8-0.3,1.5-0.9,2c-0.6,0.5-1.4,0.7-2.2,0.7l-3.7-0.2
		c-0.5,0-0.8,0-1.1,0.1C27.3,33,27.5,37.2,27.5,41.8z"/>
	<path class="st0" d="M57.4,60.3l-0.9-34.1c0-0.5,0.2-1.1,0.8-1.7c0.6-0.6,1.2-0.9,2-0.9c0.7,0,1.4,0.6,2,1.8c0.6,1.2,0.9,3.2,0.9,6
		c0,7.6,0.3,19,1,34.3c0.6,15.2,1,26.7,1,34.2c0,0.9-0.3,1.8-0.9,2.6c-0.6,0.8-1.3,1.2-2.2,1.2c-1.8,0-2.6-1.2-2.6-3.5
		c0-12.9-0.3-25.1-0.9-36.7c-1.9-0.3-3.6-0.5-5.1-0.5c-1.6,0-2.9,0.3-4.2,0.8c0,3.8,0.3,9.6,0.9,17.4c0.6,7.8,0.8,13.8,0.8,17.8
		c0,0.7-0.2,1.3-0.6,1.9c-0.4,0.6-0.9,0.9-1.6,0.9c-1.1,0-2-0.5-2.5-1.4c-0.6-0.9-0.9-3.4-1.1-7.4c-0.2-4-0.2-8.3-0.3-13.1
		c0-4.7-0.1-7.6-0.2-8.5c-1.3-18-1.9-33.4-1.9-46.1v-0.8c0.1-1.1,0.7-1.6,1.8-1.6c2.1,0,3.4,0.7,3.7,2.2c-0.2,2.5-0.4,5.1-0.4,7.8
		l0.7,21.4l-0.1,3.9c0,1,0.1,1.9,0.2,2.7L57.4,60.3z"/>
	<path class="st0" d="M96.3,99.8c0,2.3-0.8,3.4-2.5,3.4c-1.3,0-2.5-0.9-3.8-2.8V100c-0.2-2.8-1-6.6-2.6-11.4
		c-1.5-4.8-2.5-8.1-2.9-9.8c-0.4-1.7-1-4.9-1.8-9.6c-0.8-4.7-1.5-8.3-2.2-10.7v41c0,2.2-1.1,3.3-3.4,3.3c-0.8,0-1.5-0.3-2.1-0.8
		c-0.6-0.6-0.9-1.2-0.9-2.1v-0.8l0.7-61V25.3c0-0.8,0.2-1.4,0.5-1.7c0.3-0.3,1.3-0.5,2.9-0.5c1.6,0,3.3,0.5,5,1.6
		c1.7,1.1,3,2.4,4.1,4.1c2.1,3.5,3.1,7.3,3.1,11.5c0,3.4-0.8,7.3-2.5,11.6c-0.2,0.5-0.6,1.5-1.2,3c-0.6,1.5-1,2.4-1.1,2.7
		c0,2.7,0.5,6.1,1.3,10.1c0.9,4,1.7,7.3,2.4,9.8c0.7,2.5,2,6.4,3.7,11.7s2.7,8.3,3,9V99.8z M80.3,27.9l-0.6,21.2
		c0,2.1,0,3.7,0.1,4.8c1.1-1.1,2.3-2.5,3.4-4l1.5-9c0-3.6-0.5-6.6-1.4-9C82.4,29.4,81.4,28.1,80.3,27.9z"/>
	<path class="st0" d="M115.6,64l-2.6-0.1c-0.8,0-1.4,0.3-1.8,0.8v32.1c3.6-0.2,5.4-0.3,5.5-0.3c3.9,0,5.8,0.9,5.8,2.7v0.4
		c-0.5,0.9-1.3,1.7-2.4,2.2c-1.1,0.5-2.1,0.8-3,0.9c-0.8,0.1-2,0.1-3.4,0.1h-3.2c-2.6,0-4.3-0.5-4.9-1.5c-0.3-0.5-0.4-1.1-0.4-1.9
		v-75l9-0.9c1,0,2.1,0.3,3.2,0.9c1.1,0.6,1.6,1.4,1.6,2.5c0,2.1-1.6,3.1-4.7,3.1l-3-0.1c-0.5,0-0.9,0-1.1,0.1L111,47
		c0,1.4-0.1,3.4-0.3,6.1c-0.2,2.7-0.3,4.6-0.3,5.8c0.4-0.1,0.9-0.2,1.5-0.4c1.4-0.4,2.5-0.6,3.3-0.6c0.8,0,1.5,0.3,2.1,0.9
		c0.6,0.6,0.9,1.3,0.9,2.1c0,0.8-0.3,1.5-0.8,2.2C117.1,63.7,116.4,64,115.6,64z"/>
	<path class="st0" d="M141.3,64l-2.6-0.1c-0.8,0-1.4,0.3-1.8,0.8v32.1c3.6-0.2,5.4-0.3,5.5-0.3c3.9,0,5.8,0.9,5.8,2.7v0.4
		c-0.5,0.9-1.3,1.7-2.4,2.2c-1.1,0.5-2.1,0.8-3,0.9c-0.8,0.1-2,0.1-3.4,0.1h-3.2c-2.6,0-4.3-0.5-4.9-1.5c-0.3-0.5-0.4-1.1-0.4-1.9
		v-75l9-0.9c1,0,2.1,0.3,3.2,0.9c1.1,0.6,1.6,1.4,1.6,2.5c0,2.1-1.6,3.1-4.7,3.1l-3-0.1c-0.5,0-0.9,0-1.1,0.1l0.8,17.2
		c0,1.4-0.1,3.4-0.3,6.1c-0.2,2.7-0.3,4.6-0.3,5.8c0.4-0.1,0.9-0.2,1.5-0.4c1.4-0.4,2.5-0.6,3.3-0.6c0.8,0,1.5,0.3,2.1,0.9
		c0.6,0.6,0.9,1.3,0.9,2.1c0,0.8-0.3,1.5-0.8,2.2C142.7,63.7,142.1,64,141.3,64z"/>
</g>
</svg>
