<?xml version="1.0" encoding="utf-8"?>
<!-- Generator: Adobe Illustrator 18.1.1, SVG Export Plug-In . SVG Version: 6.00 Build 0)  -->
<svg version="1.1" id="Layer_1" xmlns="http://www.w3.org/2000/svg" xmlns:xlink="http://www.w3.org/1999/xlink" x="0px" y="0px"
	 viewBox="0 0 120 130" style="enable-background:new 0 0 120 130;" xml:space="preserve">
<style type="text/css">
	.st0{fill:#FFFFFF;}
</style>
<g>
	<path class="st0" d="M23.2,42.5L23,55.9c0,6.3,0.5,11.7,1.6,16V72c-0.5,2.2-0.7,4.9-0.7,7.9l0.9,18.7c0,3.4-1,5.1-3,5.1
		c-1.2,0-2-0.5-2.5-1.6c-0.5-1.1-0.8-2.3-0.8-3.6l0.8-16.6c0-3.6-0.2-9-0.7-16.2c-0.5-7.2-0.7-12.6-0.7-16.2l0.2-9.1
		c0-5-0.3-8.2-1-9.7l-5.6,0.6c-0.9,0-1.7-0.3-2.4-0.8c-0.7-0.5-1-1.2-1-2c0-0.8,0.8-1.5,2.5-2.1c1.7-0.6,3.7-1,6.1-1.3
		c4.2-0.5,7.7-0.7,10.5-0.7c0.8,0,1.6,0.3,2.3,0.8c0.7,0.6,1,1.3,1,2.1c0,0.8-0.3,1.5-0.9,2c-0.6,0.5-1.4,0.7-2.2,0.7l-3.7-0.2
		c-0.5,0-0.8,0-1.1,0.1C23,33.7,23.2,38,23.2,42.5z"/>
	<path class="st0" d="M48.7,77.4c2.5-20.4,3.8-33.6,3.8-39.8v-2c0-0.7,0.3-1.5,0.8-2.2c0.6-0.7,1.2-1,1.9-1c2.8,0,4.2,1,4.2,3.1V37
		c0,6.8,1.4,16.5,4.1,29.2c1.3,5.7,2.1,10.1,2.6,13.3c0.4-3.8,1.1-9.4,2-16.6c2.1-15.8,3.2-28,3.2-36.5c0-1.5,0.3-2.6,0.8-3.3
		c0.5-0.7,1.3-1,2.5-1s2.1,0.3,2.7,0.8c0.7,0.5,1,1.2,1,2.1c0,0.8-0.4,1.6-1.1,2.3c-1.1,5.7-2,14.2-2.8,25.5
		c-0.8,11.3-1.6,19.2-2.3,23.7c-0.7,4.5-1.2,7.6-1.5,9.3c-0.9,5.8-1.3,10.8-1.3,15.1c0,1.1-0.3,1.9-0.8,2.6c-0.5,0.7-1.3,1-2.2,1
		c-0.9,0-1.7-0.6-2.3-1.7c-0.6-1.1-1.1-2.6-1.4-4.5c-0.3-1.8-0.6-3.6-0.8-5.3c-0.2-1.7-0.3-3.4-0.5-5.2c-0.1-1.8-0.3-3.7-0.6-5.7
		c-0.3-2-1.1-6.3-2.4-12.9c-1.4-6.6-2.1-10.5-2.3-11.6c-2.5,19.5-3.8,34.2-3.8,44c0,0.7-0.3,1.4-0.9,2c-0.6,0.6-1.3,0.9-2.1,0.9
		c-2.5,0-3.8-2.6-3.8-7.9c0-3.3-1.4-15.2-4.3-35.7c-2.9-20.5-4.7-31.8-5.5-33.7c0.9-1.7,2.1-2.5,3.6-2.5c2,0,3.4,2.6,4.3,7.8
		c0.4,2.4,0.7,5.5,0.8,9.2c0.1,3.7,0.2,6.2,0.3,7.5c0.1,1.4,0.3,3.4,0.7,6.2c0.3,2.7,0.6,5.1,0.9,7.1C47.2,66.9,47.9,71.9,48.7,77.4
		z"/>
	<path class="st0" d="M112,71.6l-0.9,13.2v0.5c-0.4,1.9-0.7,4-0.7,6.3s-0.4,4.4-1.1,6.5c-0.8,2.1-1.9,3.9-3.5,5.5
		c-1.6,1.6-3.3,2.4-5.2,2.4c-1.9,0-3.6-0.6-5.1-1.9c-1.5-1.3-2.8-2.9-3.8-5c-1-2-1.9-4.4-2.7-7.2c-0.8-2.8-1.4-5.5-1.8-8.2
		c-0.4-2.7-0.7-5.5-1-8.4c-0.4-4.5-0.6-8.2-0.6-11.1c0-2.9,0.1-5.3,0.2-7.1c0.1-3.4,0.3-6.5,0.5-9.1c0.2-2.7,0.3-4.7,0.3-6.1
		c0-1.4,0.1-2.6,0.1-3.6c0-1,0.1-2.2,0.3-3.6c0.2-1.4,0.4-2.7,0.6-3.7c0.2-1,0.6-2.1,1.1-3.2c0.5-1.1,1.1-2,1.8-2.7
		c1.6-1.6,3.3-2.4,5.2-2.4c1.9,0,3.5,0.2,4.6,0.6c1.2,0.4,2.1,0.9,2.9,1.5c0.8,0.6,1.5,1.4,2.2,2.3c0.7,1,1.2,1.9,1.6,2.8
		c0.4,0.9,0.8,2,1.1,3.3c0.4,1.6,0.9,4,1.3,7C111.2,51.7,112,62.3,112,71.6z M102.9,33.4c-0.7-1.8-1.5-3.2-2.5-4.1
		c-1-1-2-1.4-2.9-1.4c-0.9,0-1.7,0.2-2.3,0.7c-0.6,0.5-1.1,1.2-1.5,2.1c-0.4,1-0.8,2-1.1,3c-0.3,1.1-0.6,2.4-0.8,3.9
		c-0.2,1.5-0.4,2.9-0.6,4.2c-0.2,1.3-0.3,2.7-0.4,4.5c-0.1,1.7-0.2,3.1-0.3,4.2c-0.1,1.1-0.1,2.4-0.1,3.9s0,2.5,0,3.1v2.1
		c0,5.6,0.5,12,1.6,19.2c2.1,14.2,5.1,21.3,8.9,21.3c1.4,0,2.5-1.3,3.5-3.9c0.9-2.6,1.6-5.8,2-9.7c0.7-6.6,1-11.4,1-14.4
		c0-3,0-5.1,0-6.4c0-1.3-0.1-3.2-0.2-5.6c-0.1-2.5-0.2-4.8-0.4-6.9c-0.2-2.2-0.5-4.5-0.8-7.1c-0.3-2.6-0.7-4.9-1.2-7
		C104.1,37.1,103.5,35.2,102.9,33.4z"/>
</g>
</svg>
