<svg xmlns="http://www.w3.org/2000/svg" viewBox="0 0 360 160" enable-background="new 0 0 360 160"><style type="text/css">.st0{fill:#FFFFFF;}</style><path class="st0" d="M13.5 82.3l.5-39.2c0-2.9 0-5-.1-6.4v-1.1c0-3.4 1.2-5.1 3.5-5.1 1.9 0 4.3.5 7.5 1.6 3.1 1 4.7 2.3 4.7 3.7 0 1.9.6 4.6 1.8 8.1 1.2 3.6 1.8 6.2 1.8 8.1 0 5.6-.4 9.6-1.2 12.1-.8 2.5-2.1 4.9-3.8 7.4 2.4 2.3 3.9 5.2 4.6 8.7.7 3.5 1.1 7 1.1 10.5s-.2 6.4-.6 8.5c-.4 2.2-1.1 4.2-2 6.2-.9 2-2.1 3.7-3.4 5.1-2.9 3.1-6.9 4.7-11.9 4.7-1.8 0-2.9-.8-3.3-2.3-.4-1.1-.5-2.5-.5-4.2l1.3-26.4zm6.6 16.9c-.5.9-.8 2.3-.8 4.1v5.6c2.7-.6 4.7-2.3 6-4.9 1.4-2.6 2.1-5.1 2.1-7.3 0-2.3 0-4.1-.1-5.4-.1-1.3-.2-3-.5-4.9-.3-1.9-.7-3.6-1.1-5.1-1.2-3.5-3-5.5-5.4-6.1-.3 4.8-.5 9.7-.5 14.9s.1 8.1.3 9.1zm0-63v31.7c4.1-.1 6.2-5.1 6.2-15 0-2.6-.3-5.3-.9-8.2-1.2-5.4-2.9-8.3-5.3-8.5zm36.9 73.1l4.9-.3c3.1 0 4.7 1 4.7 3 0 1.2-.5 2.2-1.6 2.7-1.1.6-2.3.8-3.7.8h-11.7c-1 0-1.9-.4-2.7-1.1-.7-.7-1.1-1.6-1.2-2.8-.1-1.1 0-2.5.2-4.2.2-1.7.3-3 .3-4l-.6-15.8.8-36.1-.7-10.4c0-5.8 1.7-8.8 5.2-8.8 1 0 1.9.3 2.7.9.3 0 1.1.1 2.3.2 1.2.1 2.3.2 3.2.4.9.2 1.9.4 3 .7 2.3.6 3.5 1.8 3.5 3.3 0 1.7-1.2 3-3.6 3.9-3.8-1.3-6.9-2.1-9.4-2.4.1 1.8.2 3.5.2 5.3l-.5 17.8c0 .1.1.7.4 1.9l4.4-.2c4 0 6 1.1 6 3.4 0 1.2-.4 2.3-1.1 3.2-.7.9-1.7 1.4-3 1.4s-2.4-.4-3.4-1.1h-3.1c.2 3.1.4 6.1.4 8.9l-.5 22.4c.1 4.7 1.6 7 4.6 7zm38.3-26.7l-2.2.1c-1.2 0-2.1-.2-2.8-.6-.7-.4-1-1.1-1-2.3s.4-2 1.1-2.6c.7-.6 1.7-.9 2.7-.9v.1c8 0 12.1 1.3 12.1 3.8l-1.3 9 .6 13.1c0 2.4-.2 4.4-.5 6.1-4.8 4.4-9 6.6-12.7 6.6-2 0-3.8-.5-5.4-1.6-1.7-1.1-3.3-2.9-4.8-5.5s-2.9-7.5-4.1-14.7c-1.2-7.2-1.8-12.2-1.8-15.1 0-2.8.1-5.2.2-7 .1-1.9.3-4 .5-6.3.2-2.4.4-3.9.4-4.6 0-.7.1-1.7.2-3s.2-2.6.3-3.7c.1-1.2.3-2.9.7-5 .3-2.2.7-3.9 1.1-5.1.4-1.2 1-2.7 1.8-4.3.8-1.6 1.6-2.8 2.7-3.7 2.5-2.1 5.3-3.1 8.5-3.1s4.9 1 4.9 3.1c0 1-.4 1.8-1.1 2.4-.7.6-1.5.9-2.4.9l-2.2-.3c-2.4 0-4.2 2.8-5.5 8.5-1.2 5.5-1.9 10.4-2.1 14.8-.4 6.7-.5 11.2-.5 13.4v5.2c0 1.2.1 2.8.1 4.6.1 1.8.2 3.5.3 4.9.1 1.4.3 3 .6 4.7.2 1.7.5 3.2.9 4.5.3 1.3.8 2.5 1.3 3.8.5 1.3 1.1 2.3 1.7 3.1 1.4 1.8 3.2 2.7 5.2 2.7 3.6 0 5.3-6.9 5.3-20.8v-4.5c-.8-.5-1.6-.7-2.8-.7zm36.5 29.9l-4.6.1-5.4.2c-2.3 0-3.8-.7-4.6-2.2 0-1.2.2-2.1.5-2.8s.9-1 1.9-1h3.5l.2-1.6-.8-26.3.7-27.5c0-4.6-.2-9-.6-13.2h-4.8c-1.5 0-2.5-.2-3.2-.7-.7-.5-1-1.3-1-2.6 0-1.9 2.2-2.9 6.7-2.8h.4c10.6 0 15.9 1.4 15.9 4.2 0 .4-.2 1.2-.7 2.3h-6.3c.3 3 .5 6.6.5 10.6l-.7 23.6.9 26.3v3.7c0 .7-.1 1.8-.4 3.3h5.3c3.4 0 5.1 1 5.1 3.1 0 .9-.3 1.7-.9 2.4-.6.6-1.2 1-2 1l-5.6-.1zm24.5-47.3l.7 32v14c0 1.1-.3 2-.8 2.7-.6.7-1.3 1.1-2.4 1.1-2.7 0-4-2.5-4-7.5l-.2-43.6.7-23.1c0-5.6 1.5-8.3 4.5-8.3 1.8 0 3.1 1.4 3.9 4.2 1.1 5.3 3.1 13 5.9 22.9 2.8 10 4.7 17.5 5.8 22.7.8 2.5 1.8 6.3 3 11.3 1.2 5 2.2 8.7 2.8 11.2.3-17.9.5-39.5.5-65l-.2-3.3c0-1.1.2-2 .6-2.7.4-.7 1.1-1 2.1-1s1.8.2 2.5.7c1.3 1 1.9 2.3 1.9 4.1 0 11.3-.3 25.8-1 43.6-.6 17.8-1.6 28.8-2.9 33.3-.2 0-.5.2-1 .3-.5.2-.9.3-1.1.3-2.3.5-3.7.4-4.3-.3-.6-.7-1-1.7-1.3-2.9-.3-1.2-.6-2.4-.9-3.5-.3-1.1-1.6-6.6-3.8-16.5-5.9-26-9.6-41.1-10.9-45.3v18.6zm46.4 0l.7 32v14c0 1.1-.3 2-.8 2.7s-1.3 1.1-2.4 1.1c-2.7 0-4-2.5-4-7.5l-.2-43.6.7-23.1c0-5.6 1.5-8.3 4.5-8.3 1.8 0 3.1 1.4 3.9 4.2 1.1 5.3 3.1 13 5.9 22.9 2.8 10 4.7 17.5 5.8 22.7.8 2.5 1.8 6.3 3 11.3 1.2 5 2.2 8.7 2.8 11.2.3-17.9.5-39.5.5-65l-.2-3.3c0-1.1.2-2 .6-2.7s1.1-1 2.1-1 1.8.2 2.5.7c1.3 1 1.9 2.3 1.9 4.1 0 11.3-.3 25.8-1 43.6-.6 17.8-1.6 28.8-2.9 33.3-.2 0-.5.2-1 .3-.5.2-.9.3-1.1.3-2.3.5-3.7.4-4.3-.3s-1-1.7-1.3-2.9c-.3-1.2-.6-2.4-.9-3.5s-1.6-6.6-3.8-16.5c-5.9-26-9.6-41.1-10.9-45.3v18.6zm55.2 47.3l-4.6.1-5.4.2c-2.3 0-3.8-.7-4.6-2.2 0-1.2.2-2.1.5-2.8.3-.7.9-1 1.9-1h3.5l.2-1.6-.8-26.3.7-27.5c0-4.6-.2-9-.6-13.2h-4.8c-1.5 0-2.5-.2-3.2-.7-.7-.5-1-1.3-1-2.6 0-1.9 2.2-2.9 6.7-2.8h.4c10.6 0 15.9 1.4 15.9 4.2 0 .4-.2 1.2-.7 2.3h-6.3c.3 3 .5 6.6.5 10.6l-.7 23.6.9 26.3v3.7c0 .7-.1 1.8-.4 3.3h5.3c3.4 0 5.1 1 5.1 3.1 0 .9-.3 1.7-.9 2.4-.6.6-1.2 1-2 1l-5.6-.1zm24.5-47.3l.7 32v14c0 1.1-.3 2-.8 2.7s-1.3 1.1-2.4 1.1c-2.7 0-4-2.5-4-7.5l-.2-43.6.7-23.1c0-5.6 1.5-8.3 4.5-8.3 1.8 0 3.1 1.4 3.9 4.2 1.1 5.3 3.1 13 5.9 22.9 2.8 10 4.7 17.5 5.8 22.7.8 2.5 1.8 6.3 3 11.3 1.2 5 2.2 8.7 2.8 11.2.3-17.9.5-39.5.5-65l-.2-3.3c0-1.1.2-2 .6-2.7s1.1-1 2.1-1 1.8.2 2.5.7c1.3 1 1.9 2.3 1.9 4.1 0 11.3-.3 25.8-1 43.6-.6 17.8-1.6 28.8-2.9 33.3-.2 0-.5.2-1 .3-.5.2-.9.3-1.1.3-2.3.5-3.7.4-4.3-.3s-1-1.7-1.3-2.9c-.3-1.2-.6-2.4-.9-3.5s-1.6-6.6-3.8-16.5c-5.9-26-9.6-41.1-10.9-45.3v18.6zm58.2 17.4l-2.2.1c-1.2 0-2.1-.2-2.8-.6s-1-1.1-1-2.3.4-2 1.1-2.6c.7-.6 1.7-.9 2.7-.9v.1c8 0 12.1 1.3 12.1 3.8l-1.3 9 .6 13.1c0 2.4-.2 4.4-.5 6.1-4.8 4.4-9 6.6-12.7 6.6-2 0-3.8-.5-5.4-1.6-1.7-1.1-3.3-2.9-4.8-5.5-1.6-2.6-2.9-7.5-4.1-14.7-1.2-7.2-1.8-12.2-1.8-15.1 0-2.8.1-5.2.2-7 .1-1.9.3-4 .5-6.3.2-2.4.4-3.9.4-4.6 0-.7.1-1.7.2-3s.2-2.6.3-3.7c.1-1.2.3-2.9.7-5 .3-2.2.7-3.9 1.1-5.1.4-1.2 1-2.7 1.8-4.3.8-1.6 1.7-2.8 2.7-3.7 2.5-2.1 5.3-3.1 8.5-3.1s4.9 1 4.9 3.1c0 1-.4 1.8-1.1 2.4-.7.6-1.5.9-2.4.9l-2.2-.3c-2.4 0-4.2 2.8-5.5 8.5-1.2 5.5-1.9 10.4-2.1 14.8-.4 6.7-.5 11.2-.5 13.4v5.2c0 1.2.1 2.8.1 4.6.1 1.8.2 3.5.3 4.9.1 1.4.3 3 .6 4.7s.5 3.2.9 4.5c.3 1.3.8 2.5 1.3 3.8.5 1.3 1.1 2.3 1.7 3.1 1.4 1.8 3.2 2.7 5.2 2.7 3.6 0 5.3-6.9 5.3-20.8v-4.5c-.8-.5-1.6-.7-2.8-.7z"/></svg>