<?xml version="1.0" encoding="utf-8"?>
<!-- Generator: Adobe Illustrator 18.1.1, SVG Export Plug-In . SVG Version: 6.00 Build 0)  -->
<svg version="1.1" id="Layer_1" xmlns="http://www.w3.org/2000/svg" xmlns:xlink="http://www.w3.org/1999/xlink" x="0px" y="0px"
	 viewBox="0 0 360 160" style="enable-background:new 0 0 360 160;" xml:space="preserve">
<style type="text/css">
	.st0{fill:#FFFFFF;}
</style>
<g>
	<path class="st0" d="M13.5,82.3l0.5-39.2c0-2.9,0-5-0.1-6.4v-1.1c0-3.4,1.2-5.1,3.5-5.1c1.9,0,4.3,0.5,7.5,1.6
		c3.1,1,4.7,2.3,4.7,3.7c0,1.9,0.6,4.6,1.8,8.1c1.2,3.6,1.8,6.2,1.8,8.1c0,5.6-0.4,9.6-1.2,12.1c-0.8,2.5-2.1,4.9-3.8,7.4
		c2.4,2.3,3.9,5.2,4.6,8.7c0.7,3.5,1.1,7,1.1,10.5c0,3.5-0.2,6.4-0.6,8.5c-0.4,2.2-1.1,4.2-2,6.2c-0.9,2-2.1,3.7-3.4,5.1
		c-2.9,3.1-6.9,4.7-11.9,4.7c-1.8,0-2.9-0.8-3.3-2.3c-0.4-1.1-0.5-2.5-0.5-4.2L13.5,82.3z M20.1,99.2c-0.5,0.9-0.8,2.3-0.8,4.1v5.6
		c2.7-0.6,4.7-2.3,6-4.9c1.4-2.6,2.1-5.1,2.1-7.3c0-2.3,0-4.1-0.1-5.4c-0.1-1.3-0.2-3-0.5-4.9c-0.3-1.9-0.7-3.6-1.1-5.1
		c-1.2-3.5-3-5.5-5.4-6.1c-0.3,4.8-0.5,9.7-0.5,14.9S19.9,98.2,20.1,99.2z M20.1,36.2v31.7c4.1-0.1,6.2-5.1,6.2-15
		c0-2.6-0.3-5.3-0.9-8.2C24.2,39.3,22.5,36.4,20.1,36.2z"/>
	<path class="st0" d="M57,109.3l4.9-0.3c3.1,0,4.7,1,4.7,3c0,1.2-0.5,2.2-1.6,2.7c-1.1,0.6-2.3,0.8-3.7,0.8H49.6
		c-1,0-1.9-0.4-2.7-1.1c-0.7-0.7-1.1-1.6-1.2-2.8c-0.1-1.1,0-2.5,0.2-4.2c0.2-1.7,0.3-3,0.3-4l-0.6-15.8l0.8-36.1l-0.7-10.4
		c0-5.8,1.7-8.8,5.2-8.8c1,0,1.9,0.3,2.7,0.9c0.3,0,1.1,0.1,2.3,0.2c1.2,0.1,2.3,0.2,3.2,0.4c0.9,0.2,1.9,0.4,3,0.7
		c2.3,0.6,3.5,1.8,3.5,3.3c0,1.7-1.2,3-3.6,3.9c-3.8-1.3-6.9-2.1-9.4-2.4c0.1,1.8,0.2,3.5,0.2,5.3l-0.5,17.8c0,0.1,0.1,0.7,0.4,1.9
		l4.4-0.2c4,0,6,1.1,6,3.4c0,1.2-0.4,2.3-1.1,3.2c-0.7,0.9-1.7,1.4-3,1.4c-1.3,0-2.4-0.4-3.4-1.1h-3.1c0.2,3.1,0.4,6.1,0.4,8.9
		l-0.5,22.4C52.5,107,54,109.3,57,109.3z"/>
	<path class="st0" d="M95.3,82.6l-2.2,0.1c-1.2,0-2.1-0.2-2.8-0.6c-0.7-0.4-1-1.1-1-2.3s0.4-2,1.1-2.6c0.7-0.6,1.7-0.9,2.7-0.9v0.1
		c8,0,12.1,1.3,12.1,3.8l-1.3,9l0.6,13.1c0,2.4-0.2,4.4-0.5,6.1c-4.8,4.4-9,6.6-12.7,6.6c-2,0-3.8-0.5-5.4-1.6
		c-1.7-1.1-3.3-2.9-4.8-5.5s-2.9-7.5-4.1-14.7c-1.2-7.2-1.8-12.2-1.8-15.1c0-2.8,0.1-5.2,0.2-7c0.1-1.9,0.3-4,0.5-6.3
		c0.2-2.4,0.4-3.9,0.4-4.6c0-0.7,0.1-1.7,0.2-3c0.1-1.3,0.2-2.6,0.3-3.7c0.1-1.2,0.3-2.9,0.7-5c0.3-2.2,0.7-3.9,1.1-5.1
		c0.4-1.2,1-2.7,1.8-4.3c0.8-1.6,1.6-2.8,2.7-3.7c2.5-2.1,5.3-3.1,8.5-3.1c3.2,0,4.9,1,4.9,3.1c0,1-0.4,1.8-1.1,2.4
		c-0.7,0.6-1.5,0.9-2.4,0.9l-2.2-0.3c-2.4,0-4.2,2.8-5.5,8.5c-1.2,5.5-1.9,10.4-2.1,14.8c-0.4,6.7-0.5,11.2-0.5,13.4s0,4,0,5.2
		c0,1.2,0.1,2.8,0.1,4.6c0.1,1.8,0.2,3.5,0.3,4.9c0.1,1.4,0.3,3,0.6,4.7c0.2,1.7,0.5,3.2,0.9,4.5c0.3,1.3,0.8,2.5,1.3,3.8
		c0.5,1.3,1.1,2.3,1.7,3.1c1.4,1.8,3.2,2.7,5.2,2.7c3.6,0,5.3-6.9,5.3-20.8v-4.5C97.3,82.8,96.5,82.6,95.3,82.6z"/>
	<path class="st0" d="M131.8,112.5l-4.6,0.1l-5.4,0.2c-2.3,0-3.8-0.7-4.6-2.2c0-1.2,0.2-2.1,0.5-2.8s0.9-1,1.9-1h3.5l0.2-1.6
		l-0.8-26.3l0.7-27.5c0-4.6-0.2-9-0.6-13.2c-1.7,0-3.3,0-4.8,0c-1.5,0-2.5-0.2-3.2-0.7c-0.7-0.5-1-1.3-1-2.6c0-1.9,2.2-2.9,6.7-2.8
		h0.4c10.6,0,15.9,1.4,15.9,4.2c0,0.4-0.2,1.2-0.7,2.3h-6.3c0.3,3,0.5,6.6,0.5,10.6l-0.7,23.6l0.9,26.3v3.7c0,0.7-0.1,1.8-0.4,3.3
		h5.3c3.4,0,5.1,1,5.1,3.1c0,0.9-0.3,1.7-0.9,2.4c-0.6,0.6-1.2,1-2,1L131.8,112.5z"/>
	<path class="st0" d="M156.3,65.2l0.7,32v14c0,1.1-0.3,2-0.8,2.7c-0.6,0.7-1.3,1.1-2.4,1.1c-2.7,0-4-2.5-4-7.5l-0.2-43.6l0.7-23.1
		c0-5.6,1.5-8.3,4.5-8.3c1.8,0,3.1,1.4,3.9,4.2c1.1,5.3,3.1,13,5.9,22.9c2.8,10,4.7,17.5,5.8,22.7c0.8,2.5,1.8,6.3,3,11.3
		c1.2,5,2.2,8.7,2.8,11.2c0.3-17.9,0.5-39.5,0.5-65l-0.2-3.3c0-1.1,0.2-2,0.6-2.7c0.4-0.7,1.1-1,2.1-1c1,0,1.8,0.2,2.5,0.7
		c1.3,1,1.9,2.3,1.9,4.1c0,11.3-0.3,25.8-1,43.6c-0.6,17.8-1.6,28.8-2.9,33.3c-0.2,0-0.5,0.2-1,0.3c-0.5,0.2-0.9,0.3-1.1,0.3
		c-2.3,0.5-3.7,0.4-4.3-0.3c-0.6-0.7-1-1.7-1.3-2.9c-0.3-1.2-0.6-2.4-0.9-3.5c-0.3-1.1-1.6-6.6-3.8-16.5c-5.9-26-9.6-41.1-10.9-45.3
		V65.2z"/>
	<path class="st0" d="M202.7,65.2l0.7,32v14c0,1.1-0.3,2-0.8,2.7s-1.3,1.1-2.4,1.1c-2.7,0-4-2.5-4-7.5l-0.2-43.6l0.7-23.1
		c0-5.6,1.5-8.3,4.5-8.3c1.8,0,3.1,1.4,3.9,4.2c1.1,5.3,3.1,13,5.9,22.9c2.8,10,4.7,17.5,5.8,22.7c0.8,2.5,1.8,6.3,3,11.3
		c1.2,5,2.2,8.7,2.8,11.2c0.3-17.9,0.5-39.5,0.5-65l-0.2-3.3c0-1.1,0.2-2,0.6-2.7s1.1-1,2.1-1c1,0,1.8,0.2,2.5,0.7
		c1.3,1,1.9,2.3,1.9,4.1c0,11.3-0.3,25.8-1,43.6c-0.6,17.8-1.6,28.8-2.9,33.3c-0.2,0-0.5,0.2-1,0.3c-0.5,0.2-0.9,0.3-1.1,0.3
		c-2.3,0.5-3.7,0.4-4.3-0.3s-1-1.7-1.3-2.9c-0.3-1.2-0.6-2.4-0.9-3.5s-1.6-6.6-3.8-16.5c-5.9-26-9.6-41.1-10.9-45.3V65.2z"/>
	<path class="st0" d="M257.9,112.5l-4.6,0.1l-5.4,0.2c-2.3,0-3.8-0.7-4.6-2.2c0-1.2,0.2-2.1,0.5-2.8c0.3-0.7,0.9-1,1.9-1h3.5
		l0.2-1.6l-0.8-26.3l0.7-27.5c0-4.6-0.2-9-0.6-13.2c-1.7,0-3.3,0-4.8,0c-1.5,0-2.5-0.2-3.2-0.7c-0.7-0.5-1-1.3-1-2.6
		c0-1.9,2.2-2.9,6.7-2.8h0.4c10.6,0,15.9,1.4,15.9,4.2c0,0.4-0.2,1.2-0.7,2.3h-6.3c0.3,3,0.5,6.6,0.5,10.6l-0.7,23.6l0.9,26.3v3.7
		c0,0.7-0.1,1.8-0.4,3.3h5.3c3.4,0,5.1,1,5.1,3.1c0,0.9-0.3,1.7-0.9,2.4c-0.6,0.6-1.2,1-2,1L257.9,112.5z"/>
	<path class="st0" d="M282.4,65.2l0.7,32v14c0,1.1-0.3,2-0.8,2.7s-1.3,1.1-2.4,1.1c-2.7,0-4-2.5-4-7.5l-0.2-43.6l0.7-23.1
		c0-5.6,1.5-8.3,4.5-8.3c1.8,0,3.1,1.4,3.9,4.2c1.1,5.3,3.1,13,5.9,22.9c2.8,10,4.7,17.5,5.8,22.7c0.8,2.5,1.8,6.3,3,11.3
		c1.2,5,2.2,8.7,2.8,11.2c0.3-17.9,0.5-39.5,0.5-65l-0.2-3.3c0-1.1,0.2-2,0.6-2.7s1.1-1,2.1-1c1,0,1.8,0.2,2.5,0.7
		c1.3,1,1.9,2.3,1.9,4.1c0,11.3-0.3,25.8-1,43.6c-0.6,17.8-1.6,28.8-2.9,33.3c-0.2,0-0.5,0.2-1,0.3c-0.5,0.2-0.9,0.3-1.1,0.3
		c-2.3,0.5-3.7,0.4-4.3-0.3s-1-1.7-1.3-2.9c-0.3-1.2-0.6-2.4-0.9-3.5s-1.6-6.6-3.8-16.5c-5.9-26-9.6-41.1-10.9-45.3V65.2z"/>
	<path class="st0" d="M340.6,82.6l-2.2,0.1c-1.2,0-2.1-0.2-2.8-0.6s-1-1.1-1-2.3s0.4-2,1.1-2.6c0.7-0.6,1.7-0.9,2.7-0.9v0.1
		c8,0,12.1,1.3,12.1,3.8l-1.3,9l0.6,13.1c0,2.4-0.2,4.4-0.5,6.1c-4.8,4.4-9,6.6-12.7,6.6c-2,0-3.8-0.5-5.4-1.6
		c-1.7-1.1-3.3-2.9-4.8-5.5c-1.6-2.6-2.9-7.5-4.1-14.7c-1.2-7.2-1.8-12.2-1.8-15.1c0-2.8,0.1-5.2,0.2-7c0.1-1.9,0.3-4,0.5-6.3
		c0.2-2.4,0.4-3.9,0.4-4.6c0-0.7,0.1-1.7,0.2-3c0.1-1.3,0.2-2.6,0.3-3.7c0.1-1.2,0.3-2.9,0.7-5c0.3-2.2,0.7-3.9,1.1-5.1
		c0.4-1.2,1-2.7,1.8-4.3c0.8-1.6,1.7-2.8,2.7-3.7c2.5-2.1,5.3-3.1,8.5-3.1c3.2,0,4.9,1,4.9,3.1c0,1-0.4,1.8-1.1,2.4
		c-0.7,0.6-1.5,0.9-2.4,0.9l-2.2-0.3c-2.4,0-4.2,2.8-5.5,8.5c-1.2,5.5-1.9,10.4-2.1,14.8c-0.4,6.7-0.5,11.2-0.5,13.4s0,4,0,5.2
		c0,1.2,0.1,2.8,0.1,4.6c0.1,1.8,0.2,3.5,0.3,4.9c0.1,1.4,0.3,3,0.6,4.7s0.5,3.2,0.9,4.5c0.3,1.3,0.8,2.5,1.3,3.8
		c0.5,1.3,1.1,2.3,1.7,3.1c1.4,1.8,3.2,2.7,5.2,2.7c3.6,0,5.3-6.9,5.3-20.8v-4.5C342.6,82.8,341.8,82.6,340.6,82.6z"/>
</g>
<g>
</g>
<g>
</g>
<g>
</g>
<g>
</g>
<g>
</g>
<g>
</g>
<g>
</g>
<g>
</g>
<g>
</g>
<g>
</g>
<g>
</g>
<g>
</g>
<g>
</g>
<g>
</g>
<g>
</g>
</svg>
