<?xml version="1.0" encoding="utf-8"?>
<!-- Generator: Adobe Illustrator 18.1.1, SVG Export Plug-In . SVG Version: 6.00 Build 0)  -->
<svg version="1.1" id="Layer_1" xmlns="http://www.w3.org/2000/svg" xmlns:xlink="http://www.w3.org/1999/xlink" x="0px" y="0px"
	 viewBox="0 0 1195 571.9" style="enable-background:new 0 0 1195 571.9;" xml:space="preserve">
<style type="text/css">
	.st0{fill:none;}
	.st1{fill:#F07CB0;}
	.st2{fill:#F6AFC6;}
	.st3{fill:#EC1E82;}
	.st4{fill:#802956;}
	.st5{fill:#CB1B6C;}
	.st6{fill:#EE569E;}
	.st7{fill:#EF67A5;}
	.st8{fill:#801644;}
</style>
<g id="_x31_">
</g>
<g id="_x32_">
</g>
<g id="_x34_">
</g>
<g id="_x33_">
</g>
<g id="_x35_">
</g>
<g id="_x36_">
</g>
<g id="_x37_">
</g>
<g id="_x38_">
</g>
<g id="_x39_">
</g>
<g id="_x31_0">
</g>
<g id="_x31_1">
</g>
<g id="_x31_2">
</g>
<g id="_x31_3">
	<polygon class="st0" points="1046,179.8 1046,179.8 1058.6,183.6 1058.5,183.6 	"/>
	<polygon class="st0" points="1077,189.1 1077,189.2 1079.1,189.9 1079.2,189.9 1079.2,190 1081,190.6 1081,190.6 1081.1,190.6 
		1081.2,190.6 1079.3,189.9 	"/>
	<polygon class="st0" points="1066.9,99.1 1069,117.9 1076.6,189.1 1076.6,189.1 1069,117.9 	"/>
	<polygon class="st0" points="618,437.1 617.7,439.1 617.7,439.1 618.4,434.9 	"/>
	<polygon class="st0" points="587.5,262.8 587.5,262.8 587.5,262.8 589.2,342.3 589.4,342.3 618,439.1 618,439.1 589.4,342.3 	"/>
	<polygon class="st0" points="654.7,488.4 656.6,490.9 618.8,433.1 618.7,433.4 	"/>
	<polygon class="st0" points="1048.8,217.4 1048.8,217.4 1048.8,217.3 	"/>
	<polygon class="st0" points="912,193.2 917,169.3 917,169.3 	"/>
	<polygon class="st0" points="492,70.2 514.7,126.7 492,70.2 	"/>
	<polygon class="st0" points="580.9,288 578.7,282.4 580.9,288 	"/>
	<polygon class="st0" points="590,243 590,243 592.9,218.2 592.9,218.2 	"/>
	<polygon class="st0" points="589.6,246.9 590,243.1 590,243.1 	"/>
	<polygon class="st0" points="573.7,206.6 580.3,210.6 585.8,229.4 585.8,229.3 580.3,210.6 	"/>
	<polygon class="st0" points="321.5,273.4 320.4,271.1 320.6,271.6 321.5,273.4 	"/>
	<polygon class="st0" points="479.1,37.7 492,70 492,70 479.1,37.6 470.9,17.2 470.9,17.2 	"/>
	<polygon class="st0" points="578.7,282.4 578.7,282.1 578.6,282.1 574.6,292.4 574.6,292.5 574.6,292.4 574.6,292.4 574.6,292.5 
		574.6,292.6 578.7,282.4 	"/>
	<polygon class="st0" points="310.9,272.1 310.9,272.1 321.4,273.4 322.4,275.1 322.3,275 321.4,273.3 	"/>
	<polygon class="st0" points="574.6,292.4 564,319.2 560,329.4 560,329.4 564,319.2 574.6,292.4 	"/>
	<polygon class="st0" points="1047.8,202.7 1048.8,217.3 1048.8,217.2 1047.8,202.7 	"/>
	<polygon class="st0" points="558.4,281.9 565,281.9 571.5,281.9 571.5,281.9 564.9,281.9 558.3,281.9 553.3,275.4 553.3,275.4 
		558.3,281.9 558.2,282.3 558.3,282.4 558.3,282.2 564.9,281.9 558.4,281.9 	"/>
	<polygon class="st0" points="321.5,273.4 321.5,273.4 322.4,275.1 322.3,275 323.4,277.1 327,274 323.4,277.1 	"/>
	<polygon class="st0" points="553.2,275.3 553.2,275.4 556.8,232.1 	"/>
	<polygon class="st0" points="883.1,241.4 883.1,241.4 883.5,242.1 883.6,242.1 883.1,241.4 883.1,241.4 881.6,247.4 881.8,246.9 	
		"/>
	<polygon class="st0" points="812,182.8 812,182.9 822.7,186.2 822.8,186.2 	"/>
	<polygon class="st0" points="917,169 917,169 937.6,70.3 937.7,70.3 	"/>
	<polygon class="st0" points="143.1,98.2 230.7,12.1 230.7,12 	"/>
	<polygon class="st0" points="558.2,282.3 558.2,282.3 558.3,282.4 558.3,282.4 	"/>
	<polygon class="st0" points="553.3,275.3 556.9,232.2 556.8,232.1 553.2,275.4 553.3,275.4 553.3,275.4 	"/>
	<polygon class="st0" points="609.3,80.6 618.8,0.4 618.8,0.4 609.2,80.6 	"/>
	<polygon class="st0" points="692.7,537.4 688.8,571.9 718.7,308.1 	"/>
	<polygon class="st0" points="136.1,91.7 143.1,98.2 104.1,61.8 	"/>
	<rect x="589.8" y="243.1" transform="matrix(0.1182 -0.993 0.993 0.1182 278.7823 800.0609)" class="st0" width="0.2" height="0"/>
	<polygon class="st0" points="987.8,451.4 992.3,458.3 992.4,458.3 987.8,451.4 1026.4,204.8 1026.3,204.8 	"/>
	<polygon class="st0" points="958.7,445.4 963.9,446.5 987.8,451.4 	"/>
	<polygon class="st0" points="844.4,0.4 843.2,10.3 845.3,0.4 	"/>
	<polygon class="st0" points="965.1,138.9 979.2,211.8 965.1,138.9 	"/>
	<polygon class="st0" points="700.2,281.1 718.7,308.1 718.9,308.1 700.5,281.1 733.6,0.4 733.4,0.4 	"/>
	<polygon class="st0" points="88.9,62.7 0,149.1 11.6,137.8 	"/>
	<polygon class="st0" points="634.4,270.4 700.2,281.1 634.4,270.4 	"/>
	<polygon class="st0" points="521.4,124.4 521.4,124.4 523.8,123.5 524.8,123.2 	"/>
	<polygon class="st0" points="166.7,0.4 166.6,0.4 104,61.7 88.8,62.6 88.8,62.6 88.9,62.7 104.1,61.8 	"/>
	<polygon class="st0" points="863.4,164.2 863.3,163.9 859,184.5 846.8,193.7 846.9,193.7 859.1,184.5 	"/>
	<polygon class="st0" points="970,214 979.2,211.8 927.4,224.2 	"/>
	<polygon class="st0" points="472.5,251 472.4,251.8 490,90.3 489.9,90.2 	"/>
	<polygon class="st0" points="280.9,0.4 280.8,0.4 307.8,140.9 307.8,140.4 	"/>
	<rect x="916.7" y="169" class="st0" width="0" height="0.3"/>
	<polygon class="st0" points="955.6,89.8 955.6,89.8 955.6,89.8 955.6,89.8 	"/>
	<polygon class="st0" points="466.8,32.7 466.5,31.8 464.1,40.7 464.8,41.5 464.1,63.2 464.1,63.1 464.8,40.1 	"/>
	<polygon class="st0" points="307.8,142.7 300.4,155.4 300.5,155.4 307.8,142.9 	"/>
	<polygon class="st0" points="462.3,344.7 462.2,344.8 453.7,423.8 447.5,429.3 447.5,429.3 453.7,423.8 	"/>
	<polygon class="st0" points="388,0.4 387.8,0.4 379.6,262.2 364.4,278.6 364.5,278.7 379.8,262.2 	"/>
	<polygon class="st0" points="492.1,70 492.1,70 492.2,70.2 492.2,70.2 	"/>
	<polygon class="st0" points="1010.1,82.5 977.1,0.4 977,0.4 1010.1,82.7 	"/>
	<polygon class="st0" points="921.4,193.1 921.3,193.3 927.3,224.2 919.6,237.4 919.7,237.4 927.4,224.2 	"/>
	<polygon class="st0" points="1093.4,181.4 1081.2,190.6 1081.3,190.6 1093.5,181.4 1131.7,0.4 1131.6,0.4 	"/>
	<polygon class="st0" points="919.7,237.4 942.6,359.1 939.6,343.2 	"/>
	<polygon class="st0" points="1051.1,46.8 1058.4,0.4 1058.3,0.4 1051.1,46.7 	"/>
	<polygon class="st0" points="983.5,514.8 982.1,523.3 992.3,458.3 	"/>
	<polygon class="st0" points="982.4,178 989.4,214.7 994.1,185.1 	"/>
	<polygon class="st1" points="228.5,0.4 166.7,0.4 104.1,61.8 143.1,98.2 230.7,12 	"/>
	<polygon class="st2" points="88.8,62.4 82,54 65.7,34.1 65.6,34.1 82,54 88.8,62.4 88.9,62.6 88.8,62.6 104,61.7 166.6,0.4 
		93.1,0.4 54.7,38.1 65.6,34.1 65.6,34.2 65.6,34.1 	"/>
	<polygon class="st3" points="143.1,98.2 85.9,140.5 114.1,135 141.9,112.6 232.9,23.4 230.7,12.1 	"/>
	<polygon class="st4" points="85.9,140.5 15.3,153.4 112.9,140.2 141.9,112.6 114.1,135 	"/>
	<polygon class="st5" points="143.1,98.2 136.1,91.7 86.6,127.6 17.9,141.6 11.6,137.8 0,149.1 15.3,153.4 85.9,140.5 	"/>
	<polygon class="st6" points="17.9,141.6 86.6,127.6 136.1,91.7 104.1,61.8 88.9,62.7 11.6,137.8 	"/>
	<polygon class="st3" points="65.6,34.2 65.6,34.2 65.6,34.2 	"/>
	<polygon class="st3" points="65.7,34.2 65.6,34.2 1.1,147.1 1.3,146.8 0,149 88.8,62.6 88.8,62.6 	"/>
	<polygon class="st3" points="88.8,62.6 88.8,62.6 88.8,62.6 	"/>
	<polygon class="st3" points="65.7,34.2 88.8,62.6 88.8,62.6 88.9,62.6 88.8,62.4 88.8,62.4 65.6,34.1 65.6,34.2 65.6,34.2 	"/>
	<polygon class="st3" points="88.8,62.4 88.8,62.4 82,54 	"/>
	<polygon class="st3" points="65.7,34.1 82,54 65.6,34.1 	"/>
	<polygon class="st1" points="54.7,38.2 1.3,146.8 65.6,34.2 	"/>
	<polygon class="st1" points="65.6,34.2 65.6,34.2 65.6,34.2 1.3,146.8 1.1,147.1 	"/>
	<polygon class="st1" points="65.6,34.2 65.7,34.2 65.6,34.2 	"/>
	<polygon class="st3" points="312.3,0.4 280.9,0.4 307.8,140.4 	"/>
	<polygon class="st6" points="230.7,12 230.7,12.1 242.6,0.4 242.6,0.4 	"/>
	<polygon class="st6" points="300.4,155.4 307.8,142.7 307.8,140.9 280.8,0.4 256.4,0.4 232.9,23.4 261.1,170.3 263.8,159 
		263.9,159 263.9,159 	"/>
	<polygon class="st6" points="242.6,0.4 228.5,0.4 230.7,12 	"/>
	<polygon class="st6" points="242.6,0.4 230.7,12.1 232.9,23.4 256.4,0.4 	"/>
	<polygon class="st1" points="300.5,155.4 306.4,186.6 307.8,142.9 	"/>
	<polygon class="st5" points="264.3,159 304.7,239.3 306.4,186.6 300.5,155.4 300.4,155.4 300.4,155.4 263.9,159 304.7,239.9 
		304.7,239.3 	"/>
	<polygon class="st5" points="264.6,159 305,239.3 305,239.3 	"/>
	<polygon class="st5" points="300.4,155.4 263.9,159 263.9,159 300.4,155.4 	"/>
	<polygon class="st4" points="304.7,240.2 263.9,159.4 263.9,159.4 261.2,170.5 304.5,244.6 304.6,244.5 	"/>
	<polygon class="st4" points="263.9,159 263.9,159 263.9,159 	"/>
	<polygon class="st6" points="490,90.3 472.4,251.8 471.6,277.7 468.9,336.4 462.3,344.7 453.7,423.8 478.1,425.3 483.3,425.6 
		513.5,148.3 510.2,140.4 	"/>
	<polygon class="st3" points="458.2,261.2 464.1,63.1 464.1,63.2 	"/>
	<polygon class="st3" points="478.4,61.5 472.5,251 489.9,90.2 	"/>
	<polygon class="st3" points="447.5,429.3 453.7,423.8 462.2,344.8 428.9,386.7 424.2,430.7 427.4,425.4 427.5,425.4 427.5,425.4 	
		"/>
	<polygon class="st3" points="470.9,17.2 470.9,17.2 470.6,16.3 470.6,16.3 	"/>
	<polygon class="st2" points="483.3,425.6 474,462.2 484.1,450.5 488,432 517.7,158.4 513.5,148.3 	"/>
	<polygon class="st2" points="515.9,126.3 521.4,124.4 521.4,124.4 	"/>
	<polygon class="st4" points="474,462.2 448.5,491.3 485.5,453 488,432 484.1,450.5 	"/>
	<polygon class="st7" points="483.3,425.6 478.1,425.3 469.7,456.7 445.4,485.6 441.4,486.1 440.4,494.7 448.5,491.3 474,462.2 	"/>
	<polygon class="st1" points="447.5,429.3 441.4,486.1 445.4,485.6 469.7,456.7 478.1,425.3 453.7,423.8 	"/>
	<polygon class="st5" points="447.5,429.3 447.5,429.3 447.5,429.3 427.5,425.4 440.4,494.7 441.4,486.1 	"/>
	<polygon class="st5" points="447.5,429.3 427.5,425.4 427.5,425.4 447.5,429.3 	"/>
	<polygon class="st5" points="441.4,486.1 440.4,494.7 441.4,486.1 	"/>
	<polygon class="st5" points="441.4,486.1 441.4,486.1 447.5,429.3 	"/>
	<polygon class="st4" points="427.5,425.4 424.2,430.7 440.2,493.5 427.5,425.4 	"/>
	<polygon class="st4" points="427.5,425.4 427.5,425.4 427.5,425.4 	"/>
	<polygon class="st3" points="464.8,41.5 464.1,40.7 463.7,42 428.4,0.4 388,0.4 379.8,262.2 442.6,261.4 464.1,63.2 	"/>
	<polygon class="st3" points="442.6,261.4 444.2,261.4 458.2,261.2 464.1,63.2 	"/>
	<polygon class="st7" points="334.9,0.4 360,129.8 335,0.4 	"/>
	<polygon class="st7" points="320.4,271.1 320.1,270.6 320.4,271.1 320.6,271.6 	"/>
	<polygon class="st7" points="387.8,0.4 344.8,0.4 371.4,138.8 378.4,178.1 335.5,266.8 327,274 364.4,278.6 379.6,262.2 	"/>
	<polygon class="st7" points="308.2,142.2 307.8,140.4 307.8,140.9 308.1,142.2 307.8,142.7 307.8,142.9 	"/>
	<polygon class="st7" points="321.4,273.3 304.6,244.5 304.6,244.6 304.5,244.6 303.2,287.3 310.7,272 310.9,272.1 310.9,272 	"/>
	<polygon class="st7" points="304.6,244.5 304.6,244.5 304.5,244.6 304.6,244.6 	"/>
	<polygon class="st7" points="308.2,142.2 350.8,132 360,129.8 334.9,0.4 312.3,0.4 307.8,140.4 	"/>
	<polygon class="st7" points="307.8,140.9 307.8,142.7 308.1,142.2 	"/>
	<polygon class="st7" points="360,129.8 363.7,200.8 374.7,174.2 371.4,138.8 344.8,0.4 335,0.4 	"/>
	<polygon class="st7" points="363.7,200.8 335.5,266.8 378.4,178.1 371.4,138.8 374.7,174.2 	"/>
	<polygon class="st7" points="360,129.8 350.8,132 353.4,193.1 327.1,258.1 320.4,261.2 322.7,273.5 327,274 335.5,266.8 
		363.7,200.8 	"/>
	<polygon class="st7" points="350.8,132 350.8,132 360,129.8 	"/>
	<polygon class="st7" points="327.1,258.1 353.4,193.1 350.8,132 308.2,142.2 307.8,142.9 306.4,186.6 320.4,261.2 	"/>
	<polygon class="st7" points="308.2,142.2 350.8,132 350.8,132 	"/>
	<polygon class="st7" points="304.7,239.3 304.7,239.9 320.1,270.6 305,239.9 	"/>
	<polygon class="st7" points="322.7,273.5 320.4,261.2 306.4,186.6 304.7,239.3 305,239.9 320.4,271.1 321.5,273.3 	"/>
	<polygon class="st7" points="304.7,239.3 305,239.9 305,239.9 304.7,239.3 	"/>
	<polygon class="st7" points="305,239.9 305,239.9 320.1,270.6 320.4,271.1 	"/>
	<polygon class="st7" points="320.4,261.2 322.7,273.5 320.4,261.2 	"/>
	<polygon class="st7" points="320.4,261.2 306.4,186.6 320.4,261.2 	"/>
	<polygon class="st7" points="320.6,271.6 321.5,273.3 321.5,273.3 	"/>
	<polygon class="st7" points="304.6,244.5 321.4,273.3 321.5,273.3 320.4,271.1 304.7,239.9 304.7,240.2 304.7,240.2 	"/>
	<polygon class="st7" points="304.6,244.5 304.7,240.2 304.7,240.2 304.6,244.5 	"/>
	<polygon class="st7" points="321.5,273.4 320.6,271.6 320.4,271.1 321.5,273.4 	"/>
	<polygon class="st1" points="464.8,40.1 464.1,63.1 467.3,34 466.8,32.7 	"/>
	<polygon class="st1" points="472.4,251.8 472.5,251 463.7,331.3 463.8,331.2 	"/>
	<polygon class="st1" points="464.9,329.7 471.6,277.7 472.4,251.8 463.8,331.2 	"/>
	<polygon class="st1" points="478.4,61.5 467.3,34 464.1,63.1 458.2,261.2 440.6,364.2 463.7,331.3 472.5,251 	"/>
	<polygon class="st4" points="463.8,331.2 463.7,331.3 462.2,344.8 462.3,344.7 	"/>
	<polygon class="st4" points="378.7,449.9 428.9,386.7 429.8,379.2 	"/>
	<polygon class="st4" points="463.8,331.2 462.3,344.7 468.9,336.4 471.6,277.7 464.9,329.7 	"/>
	<polygon class="st4" points="463.7,331.3 440.6,364.2 429.8,379.2 428.9,386.7 462.2,344.8 	"/>
	<polygon class="st5" points="440.1,284.2 428.2,350 369.5,434.7 358.9,437 358.9,437 358.1,460.8 378.7,449.9 429.8,379.2 	"/>
	<polygon class="st5" points="444.2,261.4 440.1,284.2 429.8,379.2 440.6,364.2 458.2,261.2 	"/>
	<polygon class="st6" points="379.8,262.2 364.5,278.7 358.9,437 369.5,434.7 428.2,350 440.1,284.2 442.6,261.4 	"/>
	<polygon class="st6" points="442.6,261.4 440.1,284.2 444.2,261.4 	"/>
	<polygon class="st5" points="358.9,437 364.5,278.7 364.4,278.6 364.4,278.7 327,274 323.4,277.1 322.3,275 322.3,275 322.4,275.1 
		321.4,273.4 310.9,272.1 317.3,297.6 358,460.8 358,460.8 358.1,460.8 	"/>
	<polygon class="st5" points="358.9,437 358.9,437 358.1,460.8 358.1,460.8 358.9,437 	"/>
	<polygon class="st5" points="358.9,437 358.9,437 364.5,278.7 	"/>
	<polygon class="st5" points="323.4,277.1 327,274 322.7,273.5 	"/>
	<polygon class="st5" points="323.4,277.1 322.7,273.5 321.5,273.4 	"/>
	<polygon class="st5" points="321.5,273.4 321.5,273.4 321.5,273.4 321.5,273.4 321.5,273.4 321.4,273.3 322.3,275 321.5,273.4 
		321.5,273.4 322.3,275 322.4,275.1 	"/>
	<polygon class="st5" points="321.5,273.4 321.5,273.4 321.5,273.4 321.5,273.4 	"/>
	<polygon class="st5" points="321.5,273.4 322.3,275 322.3,275 321.5,273.4 	"/>
	<polygon class="st5" points="321.4,273.3 310.9,272 310.9,272.1 321.4,273.3 	"/>
	<polygon class="st5" points="327,274 364.4,278.7 364.4,278.6 327,274 	"/>
	<polygon class="st5" points="321.5,273.3 321.5,273.4 321.5,273.4 321.5,273.3 	"/>
	<polygon class="st5" points="322.7,273.5 322.7,273.5 327,274 327,274 	"/>
	<polygon class="st5" points="321.5,273.4 322.7,273.5 322.7,273.5 321.5,273.3 	"/>
	<polygon class="st5" points="321.5,273.4 321.5,273.3 321.5,273.3 321.5,273.4 	"/>
	<polygon class="st5" points="321.5,273.4 321.5,273.3 321.4,273.3 321.4,273.3 	"/>
	<polygon class="st5" points="321.5,273.4 321.5,273.3 321.5,273.3 321.5,273.4 	"/>
	<polygon class="st4" points="310.9,272.4 310.9,272.2 310.9,272.1 303.4,287.4 357.3,457.6 317.3,297.7 310.9,272.4 	"/>
	<polygon class="st4" points="310.9,272.4 317.3,297.9 310.9,272.4 	"/>
	<polygon class="st4" points="310.9,272 310.9,272.1 310.9,272.1 	"/>
	<polygon class="st8" points="469.5,13.6 464.2,0.4 464.2,0.4 469.5,13.6 	"/>
	<polygon class="st8" points="466.5,31.8 453.8,0.4 429.9,0.4 464.1,40.7 	"/>
	<polygon class="st8" points="470.6,16.3 469.5,13.6 469.5,13.6 470.6,16.3 	"/>
	<polygon class="st8" points="463.7,42 464.1,40.7 429.9,0.4 428.4,0.4 	"/>
	<polygon class="st6" points="544,188.4 531.3,180.7 523.8,271.5 529,272.2 553.2,275.3 556.8,232.1 	"/>
	<polygon class="st6" points="551.8,113.7 551.8,113.7 551.9,113.6 	"/>
	<polygon class="st3" points="556.9,232.2 553.3,275.4 558.3,281.9 564.9,281.9 566.7,265.9 	"/>
	<polygon class="st3" points="553.3,275.3 553.3,275.4 556.9,232.2 	"/>
	<polygon class="st3" points="598,0.4 576.9,0.4 593.2,40.8 	"/>
	<polygon class="st2" points="526,309.2 523.8,271.5 531.3,180.7 526.3,177.6 518,276.9 518.3,295.8 	"/>
	<polygon class="st4" points="518.3,295.8 518,276.9 516.5,298 545.5,342.6 526,309.2 	"/>
	<polygon class="st7" points="531.2,304.7 529,272.2 523.8,271.5 526,309.2 545.5,342.6 552.8,347.5 553.5,338.9 549.6,337.6 	"/>
	<polygon class="st1" points="553.3,275.4 553.3,275.6 558.2,282.3 558.3,281.9 	"/>
	<polygon class="st1" points="553.2,275.4 553.2,275.3 529,272.2 531.2,304.7 549.6,337.6 553.5,338.9 558.2,282.3 553.2,275.6 	"/>
	<polygon class="st1" points="553.3,275.6 553.3,275.4 553.2,275.4 553.2,275.6 558.2,282.3 558.2,282.3 	"/>
	<polygon class="st5" points="560,329.4 560,329.4 560,329.4 560,329.4 564.7,284 564.9,282.4 564.9,282.4 558.3,282.4 558.3,282.4 
		558.3,282.4 553.5,339.1 552.8,347.6 553.5,345.8 553.3,346.3 	"/>
	<polygon class="st5" points="565,282.4 565,281.9 558.4,281.9 558.4,282.2 564.9,282.4 564.9,282.4 	"/>
	<polygon class="st5" points="564.9,281.9 564.9,281.9 564.9,281.9 	"/>
	<polygon class="st4" points="553.5,345.8 559.6,333 559.9,329.5 	"/>
	<polygon class="st4" points="559.9,329.4 553.3,346.3 553.5,345.8 559.9,329.5 	"/>
	<polygon class="st6" points="567,109.9 567,109.8 567,109.8 567,109.9 	"/>
	<polygon class="st6" points="607.7,266.1 628.6,269.5 628.6,269.5 596.1,264.2 	"/>
	<polygon class="st6" points="537.6,40.7 537.7,40.4 532.1,26.5 532.1,26.8 	"/>
	<polygon class="st6" points="527.9,16.4 527.9,16.1 521.6,0.4 521.4,0.4 	"/>
	<polygon class="st6" points="532.1,26.5 527.9,16.1 527.9,16.4 532.1,26.8 	"/>
	<polygon class="st6" points="565.1,109 567,109.9 567,109.8 565.2,108.9 542.1,51.4 542,51.6 	"/>
	<polygon class="st6" points="578.7,115.9 578.8,115.9 567,109.8 567,109.9 	"/>
	<polygon class="st6" points="542.1,51.4 537.7,40.4 537.6,40.7 542,51.6 	"/>
	<polygon class="st3" points="559.6,198 556.8,232.1 556.9,232.2 559.7,198 	"/>
	<polygon class="st3" points="544,188.4 556.8,232.1 559.6,198 	"/>
	<polygon class="st3" points="536.4,119.1 551.8,113.7 551.8,113.7 	"/>
	<polygon class="st3" points="573.7,206.6 559.7,198 556.9,232.2 566.7,265.9 	"/>
	<polygon class="st2" points="599.1,165.8 599.1,165.8 599.1,165.8 	"/>
	<rect x="631.5" y="267" class="st2" width="0" height="5.9"/>
	<polygon class="st6" points="521.4,124.4 524.8,123.2 522.4,115.1 	"/>
	<polygon class="st6" points="496.8,27.8 496.7,27.6 492.1,70 492.2,70.2 	"/>
	<polygon class="st6" points="536,60 536.1,59.8 530.5,40.9 530.5,41.1 	"/>
	<polygon class="st6" points="518.6,101.9 496.8,27.8 492.2,70.2 514.9,126.7 515.9,126.3 	"/>
	<polygon class="st6" points="518.6,0.4 518.5,0.4 526.6,27.9 526.6,27.7 	"/>
	<polygon class="st6" points="470.9,17.2 475.4,0.4 474.9,0.4 470.6,16.3 	"/>
	<polygon class="st6" points="492.1,70 496.7,27.6 488.7,0.4 480.3,0.4 479.1,37.6 	"/>
	<polygon class="st6" points="530.5,40.9 526.6,27.7 526.6,27.9 530.5,41.1 	"/>
	<polygon class="st6" points="522.4,115.1 518.6,101.9 515.9,126.3 521.4,124.4 	"/>
	<polygon class="st6" points="479.1,37.6 480.3,0.4 475.4,0.4 470.9,17.2 	"/>
	<polygon class="st6" points="471,0.4 464.2,0.4 469.5,13.6 	"/>
	<polygon class="st6" points="469.5,13.6 470.6,16.3 474.9,0.4 471,0.4 	"/>
	<polygon class="st6" points="551.8,113.7 551.9,113.6 540.2,73.9 540.2,74.1 	"/>
	<polygon class="st6" points="540.2,73.9 536.1,59.8 536,60 540.2,74.1 	"/>
	<polygon class="st6" points="537.6,40.7 532.1,26.8 530.5,40.9 536.1,59.8 	"/>
	<polygon class="st6" points="526.6,27.7 527.9,16.4 521.4,0.4 518.6,0.4 	"/>
	<polygon class="st6" points="530.5,40.9 532.1,26.8 527.9,16.4 526.6,27.7 	"/>
	<polygon class="st6" points="565.1,109 542,51.6 540.2,73.9 551.9,113.6 	"/>
	<polygon class="st6" points="540.2,73.9 542,51.6 537.6,40.7 536.1,59.8 	"/>
	<polygon class="st6" points="530.5,41.1 522.4,115.1 524.8,123.2 531,121 536,60 	"/>
	<polygon class="st6" points="496.8,27.8 499.8,0.4 499.7,0.4 496.7,27.6 	"/>
	<polygon class="st6" points="526.6,27.9 518.5,0.4 499.8,0.4 496.8,27.8 518.6,101.9 	"/>
	<polygon class="st6" points="499.7,0.4 488.7,0.4 496.7,27.6 	"/>
	<polygon class="st6" points="530.5,41.1 526.6,27.9 518.6,101.9 522.4,115.1 	"/>
	<polygon class="st6" points="540.2,74.1 536.4,119.1 551.8,113.7 	"/>
	<polygon class="st6" points="536,60 531,121 536.4,119.1 540.2,74.1 	"/>
	<polygon class="st3" points="606.8,101.5 609.3,80.6 609.2,80.6 606.7,101.5 	"/>
	<polygon class="st3" points="571.5,56.4 576.1,0.4 576,0.4 571.4,56.2 	"/>
	<polygon class="st3" points="576,0.4 555,0.4 571.4,56.2 	"/>
	<polygon class="st3" points="571.5,56.4 585.7,104.8 593.2,40.8 576.9,0.4 576.1,0.4 	"/>
	<polygon class="st3" points="567,109.8 570.3,71 570.2,70.8 567,109.8 	"/>
	<polygon class="st3" points="541,0.4 534.9,0.4 532.1,26.5 537.7,40.4 	"/>
	<polygon class="st3" points="529.6,0.4 521.6,0.4 527.9,16.1 	"/>
	<polygon class="st3" points="532.1,26.5 534.9,0.4 529.6,0.4 527.9,16.1 	"/>
	<polygon class="st3" points="565.2,108.9 567,109.8 570.2,70.8 549.5,0.4 546.3,0.4 542.1,51.4 	"/>
	<polygon class="st3" points="582.8,113.8 570.3,71 567,109.8 578.8,115.9 	"/>
	<polygon class="st3" points="542.1,51.4 546.3,0.4 541,0.4 537.7,40.4 	"/>
	<polygon class="st3" points="571.5,56.4 571.4,56.2 570.2,70.8 570.3,71 	"/>
	<polygon class="st3" points="570.2,70.8 571.4,56.2 555,0.4 549.5,0.4 	"/>
	<polygon class="st3" points="582.8,113.8 584.8,112.8 585.7,104.8 571.5,56.4 570.3,71 	"/>
	<polygon class="st2" points="492.1,70.3 492.2,70.5 492.2,70.2 492.1,70 	"/>
	<polygon class="st2" points="489.9,90.2 490,90.3 492.2,70.5 492.1,70.4 	"/>
	<polygon class="st2" points="492.1,70.4 492.2,70.5 492.2,70.5 492.1,70.3 	"/>
	<polygon class="st2" points="467.9,28.7 468.3,25 466.5,31.8 466.8,32.7 	"/>
	<polygon class="st2" points="520.2,136 518.1,155.5 526.6,172 526.7,172 528.5,150.5 	"/>
	<polygon class="st2" points="514.9,126.7 492.2,70.2 492.2,70.5 514.7,126.7 492.2,70.5 490,90.3 510.2,140.4 513.6,147.1 
		515.7,128.2 	"/>
	<polygon class="st2" points="514.6,126.7 492,70.5 492,70.5 	"/>
	<polygon class="st2" points="470.9,17.3 470.9,17.2 470.9,17.2 470.9,17.3 470.9,17.2 470.6,16.3 468.3,25 467.9,28.7 	"/>
	<polygon class="st2" points="470.9,17.2 470.9,17.2 470.9,17.3 470.9,17.3 	"/>
	<polygon class="st2" points="492.1,70.4 492,70.2 492,70.2 492.1,70.3 492.1,70 479.1,37.7 479.1,37.9 492,70 492,70 479.1,37.9 
		478.4,61.5 489.9,90.2 	"/>
	<polygon class="st2" points="492,70.2 492.1,70.4 492.1,70.3 492,70.2 	"/>
	<polygon class="st2" points="492,70 492,70 479,37.9 479,37.9 	"/>
	<polygon class="st2" points="515.7,128.2 513.6,147.1 518.1,155.5 520.2,136 	"/>
	<polygon class="st2" points="466.8,32.7 467.3,34 467.9,28.7 	"/>
	<polygon class="st2" points="470.9,17.3 479,37.6 479.1,37.9 479.1,37.7 470.9,17.2 	"/>
	<polygon class="st2" points="479,37.7 470.9,17.3 467.9,28.7 467.3,34 478.4,61.5 479.1,37.9 	"/>
	<polygon class="st2" points="479,37.7 479.1,37.9 479.1,37.9 479,37.6 	"/>
	<polygon class="st2" points="470.9,17.3 470.9,17.3 479,37.7 479,37.6 	"/>
	<polygon class="st2" points="468.3,25 469.5,13.6 464.2,0.4 453.8,0.4 466.5,31.8 	"/>
	<polygon class="st2" points="469.5,13.6 468.3,25 470.6,16.3 	"/>
	<polygon class="st2" points="537.4,165.9 533.2,158.6 531.8,175.5 542.4,182.9 	"/>
	<polygon class="st2" points="528.5,150.5 526.7,172 531.8,175.5 533.2,158.6 	"/>
	<polygon class="st2" points="537.4,165.9 542.4,182.9 550.2,188.3 	"/>
	<polygon class="st4" points="526.6,172 518.1,155.5 517.7,158.4 525.6,177.2 526.3,177.6 526.7,172 	"/>
	<polygon class="st4" points="513.5,148.3 513.6,147.1 510.2,140.4 	"/>
	<polygon class="st4" points="513.6,147.1 513.5,148.3 517.7,158.4 518.1,155.5 	"/>
	<polygon class="st4" points="542.4,182.9 531.8,175.5 531.3,180.7 544,188.4 	"/>
	<polygon class="st4" points="531.8,175.5 526.7,172 526.3,177.6 531.3,180.7 	"/>
	<rect x="592.4" y="217.7" transform="matrix(0.1184 -0.993 0.993 0.1184 306.5577 780.6577)" class="st4" width="1" height="0"/>
	<polygon class="st4" points="559.9,194.8 559.6,198 559.7,198 560,194.9 	"/>
	<polygon class="st4" points="559.9,194.8 550.2,188.3 542.4,182.9 544,188.4 559.6,198 	"/>
	<polygon class="st4" points="560,194.9 559.7,198 573.7,206.6 574,204.4 	"/>
	<polygon class="st7" points="526,127.2 523.8,123.5 521.4,124.4 520.2,136 528.5,150.5 529.5,139 	"/>
	<polygon class="st7" points="514.9,126.7 515.7,128.2 515.9,126.3 	"/>
	<polygon class="st7" points="515.9,126.3 515.7,128.2 520.2,136 521.4,124.4 	"/>
	<polygon class="st7" points="533.2,158.6 537.4,165.9 533.6,153.1 	"/>
	<polygon class="st7" points="574.3,190 575.3,193.5 575.3,193.3 574.3,190.1 	"/>
	<polygon class="st7" points="529.5,139 528.5,150.5 533.2,158.6 533.6,153.1 	"/>
	<rect x="593.7" y="204.2" class="st7" width="0" height="13"/>
	<polygon class="st7" points="574.3,190.1 575.3,193.3 575.6,190.9 	"/>
	<polygon class="st7" points="526,127.2 529.5,139 529.9,133.9 	"/>
	<polygon class="st7" points="561.1,180.8 561.1,180.7 559.9,194.8 560,194.9 	"/>
	<polygon class="st7" points="559.9,194.8 561.1,180.7 554.8,176.3 534.6,141.8 533.6,153.1 537.4,165.9 550.2,188.3 	"/>
	<polygon class="st7" points="574.3,190 561.1,180.8 560,194.9 574,204.4 575.3,193.5 	"/>
	<polygon class="st7" points="529.5,139 533.6,153.1 534.6,141.8 529.9,133.9 	"/>
	<polygon class="st1" points="563.4,152.8 563.4,153 563.4,153.2 563.4,153 	"/>
	<polygon class="st1" points="523.8,123.5 526,127.2 524.8,123.2 	"/>
	<polygon class="st1" points="551.9,113.6 551.8,113.7 563.4,153 563.4,152.8 	"/>
	<polygon class="st1" points="574.3,190.1 563.4,153 563.4,153.2 574.3,190 	"/>
	<polygon class="st1" points="563.4,153 567,109.9 567,109.9 563.4,152.8 	"/>
	<polygon class="st1" points="594.5,204.3 594.5,204.3 598.8,168.2 598.8,168.2 	"/>
	<polygon class="st1" points="563.4,152.8 567,109.9 565.1,109 551.9,113.6 	"/>
	<polygon class="st1" points="574.3,190.1 575.6,190.9 583.1,126.7 578.7,115.9 567,109.9 563.4,153 	"/>
	<polygon class="st1" points="531,121 524.8,123.2 526,127.2 529.9,133.9 	"/>
	<polygon class="st1" points="563.4,153.2 563.4,153 561.1,180.7 561.1,180.8 	"/>
	<polygon class="st1" points="551.8,113.7 536.4,119.1 534.6,141.8 554.8,176.3 561.1,180.7 563.4,153 	"/>
	<polygon class="st1" points="563.4,153.2 561.1,180.8 574.3,190 	"/>
	<polygon class="st1" points="531,121 529.9,133.9 534.6,141.8 536.4,119.1 	"/>
	<polygon class="st1" points="598.8,168.2 599.1,165.8 599.1,165.8 598.8,168.2 	"/>
	<polygon class="st5" points="600.4,154.8 600.4,154.8 606.8,101.5 606.7,101.5 	"/>
	<polygon class="st5" points="584.1,118.2 582.8,113.8 578.8,115.9 578.8,115.9 578.7,115.9 583.1,126.7 	"/>
	<polygon class="st5" points="599.1,165.8 599.1,165.8 600.4,154.8 600.4,154.8 	"/>
	<polygon class="st5" points="584.8,112.8 582.8,113.8 584.1,118.2 	"/>
	<polygon class="st5" points="606.8,101.5 606.8,101.5 606.7,101.5 606.7,101.5 	"/>
	<polygon class="st5" points="578.8,115.9 582.8,113.8 582.8,113.8 578.8,115.9 	"/>
	<polygon class="st5" points="584.8,112.8 584.8,112.8 582.8,113.8 582.8,113.8 	"/>
	<polygon class="st6" points="615.4,205.8 619.4,215.7 625.5,230.6 615.4,205.8 	"/>
	<polygon class="st6" points="619.9,107.1 611.5,99.1 611.4,99.1 619.8,107.1 625.3,228.4 611.4,99.1 625.5,230.6 622.6,230.3 
		634.4,270.4 700.2,281.1 733.4,0.4 618.8,0.4 609.3,80.6 	"/>
	<polygon class="st6" points="589.9,243 589.9,243.1 590,243.5 590,243.4 	"/>
	<polygon class="st6" points="590,243.4 590,243.5 596,264.2 596.1,264.2 596.1,264.2 596.1,264.2 	"/>
	<rect x="589.9" y="243.5" transform="matrix(0.1183 -0.993 0.993 0.1183 278.4702 800.5082)" class="st6" width="0.2" height="0"/>
	<polygon class="st6" points="609.8,228.5 592.9,218.3 590,243 590,243 592.9,218.2 592.8,218.2 589.9,243 590,243.4 590,243.1 
		590,243.1 590,243.4 596.1,264.2 628.6,269.5 616.8,229.5 	"/>
	<polygon class="st6" points="590,243 590,243 592.9,218.3 592.9,218.2 	"/>
	<rect x="590" y="243.1" class="st6" width="0" height="0.2"/>
	<polygon class="st6" points="596.3,264.2 590.1,243.5 587.7,262.8 590,243.5 589.9,243.1 589.4,246.9 587.8,262.8 588,262.8 
		588,262.8 	"/>
	<polygon class="st6" points="587.7,262.8 590,243.5 590,243.5 	"/>
	
		<rect x="585.7" y="185.8" transform="matrix(-0.3775 -0.926 0.926 -0.3775 664.3929 818.223)" class="st6" width="43.1" height="0"/>
	<polygon class="st6" points="628.6,269.5 634.4,270.4 622.6,230.3 616.8,229.5 	"/>
	<polygon class="st6" points="611.4,99.1 611.4,99.1 611.5,99.1 619.9,107.1 609.3,80.6 606.8,101.5 	"/>
	<polygon class="st6" points="592.8,218.2 592.9,218.2 592.9,218.2 592.9,218.2 592.9,218.3 609.8,228.5 593,217.2 	"/>
	<polygon class="st6" points="592.9,218.2 592.9,218.2 592.9,218.3 592.9,218.2 	"/>
	<polygon class="st6" points="618.3,215.8 622.6,230.3 625.5,230.6 619.4,215.7 	"/>
	<polygon class="st6" points="594.5,204.3 593,217.2 609.8,228.5 616.8,229.5 613,216.6 612.1,216.7 	"/>
	<polygon class="st6" points="613,216.6 616.8,229.5 622.6,230.3 618.3,215.8 	"/>
	<polygon class="st6" points="619.4,215.7 615.4,205.8 618.3,215.8 	"/>
	<polygon class="st6" points="594.5,204.3 612.1,216.7 613,216.6 598.8,168.2 	"/>
	<polygon class="st6" points="598.8,168.2 613,216.6 618.3,215.8 615.4,205.8 599.1,165.8 	"/>
	<polygon class="st6" points="600.4,154.8 615.4,205.8 625.5,230.6 611.4,99.1 606.8,101.5 	"/>
	<polygon class="st6" points="615.4,205.8 600.4,154.8 599.1,165.8 	"/>
	<polygon class="st6" points="606.8,101.5 606.8,101.5 611.4,99.1 611.4,99.1 	"/>
	<polygon class="st6" points="625.3,228.4 619.8,107.1 611.4,99.1 611.4,99.1 	"/>
	<polygon class="st6" points="611.4,99.1 611.4,99.1 611.4,99.1 	"/>
	<polygon class="st3" points="815.9,243 815.9,243 811.8,182.9 	"/>
	<polygon class="st3" points="811.8,182.9 811.7,182.8 804.8,192.2 843.2,10.3 844.4,0.4 733.6,0.4 700.5,281.1 718.9,308.1 
		797.4,310.1 797.4,310.2 797.7,310.2 805.2,333.9 813.8,260.5 804.9,192.2 	"/>
	<polygon class="st2" points="609.2,80.6 618.8,0.4 604.8,0.4 600,57.7 	"/>
	<polygon class="st2" points="585.8,229.1 585.8,229.3 589.9,243.1 589.9,243 	"/>
	<polygon class="st2" points="574.6,292.4 574.6,292.5 574.6,292.5 574.6,292.4 	"/>
	<polygon class="st2" points="589.2,342.4 576.1,297.9 576.1,297.8 563.9,323.8 563.2,360 590.8,415 589.2,342.3 589.2,342.3 	"/>
	<polygon class="st2" points="600,57.7 604.8,0.4 598,0.4 593.2,40.8 	"/>
	<polygon class="st2" points="564.9,281.9 571.5,281.9 566.7,265.9 	"/>
	<polygon class="st2" points="580.4,210.6 580.3,210.6 585.8,229.3 585.8,229.1 	"/>
	<polygon class="st2" points="565,282.4 564.9,282.4 565,283.7 565,283.8 564.1,319.2 574.6,292.4 571.5,282.2 	"/>
	<polygon class="st2" points="564.6,283.7 564.9,281.9 564.9,281.9 564.6,283.7 564.6,283.8 	"/>
	<rect x="564.9" y="281.9" class="st2" width="0.2" height="0"/>
	<polygon class="st2" points="564.9,281.9 564.9,281.9 564.9,281.9 	"/>
	<rect x="565" y="281.9" class="st2" width="6.4" height="0"/>
	<rect x="568.2" y="278.7" class="st2" width="0" height="6.4"/>
	<polygon class="st2" points="574.6,292.7 574.6,292.6 574.6,292.5 564,319.2 564,319.4 563.9,323.8 576.1,297.8 	"/>
	<polygon class="st2" points="574.6,292.5 574.6,292.4 564,319.2 564,319.4 564,319.2 	"/>
	<polygon class="st2" points="564,319.2 564,319.2 574.6,292.5 574.6,292.5 	"/>
	<polygon class="st2" points="587,214.7 585.8,229.1 589.9,243 592.8,218.2 	"/>
	<polygon class="st2" points="595.6,157.3 595.6,157.3 592.4,149.5 	"/>
	<polygon class="st2" points="580.4,210.6 585.8,229.1 587,214.7 	"/>
	<polygon class="st2" points="589.4,246.7 589.9,243 585.8,229.2 585.8,229.4 585.8,229.4 580.9,288 578.8,282.4 578.7,282.4 
		580.9,288 580.9,288 580.9,288 576.2,297.9 589.2,342.3 587.5,262.6 587.5,262.4 587.5,262.4 	"/>
	<polygon class="st2" points="587.5,262.4 587.5,262.4 589.4,246.5 	"/>
	<polygon class="st2" points="576.1,297.9 589.2,342.4 589.2,342.3 576.2,297.9 	"/>
	<rect x="571.1" y="287.3" transform="matrix(0.3673 -0.9301 0.9301 0.3673 97.592 718.0316)" class="st2" width="11" height="0"/>
	<polygon class="st2" points="578.7,282.4 578.7,282.4 578.6,282.4 578.7,282.3 578.7,282.4 578.8,282.4 580.9,288 585.8,229.4 
		580.3,210.6 573.7,206.6 566.7,265.9 571.5,281.9 578.7,282.1 	"/>
	<polygon class="st2" points="585.8,229.4 585.8,229.4 580.9,288 	"/>
	<polygon class="st2" points="578.6,282.1 578.6,282.1 578.7,281.9 	"/>
	<polygon class="st2" points="571.6,282.4 571.6,282.4 571.6,282.4 571.5,282.4 574.6,292.7 578.6,282.5 	"/>
	<rect x="571.5" y="281.9" class="st2" width="0.1" height="0"/>
	<polygon class="st2" points="571.6,281.9 578.6,282.1 578.7,281.9 	"/>
	<polygon class="st2" points="571.6,281.9 571.6,281.9 571.6,281.9 	"/>
	<polygon class="st2" points="571.5,281.9 571.5,281.9 571.5,281.9 	"/>
	<polygon class="st2" points="571.6,281.9 571.6,281.9 571.5,281.9 571.5,281.9 571.5,281.9 	"/>
	<polygon class="st2" points="571.5,282.4 571.6,282.2 571.6,282 578.7,282 578.7,282.2 571.5,282.4 571.5,282.4 	"/>
	<polygon class="st2" points="571.5,281.9 571.6,281.9 571.5,281.9 	"/>
	<polygon class="st2" points="576.2,297.9 580.9,288 578.7,282.4 578.7,282.4 574.6,292.6 576.1,297.8 	"/>
	<polygon class="st2" points="576.1,297.8 576.1,297.8 576.1,297.9 576.2,297.9 	"/>
	<polygon class="st2" points="574.6,292.6 574.6,292.7 576.1,297.8 576.1,297.8 	"/>
	<polygon class="st2" points="576.2,297.9 580.9,288 580.9,288 576.2,297.9 	"/>
	<polygon class="st2" points="576.2,297.9 576.1,297.9 576.2,297.9 	"/>
	<polygon class="st2" points="578.7,281.9 578.7,281.9 578.7,281.9 	"/>
	<polygon class="st2" points="595.6,157.3 599.1,165.8 595.6,157.3 	"/>
	<polygon class="st2" points="606.7,101.5 609.2,80.6 600,57.7 595.9,107.1 	"/>
	<polygon class="st2" points="595.9,107.1 600,57.7 593.2,40.8 585.7,104.8 587.6,111.3 	"/>
	<polygon class="st2" points="587.6,111.3 585.7,104.8 584.8,112.8 	"/>
	<polygon class="st2" points="579.6,208.1 580.3,210.6 580.4,210.6 579.7,208.2 	"/>
	<polygon class="st2" points="587,214.7 592.8,218.2 593,217.2 587.1,213.2 	"/>
	<polygon class="st2" points="587.1,213.2 579.7,208.2 580.4,210.6 587,214.7 	"/>
	<polygon class="st2" points="579.6,208.1 574,204.4 573.7,206.6 580.3,210.6 	"/>
	<polygon class="st2" points="575.3,193.3 575.3,193.5 579.6,208.1 579.7,208.2 	"/>
	<polygon class="st2" points="588.2,199.9 587.1,213.2 593,217.2 594.5,204.3 	"/>
	<polygon class="st2" points="575.6,190.9 575.3,193.3 579.7,208.2 587.1,213.2 588.2,199.9 	"/>
	<polygon class="st2" points="574,204.4 579.6,208.1 575.3,193.5 	"/>
	<polygon class="st2" points="588.2,199.9 594.5,204.3 598.8,168.2 595.6,157.3 592.4,149.5 	"/>
	<polygon class="st2" points="592.4,149.5 583.1,126.7 575.6,190.9 588.2,199.9 	"/>
	<polygon class="st2" points="598.8,168.2 599.1,165.8 595.6,157.3 	"/>
	<polygon class="st2" points="600.4,154.8 606.7,101.5 595.9,107.1 593.8,132.5 	"/>
	<polygon class="st2" points="595.9,107.1 587.6,111.3 593.8,132.5 	"/>
	<polygon class="st2" points="595.6,157.3 592.6,147.1 592.4,149.5 	"/>
	<polygon class="st2" points="592.6,147.1 584.1,118.2 583.1,126.7 592.4,149.5 	"/>
	<polygon class="st2" points="592.6,147.1 595.6,157.3 599.1,165.8 600.4,154.8 593.8,132.5 	"/>
	<polygon class="st2" points="592.6,147.1 593.8,132.5 587.6,111.3 584.8,112.8 584.1,118.2 	"/>
	<polygon class="st2" points="606.7,101.5 606.7,101.5 595.9,107.1 595.9,107.1 	"/>
	<polygon class="st2" points="595.9,107.1 595.9,107.1 587.6,111.3 587.6,111.3 	"/>
	<polygon class="st2" points="587.6,111.3 587.6,111.3 584.8,112.8 584.8,112.8 	"/>
	<polygon class="st4" points="563.2,360 563.9,323.8 559.6,333 555.9,368.8 661.3,551.7 590.8,415 	"/>
	<polygon class="st4" points="564,319.2 564,319.4 564,319.4 564,319.2 	"/>
	<polygon class="st4" points="564.6,283.8 559.9,329.4 564,319.2 	"/>
	<polygon class="st4" points="565,283.7 560.1,329.4 560.2,329.4 565,283.8 	"/>
	<polygon class="st4" points="564,319.4 560,329.4 560,329.4 564,319.4 564,319.2 559.9,329.4 559.9,329.5 559.9,329.5 559.6,333 
		563.9,323.8 	"/>
	<polygon class="st4" points="559.9,329.5 559.9,329.5 559.9,329.4 559.9,329.4 	"/>
	<polygon class="st4" points="560,329.4 560,329.4 564,319.4 564,319.4 	"/>
	<polygon class="st7" points="655.7,486.7 657.2,491.9 655.7,486.7 	"/>
	<polygon class="st7" points="596.1,264.2 608.9,307.9 608.9,307.8 596.1,264.2 	"/>
	<polygon class="st7" points="677.9,531.9 657.9,491.2 657.2,491.9 618.8,433.1 618.8,433.1 656.6,490.9 654.7,488.4 656.6,491.3 
		617.7,439.3 617.7,439.1 617.7,439.1 618,437.1 617.8,439.1 618,439.1 618,439.1 589.4,342.3 590.8,415 661.4,551.7 688.8,571.9 
		692.7,537.4 	"/>
	<polygon class="st7" points="608.9,307.8 607.7,266.1 596.1,264.2 	"/>
	<polygon class="st7" points="619,432.9 619,432.9 628.5,430.9 611.8,397.1 609,308.1 596.1,264.2 587.5,262.8 589.2,342.3 
		617.6,439.1 618.8,432.9 	"/>
	<polygon class="st7" points="618.7,433.4 618,437.4 618.4,435.1 618.7,433.4 618.7,433.4 618.7,433.4 618.8,433.3 618.7,433.4 	"/>
	<rect x="596" y="264.2" class="st7" width="0" height="0"/>
	<polygon class="st7" points="588,262.8 588,262.8 596.3,264.2 596.4,264.2 	"/>
	<polygon class="st7" points="596.1,264.2 596,264.2 608.9,308.1 608.9,307.9 	"/>
	<polygon class="st7" points="618.6,432.9 617.6,439.1 617.6,439.1 618,437.1 618.7,432.9 	"/>
	<polygon class="st7" points="618.8,433.1 618.8,433.1 618.7,432.9 	"/>
	<polygon class="st7" points="657.2,491.9 657.9,491.2 655.7,486.7 	"/>
	<polygon class="st7" points="628.3,431 619,432.9 619,432.9 618.8,432.9 618.8,433.1 657.2,491.9 655.7,486.7 	"/>
	<polygon class="st7" points="619,432.9 619,432.9 628.3,431 628.3,430.9 618.7,432.9 618.8,433.1 618.8,432.9 	"/>
	<rect x="623.5" y="427" class="st7" width="0" height="9.8"/>
	<polygon class="st7" points="618.4,434.9 617.7,439.1 654.7,488.4 618.7,433.4 	"/>
	<polygon class="st7" points="617.7,439.3 656.6,491.3 654.7,488.4 617.7,439.1 	"/>
	<polygon class="st7" points="618.7,433.4 618.7,433.4 618.4,434.9 618.7,433.4 	"/>
	<polygon class="st7" points="618.7,432.9 618.7,432.9 618.7,432.9 	"/>
	<polygon class="st1" points="609,308.1 609,308.2 642.2,421.4 638.6,428.8 638.7,428.8 642.3,421.3 608.9,307.8 608.9,307.9 	"/>
	<polygon class="st1" points="609,308.1 608.9,307.9 608.9,308.1 609,308.2 	"/>
	<polygon class="st1" points="655.7,486.7 655.7,486.7 654.8,483.7 638.7,428.8 	"/>
	<polygon class="st1" points="634.4,270.4 677.1,415.7 682.8,436.1 663.4,485.7 657.9,491.2 677.9,531.9 692.7,537.4 718.7,308.1 
		700.2,281.1 	"/>
	<polygon class="st1" points="607.7,266.1 608.9,307.8 642.3,421.3 665.3,413.4 670.4,411.7 628.6,269.5 	"/>
	<polygon class="st1" points="609,308.2 611.8,397.1 628.5,430.9 638.6,428.8 642.2,421.4 	"/>
	<polygon class="st1" points="611.8,397.1 609,308.2 608.9,308.1 611.7,397.1 628.3,430.9 628.5,430.9 	"/>
	<polygon class="st1" points="670.4,411.7 675.8,449 680.6,434.3 677.1,415.7 634.4,270.4 628.6,269.5 	"/>
	<polygon class="st1" points="675.8,449 663.4,485.7 682.8,436.1 677.1,415.7 680.6,434.3 	"/>
	<polygon class="st1" points="675.8,449 670.4,411.7 665.3,413.4 669.7,445.6 658.4,481.6 654.8,483.7 655.7,486.7 657.9,491.2 
		663.4,485.7 	"/>
	<polygon class="st1" points="665.3,413.4 670.4,411.7 665.3,413.4 	"/>
	<polygon class="st1" points="638.7,428.8 654.8,483.7 658.4,481.6 669.7,445.6 665.3,413.4 642.3,421.3 	"/>
	<polygon class="st1" points="642.3,421.3 665.3,413.4 665.3,413.4 	"/>
	<polygon class="st1" points="638.6,428.8 638.6,428.8 628.5,430.9 628.5,430.9 628.3,431 655.7,486.7 638.7,428.8 	"/>
	<polygon class="st1" points="628.5,430.9 628.3,430.9 628.3,431 628.5,430.9 	"/>
	<polygon class="st1" points="628.5,430.9 638.6,428.8 638.6,428.8 628.5,430.9 	"/>
	
		<rect x="628.3" y="430.9" transform="matrix(0.9796 -0.2012 0.2012 0.9796 -73.8405 135.2166)" class="st1" width="0.2" height="0"/>
	<polygon class="st5" points="718.9,308.1 718.7,308.1 688.8,571.9 797.4,310.2 719,308.2 	"/>
	<polygon class="st5" points="718.9,308.1 719,308.2 797.4,310.2 797.4,310.1 	"/>
	<polygon class="st4" points="797.4,310.4 690.6,567.5 805,334 797.4,310.4 	"/>
	<polygon class="st4" points="797.4,310.2 797.4,310.2 797.4,310.1 	"/>
	<polygon class="st6" points="859.1,184.5 867.5,185.9 863.4,164.2 	"/>
	<polygon class="st6" points="891.3,37.2 900.6,28.3 900.6,28.2 891.2,37.2 916.7,169.3 916.8,169 	"/>
	<polygon class="st5" points="863.3,163.9 840.3,44.2 839.8,44.7 840.2,43.6 839.8,41.4 841.4,39.8 854.3,0.4 845.3,0.4 843.2,10.3 
		822.6,186.1 822.8,186.2 822.7,186.2 822.6,186.2 822.6,186.2 846.8,193.7 859,184.5 	"/>
	<polygon class="st5" points="822.6,186.2 822.6,186.2 812,182.9 812,182.8 822.6,186.1 843.2,10.3 804.8,192.2 811.7,182.8 
		811.8,182.9 811.8,182.8 	"/>
	
		<rect x="888.9" y="255.3" transform="matrix(-0.4495 -0.8933 0.8933 -0.4495 1062.5396 1165.4492)" class="st2" width="2.9" height="0"/>
	<polygon class="st2" points="916.9,170.1 921.3,193.3 921.4,193.1 916.9,169.8 	"/>
	<polygon class="st2" points="916.9,170.1 916.9,169.8 916.8,169 916.7,169.3 	"/>
	<polygon class="st4" points="835.9,310 887.6,264.5 885.9,261.7 	"/>
	
		<rect x="890" y="258.3" transform="matrix(-0.4495 -0.8933 0.8933 -0.4495 1062.0505 1171.0685)" class="st4" width="3.7" height="0"/>
	
		<rect x="879.9" y="248" transform="matrix(-0.4495 -0.8933 0.8933 -0.4495 1063.744 1151.4825)" class="st7" width="13.6" height="0"/>
	<polygon class="st7" points="880.4,252.3 881.6,247.2 881.3,248.1 880.3,252.3 879.9,250.1 831.5,298.8 824.2,299 820.8,314.8 
		835.9,310 885.9,261.7 	"/>
	<polygon class="st1" points="859.1,184.5 846.9,193.7 824.2,299 831.5,298.8 879.9,250.1 867.5,185.9 	"/>
	<polygon class="st1" points="883,241 881.3,248.1 881.6,247.2 883.1,241 	"/>
	<polygon class="st1" points="883.1,241 883.6,241.9 883.6,241.9 	"/>
	<polygon class="st8" points="846.9,193.7 846.8,193.7 846.8,193.7 822.6,186.2 815.9,243 820.8,314.8 824.2,299 	"/>
	<polygon class="st8" points="811.8,182.9 815.9,243 822.6,186.2 	"/>
	<polygon class="st8" points="822.6,186.2 846.8,193.7 846.8,193.7 822.6,186.2 	"/>
	<polygon class="st8" points="822.7,186.2 822.8,186.2 822.6,186.1 822.6,186.2 	"/>
	<polygon class="st8" points="812,182.9 822.6,186.2 822.6,186.1 812,182.8 	"/>
	<polygon class="st4" points="820.6,312.6 815.9,243 813.8,260.5 	"/>
	<polygon class="st4" points="811.8,182.9 804.9,192.2 813.8,260.5 815.9,243 811.8,182.9 	"/>
	<polygon class="st4" points="811.8,182.9 811.8,182.9 811.8,182.8 	"/>
	<polygon class="st6" points="943.9,86.3 921.4,193.1 927.4,224.2 979.2,211.8 965.1,138.9 	"/>
	<polygon class="st6" points="947.5,69.6 947.5,69.6 955.6,89.8 955.6,89.8 	"/>
	<polygon class="st6" points="900.6,28.3 891.3,37.2 916.8,169 937.4,70.3 929.2,49.8 	"/>
	<polygon class="st6" points="917.2,168.1 917,169 917,169 917.2,168.1 937.5,70.5 937.5,70.3 916.8,169 916.9,169.8 917,169.3 
		917,169.3 916.9,169.8 921.4,193.1 943.9,86.3 937.6,70.6 	"/>
	<polygon class="st6" points="917,169 917.2,168.1 917,169 	"/>
	<polygon class="st6" points="937.6,70.6 937.5,70.5 917.2,168.1 	"/>
	<polygon class="st6" points="944,60.9 944,60.9 947.5,69.6 947.5,69.6 	"/>
	<polygon class="st3" points="888.9,42.5 863.3,163.9 863.4,164.2 889.2,41.9 	"/>
	<polygon class="st3" points="867.5,185.9 902.3,191.7 911.7,193.2 	"/>
	<polygon class="st3" points="921.3,193.3 918.7,205.9 911.4,238.2 919.6,237.4 927.3,224.2 	"/>
	
		<rect x="916.7" y="170" transform="matrix(-0.205 0.9788 -0.9788 -0.205 1271.2269 -692.5723)" class="st3" width="0.3" height="0"/>
	<rect x="917" y="169.3" class="st3" width="0" height="0.6"/>
	<polygon class="st3" points="916.7,169.3 891.2,37.2 890.7,37.7 889.2,41.9 863.4,164.2 867.5,185.9 911.7,193.2 	"/>
	<polygon class="st3" points="887.4,46.7 862.3,22.7 840.3,44.2 863.3,163.9 888.9,42.5 	"/>
	<polygon class="st3" points="839.8,41.4 840.2,43.6 841.4,39.8 	"/>
	<polygon class="st3" points="912,193.2 916.9,170.1 916.7,169.3 911.7,193.2 894.9,239.8 908.4,238.5 918.7,205.9 921.3,193.3 
		916.9,170.1 	"/>
	<polygon class="st3" points="912.2,193.2 917,170.1 917,170.1 	"/>
	<polygon class="st3" points="911.4,238.2 918.7,205.9 908.4,238.5 	"/>
	<polygon class="st3" points="879.9,250.1 880.3,252.3 881.3,248.1 881,249 	"/>
	<polygon class="st3" points="902.3,191.7 884,240.9 894.9,239.8 911.7,193.2 	"/>
	<polygon class="st3" points="883.1,241 883.1,241 884,240.9 902.3,191.7 867.5,185.9 879.9,250.1 881,249 881.3,248.1 883,241 	"/>
	<polygon class="st2" points="955.6,89.8 970.4,126.7 955.6,89.8 	"/>
	<polygon class="st2" points="982.4,178 981.1,177.2 965.7,140.4 965.1,138.9 979.2,211.8 981.9,262.9 989.4,214.7 	"/>
	<polygon class="st4" points="954.7,348.8 975,306.8 976.4,298 	"/>
	<polygon class="st7" points="981.9,262.9 979.2,211.8 970,214 972.6,275.2 946.3,340.2 939.6,343.2 942.6,359.1 954.7,348.8 
		976.4,298 	"/>
	<polygon class="st8" points="919.7,237.4 939.6,343.2 946.3,340.2 972.6,275.2 970,214 927.4,224.2 	"/>
	<polygon class="st5" points="919.6,237.4 919.6,237.4 911.4,238.2 909.9,244.8 892.7,260 942.6,359.1 919.7,237.4 	"/>
	<polygon class="st5" points="889.7,254.1 891,256.6 908,239.8 908.4,238.5 894.9,239.8 	"/>
	<polygon class="st5" points="911.4,238.2 908.4,238.5 908,239.8 891,256.6 892.7,260 909.9,244.8 	"/>
	<polygon class="st5" points="883.6,241.9 889.7,254.1 894.9,239.8 884,240.9 	"/>
	<polygon class="st5" points="884,240.9 883.1,241 883.6,241.9 	"/>
	<polygon class="st5" points="911.4,238.2 919.6,237.4 919.6,237.4 911.4,238.2 	"/>
	<polygon class="st5" points="894.9,239.8 894.9,239.8 908.4,238.5 908.4,238.5 	"/>
	<polygon class="st5" points="908.4,238.5 908.4,238.5 911.4,238.2 911.4,238.2 	"/>
	<polygon class="st5" points="884,240.9 894.9,239.8 894.9,239.8 884,240.9 	"/>
	<polygon class="st5" points="884,240.9 883.1,241 883.1,241 884,240.9 	"/>
	<polygon class="st4" points="941.6,357.1 892.7,260 887.6,264.5 	"/>
	<polygon class="st4" points="887.6,260 891,256.6 889.7,254.1 	"/>
	<polygon class="st4" points="887.6,260 885.9,261.7 887.6,264.5 892.7,260 891,256.6 	"/>
	<polygon class="st4" points="883.6,241.9 883.5,242.1 883.6,242.2 881.6,247.4 881.8,246.8 881.6,247.2 880.4,252.3 885.9,261.7 
		887.6,260 889.7,254.1 	"/>
	<polygon class="st4" points="883.1,241.4 881.8,246.8 883.5,242.1 883.1,241.4 	"/>
	<polygon class="st4" points="881.6,247.4 883.6,242.2 883.5,242.1 881.8,246.8 	"/>
	<polygon class="st4" points="883.1,241 883.1,241 883.1,241 	"/>
	<polygon class="st4" points="839.8,44.7 840.3,44.2 840.2,43.6 	"/>
	<polygon class="st4" points="863.2,20.3 870.8,0.4 854.3,0.4 841.4,39.8 862.2,19.4 	"/>
	<polygon class="st4" points="863.2,20.3 862.2,19.4 841.4,39.8 840.2,43.6 840.3,44.2 862.3,22.7 	"/>
	<polygon class="st5" points="897.9,0 897.8,0.4 897.9,0.4 897.9,0.3 	"/>
	<polygon class="st5" points="890.6,34.7 890.7,34.3 890.7,34.5 897.9,0.4 897.8,0.4 	"/>
	<polygon class="st5" points="897.9,0.4 897.9,0.4 890.7,34.5 891.2,37.2 900.6,28.2 	"/>
	<polygon class="st5" points="897.9,0.4 897.9,0.4 897.9,0.3 	"/>
	<polygon class="st5" points="890.6,34.7 897.8,0.4 895.7,0.4 891,5.4 888.8,0.4 870.8,0.4 863.2,20.3 887.3,43.3 	"/>
	<polygon class="st5" points="894.1,0.4 891.4,0.4 892.3,2.3 	"/>
	<polygon class="st5" points="895.7,0.4 894.1,0.4 892.3,2.3 891.4,0.4 888.8,0.4 891,5.4 	"/>
	<polygon class="st5" points="890.7,34.3 890.6,34.7 888.9,42.5 889.2,41.9 890.7,34.5 	"/>
	<polygon class="st5" points="889.2,41.9 890.7,37.7 891.2,37.2 890.7,34.5 	"/>
	<polygon class="st5" points="887.3,43.3 863.2,20.3 862.3,22.7 887.4,46.7 888.9,42.5 890.6,34.7 	"/>
	<polygon class="st8" points="941,53.4 941,53.4 941,53.4 941,53.4 	"/>
	<polygon class="st8" points="928.6,48.4 909.3,0.4 897.9,0.4 900.6,28.2 900.6,28.3 901.2,27.7 	"/>
	<polygon class="st8" points="931.6,30 941,53.4 941,53.4 931.6,30 	"/>
	<polygon class="st8" points="941,53.4 943.4,59.5 943.4,59.5 941,53.4 	"/>
	<polygon class="st8" points="929.6,25.1 922,6.1 922,6.1 929.6,25 	"/>
	<polygon class="st8" points="931.6,30 931.6,30 929.6,25.1 929.6,25 	"/>
	<polygon class="st8" points="928.6,48.4 901.2,27.7 900.6,28.3 929.2,49.8 	"/>
	<polygon class="st8" points="943.4,59.5 943.4,59.5 944,60.9 944,60.9 	"/>
	<polygon class="st6" points="922,6.1 919.7,0.4 919.7,0.4 922,6.1 	"/>
	<polygon class="st6" points="952.1,25.5 952.2,24.5 951.8,25.4 951.7,26.4 	"/>
	<polygon class="st6" points="952.6,23.5 952.8,24.2 960.6,7.5 954.8,34.8 972.4,126 979.4,123.5 1005.1,114.4 1010.1,82.7 977,0.4 
		958,0.4 959.6,8.7 	"/>
	<polygon class="st6" points="950.2,64.6 950.8,65.1 955.6,89.8 955.6,89.8 950.6,64.1 951.1,52.5 950.6,54.7 	"/>
	<polygon class="st6" points="960.6,7.5 952.8,24.2 954.8,34.8 	"/>
	<polygon class="st6" points="950.6,54.7 951.1,52.5 952.1,25.5 951.7,26.4 	"/>
	<polygon class="st6" points="951.9,23.1 951.8,25.4 952.2,24.5 952.3,21.7 952.6,23.5 959.6,8.7 953.2,0.4 936.6,0.4 	"/>
	<polygon class="st6" points="959.6,8.7 958,0.4 953.2,0.4 	"/>
	<polygon class="st6" points="950.2,64.6 950.2,65.6 948.6,64.4 947.5,69.6 955.6,89.8 950.8,65.1 	"/>
	<polygon class="st6" points="944,60.9 947.5,69.6 948.6,64.4 	"/>
	<polygon class="st6" points="952.1,25.5 952.8,24.2 952.6,23.5 952.2,24.5 	"/>
	<polygon class="st6" points="950.6,64.1 955.6,89.8 970.4,126.7 972.4,126 954.8,34.8 951.1,52.5 	"/>
	<polygon class="st6" points="951.1,52.5 954.8,34.8 952.8,24.2 952.1,25.5 	"/>
	<polygon class="st6" points="952.2,24.5 952.6,23.5 952.3,21.7 	"/>
	<polygon class="st6" points="950.2,64.6 950.6,54.7 948.7,63.5 	"/>
	<polygon class="st6" points="942.3,46.9 941,53.4 941,53.4 942.5,46 951.7,26.4 951.8,25.4 942,46.3 	"/>
	<polygon class="st6" points="931.6,30 941,53.4 942.3,46.9 942,46.3 941.6,47.2 	"/>
	<polygon class="st6" points="950.6,54.7 951.7,26.4 942.5,46 941,53.4 943.4,59.5 948.7,63.5 	"/>
	<polygon class="st6" points="929.6,25.1 942,46.3 951.8,25.4 951.9,23.1 922,6.1 	"/>
	<polygon class="st6" points="941.6,47.2 942,46.3 929.6,25.1 931.6,30 	"/>
	<polygon class="st6" points="948.6,64.4 950.2,65.6 950.2,64.6 948.7,63.5 	"/>
	<polygon class="st6" points="948.7,63.5 943.4,59.5 944,60.9 948.6,64.4 	"/>
	<polygon class="st6" points="951.9,23.1 936.6,0.4 919.7,0.4 922,6.1 	"/>
	<polygon class="st3" points="1051.1,46.8 1051.1,46.7 1040.8,112.5 1040.9,112.5 	"/>
	<polygon class="st3" points="1023,0.4 977.1,0.4 1010.1,82.5 	"/>
	<polygon class="st2" points="955.6,89.8 965.1,138.9 965.1,138.9 955.6,89.8 	"/>
	<polygon class="st2" points="973.6,132.2 980.7,169.1 982.2,172 994.8,180.7 996.2,171.6 	"/>
	<polygon class="st2" points="947.5,69.6 943.9,86.3 965.1,138.9 955.6,89.8 	"/>
	<polygon class="st2" points="937.4,70.3 937.5,70.3 940,57.9 940,57.9 	"/>
	<polygon class="st2" points="937.4,70.3 940,57.9 929.2,49.8 	"/>
	<polygon class="st2" points="944,60.9 940,57.9 937.5,70.3 937.5,70.5 937.6,70.3 937.7,70.3 937.6,70.6 943.9,86.3 947.5,69.6 	
		"/>
	<polygon class="st2" points="937.7,70.3 937.6,70.3 937.5,70.5 937.6,70.6 	"/>
	<polygon class="st2" points="973.6,132.2 970.4,126.7 955.6,89.8 965.1,138.9 965.7,140.4 980.7,169.1 	"/>
	<polygon class="st2" points="941,53.4 940.2,57.1 940.2,57.1 941,53.4 	"/>
	<polygon class="st2" points="931.6,30 915.5,2.4 912.1,0.4 909.3,0.4 928.6,48.4 940.2,57.1 941,53.4 	"/>
	<polygon class="st2" points="940.2,57.1 943.4,59.5 941,53.4 	"/>
	<polygon class="st2" points="922,6.1 916.9,3.1 929.6,25 	"/>
	<polygon class="st2" points="929.6,25 916.9,3.1 915.5,2.4 931.6,30 	"/>
	<polygon class="st2" points="940.2,57.1 940,57.9 940,57.9 940.2,57.1 	"/>
	<polygon class="st2" points="929.2,49.8 940,57.9 940.2,57.1 928.6,48.4 	"/>
	<polygon class="st2" points="940.2,57.1 940,57.9 944,60.9 943.4,59.5 	"/>
	<polygon class="st2" points="914.4,0.4 912.1,0.4 915.5,2.4 	"/>
	<polygon class="st2" points="922,6.1 919.7,0.4 915.3,0.4 916.9,3.1 	"/>
	<polygon class="st2" points="915.5,2.4 916.9,3.1 915.3,0.4 914.4,0.4 	"/>
	<polygon class="st4" points="1026.7,202.5 1026.3,204.8 1026.4,204.8 1026.8,202.5 	"/>
	<polygon class="st4" points="994.8,180.7 982.2,172 980.7,169.1 982.4,178 994.1,185.1 	"/>
	<polygon class="st4" points="965.7,140.4 981.1,177.2 982.4,178 980.7,169.1 	"/>
	<polygon class="st7" points="1026.7,202.5 1026.8,202.5 1028.8,189.4 1028.8,189.3 	"/>
	<polygon class="st7" points="996.2,171.6 998.6,156.3 979.4,123.5 972.4,126 973.6,132.2 	"/>
	<polygon class="st7" points="979.4,123.5 972.4,126 979.4,123.5 	"/>
	<polygon class="st7" points="973.6,132.2 972.4,126 970.4,126.7 	"/>
	<polygon class="st1" points="998.6,156.3 1005.1,114.4 979.4,123.5 	"/>
	<polygon class="st1" points="1005.1,114.4 979.4,123.5 979.4,123.5 	"/>
	<polygon class="st1" points="1038.6,126.5 1028.8,189.3 1028.8,189.4 1038.6,126.7 	"/>
	<polygon class="st5" points="1040.9,112.5 1040.8,112.6 1038.6,126.5 1038.6,126.7 	"/>
	<polygon class="st5" points="1040.9,112.5 1040.9,112.5 1040.8,112.5 1040.8,112.6 	"/>
	<polygon class="st5" points="1038.6,126.5 1038.6,126.7 1038.6,126.7 	"/>
	<polygon class="st6" points="1026.3,204.8 999,188.1 992.3,230.5 997.6,260.1 982.9,290.4 958.7,445.4 987.8,451.4 	"/>
	<polygon class="st6" points="1058.3,0.4 1032.5,0.4 1051.1,46.7 	"/>
	<polygon class="st6" points="1020.7,109 1034.3,115.9 1034.4,115.9 1020.8,108.9 1014,92.1 1013.9,92.3 	"/>
	<polygon class="st6" points="991.8,233.8 984.9,278 993.9,256.2 	"/>
	<polygon class="st6" points="992.3,230.5 991.8,233.8 993.9,256.2 984.9,278 982.9,290.4 997.6,260.1 	"/>
	<polygon class="st6" points="1013.9,92.3 1010.8,112.4 1020.7,109 	"/>
	<polygon class="st6" points="1034.4,115.9 1040.8,112.5 1051.1,46.7 1032.5,0.4 1028.3,0.4 1014,92.1 1020.8,108.9 	"/>
	<polygon class="st6" points="1005.8,188.3 1000.4,179 999.6,184 	"/>
	<polygon class="st6" points="999.6,184 999,188.1 1026.3,204.8 1026.7,202.5 1005.8,188.3 	"/>
	<polygon class="st6" points="1010.3,176.3 1002.8,163.5 1000.4,179 1005.8,188.3 1026.7,202.5 1028.8,189.3 	"/>
	<polygon class="st6" points="1020.7,109 1010.8,112.4 1002.8,163.5 1010.3,176.3 1028.8,189.3 1038.6,126.5 1034.3,115.9 	"/>
	<polygon class="st6" points="1034.4,115.9 1034.4,115.9 1034.3,115.9 1038.6,126.5 1040.8,112.6 	"/>
	<polygon class="st6" points="1040.8,112.6 1040.8,112.5 1034.4,115.9 1034.4,115.9 	"/>
	<polygon class="st5" points="1063,76.3 1079.1,0.4 1058.4,0.4 1051.1,46.8 	"/>
	<polygon class="st5" points="1026.4,204.8 987.8,451.4 992.4,458.3 1012.5,459.7 1012.7,459.4 1012.7,459.4 1014.4,465.4 
		1014.4,465.5 1014.5,465.7 1047.7,253.5 1042.7,214.7 	"/>
	<polygon class="st5" points="1057.2,104.1 1063,76.3 1051.1,46.8 1040.9,112.5 	"/>
	<polygon class="st5" points="1026.4,204.8 1042.7,214.7 1042.5,213.1 1026.8,202.5 	"/>
	<polygon class="st5" points="1048.8,217.4 1048.8,217.4 1048.8,218.5 1048.8,218.5 1048.8,217.4 	"/>
	<polygon class="st5" points="1028.8,189.4 1026.8,202.5 1042.5,213.1 1040.4,197.5 	"/>
	<polygon class="st5" points="1048.8,217.2 1048.8,217.3 1048.8,217.4 1048.8,217.4 1048.8,217.3 	"/>
	<polygon class="st5" points="1048.8,217.4 1048.8,217.4 1048.8,217.4 	"/>
	<rect x="1047" y="179.8" class="st5" width="0" height="22.9"/>
	<polygon class="st5" points="1046.2,179.8 1046.2,179.8 1046.2,179.8 	"/>
	<polygon class="st5" points="1046.1,179.8 1046.2,179.8 1046.2,179.8 1046.1,179.7 	"/>
	<polygon class="st5" points="1046.2,179.8 1046.1,179.8 1039.2,189.1 1047.7,148.9 1038.6,126.7 1028.8,189.4 1040.4,197.5 
		1039.3,189.1 	"/>
	<polygon class="st5" points="1040.9,112.5 1038.6,126.7 1047.7,148.9 1057.2,104.1 	"/>
	<polygon class="st5" points="1057.2,104.1 1040.9,112.5 1040.9,112.5 1057.2,104.1 	"/>
	<rect x="1043.2" y="125.8" class="st5" width="0" height="24"/>
	<polygon class="st2" points="958.1,483.2 958.7,445.4 982.9,290.4 975,306.8 952.5,450.3 951.5,469.2 	"/>
	<polygon class="st2" points="989.4,214.7 990.6,220.8 992.3,230.5 999,188.1 994.1,185.1 	"/>
	<polygon class="st2" points="1014,92.1 1010.1,82.5 1010.1,82.7 1013.9,92.3 	"/>
	<polygon class="st2" points="990.6,220.8 989.4,214.7 981.9,262.9 982.9,282.8 984.9,278 991.8,233.8 	"/>
	<polygon class="st2" points="991.8,233.8 992.3,230.5 990.6,220.8 	"/>
	<polygon class="st2" points="984.9,278 982.9,282.8 976.4,298 975,306.8 982.9,290.4 	"/>
	<polygon class="st2" points="976.4,298 982.9,282.8 981.9,262.9 	"/>
	<polygon class="st2" points="1013.9,92.3 1010.1,82.7 1005.1,114.4 1010.8,112.4 	"/>
	<polygon class="st2" points="1014,92.1 1028.3,0.4 1023,0.4 1010.1,82.5 	"/>
	<polygon class="st2" points="994.8,180.7 999.6,184 1000.4,179 996.2,171.6 	"/>
	<polygon class="st2" points="994.8,180.7 994.1,185.1 999,188.1 999.6,184 	"/>
	<polygon class="st2" points="996.2,171.6 1000.4,179 1002.8,163.5 998.6,156.3 	"/>
	<polygon class="st2" points="1002.8,163.5 1010.8,112.4 1005.1,114.4 998.6,156.3 	"/>
	<polygon class="st4" points="951.5,469.2 952.5,450.3 949.5,471.3 975.2,517.9 958.1,483.2 	"/>
	<polygon class="st7" points="979.7,513.2 963.7,479 963.9,446.5 958.7,445.4 958.1,483.2 975.2,517.9 982.1,523.3 983.5,514.8 	"/>
	<polygon class="st1" points="963.9,446.5 963.7,479 979.7,513.2 983.5,514.8 992.3,458.3 987.8,451.4 	"/>
	<polygon class="st5" points="1012.5,459.7 992.4,458.3 992.4,458.3 992.3,458.3 982.1,523.3 983.2,521 982.6,522 	"/>
	<polygon class="st5" points="1012.5,459.7 1012.5,459.7 992.4,458.3 992.4,458.3 	"/>
	<polygon class="st4" points="1012.7,459.4 1012.7,459.4 983.2,520.8 1014.4,465.4 1012.8,459.5 	"/>
	<polygon class="st4" points="1012.7,459.4 1012.7,459.4 1012.5,459.7 1012.7,459.7 1012.7,459.7 1012.8,459.8 1014.4,465.5 
		1014.4,465.4 	"/>
	<polygon class="st4" points="1012.5,459.7 982.6,522 983.2,521 1012.7,459.7 	"/>
	<rect x="1012.5" y="459.7" class="st4" width="0.2" height="0"/>
	<polygon class="st4" points="1012.7,459.7 1012.7,459.7 1012.7,459.7 	"/>
	<polygon class="st5" points="1150.6,0.4 1131.7,0.4 1093.5,181.4 1136.7,188.6 1146.1,190.1 1176.8,43.8 1176.4,43.2 1176,44.1 	
		"/>
	<polygon class="st3" points="1072,98.5 1075.5,107.1 1071.3,103.1 1071.2,103.2 1075.3,107.1 1079.1,189.9 1081.2,190.6 
		1093.4,181.4 1131.6,0.4 1127.2,0.4 1125.4,2.3 1124.6,0.4 1087.3,0.4 	"/>
	<polygon class="st3" points="1075.5,107.1 1072,98.5 1071.3,103.1 	"/>
	<polygon class="st3" points="1058.7,183.6 1062.3,184.7 1059.5,177.9 	"/>
	<polygon class="st3" points="1059.5,177.9 1062.3,184.7 1076.6,189.1 1069,117.9 	"/>
	
		<rect x="1057.3" y="181.3" transform="matrix(-0.3775 -0.926 0.926 -0.3775 1293.4747 1232.2389)" class="st3" width="7.3" height="0"/>
	<polygon class="st3" points="1069,117.9 1076.6,189.1 1076.6,189.1 1069,117.9 1069,117.6 1069,117.9 1076.6,189.1 1079.1,189.9 
		1075.3,107.1 1071.2,103.2 1069,117.6 	"/>
	<polygon class="st3" points="1076.6,189.1 1076.6,189.1 1069,117.9 1069,117.9 	"/>
	<polygon class="st3" points="1067,99.1 1067,99.2 1067,99.1 1067,99.2 1071.2,103.2 1071.3,103.1 1067.1,99.1 	"/>
	<rect x="1069" y="117.6" class="st3" width="0" height="0.3"/>
	<polygon class="st3" points="1067,99.1 1067,99.2 1067,99.2 	"/>
	<polygon class="st3" points="1072,98.5 1087.3,0.4 1079.1,0.4 1063,76.3 	"/>
	<polygon class="st3" points="1066.9,99.1 1067,99.1 1067.1,99.1 1071.3,103.1 1072,98.5 1063,76.3 1057.2,104.1 	"/>
	<polygon class="st3" points="1046,179.8 1046.1,179.8 1046.1,179.7 1046.2,179.8 1046.2,179.8 1058.7,183.6 1059.5,177.9 
		1047.7,148.9 1039.2,189.1 1046.1,179.8 1046,179.8 	"/>
	<polygon class="st3" points="1066.9,99.1 1057.2,104.1 1047.7,148.9 1059.5,177.9 1069,117.9 	"/>
	<polygon class="st3" points="1066.9,99.1 1066.9,99.1 1057.2,104.1 1057.2,104.1 	"/>
	
		<rect x="1037.9" y="163.4" transform="matrix(0.3775 0.926 -0.926 0.3775 807.2418 -873.9482)" class="st3" width="31.4" height="0"/>
	<polygon class="st3" points="1069,117.6 1071.2,103.2 1067,99.2 	"/>
	<polygon class="st3" points="1069,117.9 1069,117.6 1067,99.2 1067,99.1 1066.9,99.1 	"/>
	
		<rect x="1058.8" y="108.4" transform="matrix(0.1065 0.9943 -0.9943 0.1065 1062.0321 -965.095)" class="st3" width="18.5" height="0"/>
	<polygon class="st3" points="1067,99.1 1066.9,99.1 1066.9,99.1 	"/>
	<polygon class="st2" points="1146.1,190.1 1122,257 1142.4,236.8 1153.1,202.8 1195,4.4 1177,42.9 	"/>
	<polygon class="st4" points="1122,257 1070.4,306.9 1144.3,241.7 1153.1,202.8 1142.4,236.8 	"/>
	<polygon class="st7" points="1146.1,190.1 1136.7,188.6 1115.4,245.9 1066,295.7 1058.6,295.9 1055.2,311.7 1070.4,306.9 1122,257 
			"/>
	<polygon class="st1" points="1081.3,190.6 1079.5,199.1 1080.8,228.4 1078.3,204.8 1078.3,204.8 1081,230.6 1072.9,229.6 
		1058.6,295.9 1066,295.7 1115.4,245.9 1136.7,188.6 1093.5,181.4 	"/>
	<polygon class="st1" points="1075.6,217.2 1072.9,229.6 1081,230.6 	"/>
	<polygon class="st1" points="1081,230.6 1078.3,204.8 1075.6,217.2 	"/>
	<polygon class="st1" points="1075.6,217.2 1081,230.6 1075.6,217.2 	"/>
	<polygon class="st1" points="1080.8,228.4 1079.5,199.1 1078.3,204.8 	"/>
	<polygon class="st5" points="1076.6,189.4 1076.6,189.4 1078.3,204.9 1078.3,204.9 	"/>
	<polygon class="st5" points="1081.1,190.6 1081,190.6 1081,190.6 1079,189.9 1079.4,199.1 1081.3,190.6 1081.2,190.6 	"/>
	<polygon class="st5" points="1079.2,190 1079.1,189.9 1079.1,189.9 	"/>
	<polygon class="st5" points="1072.9,229.6 1065.3,228.5 1052.8,220.9 1050.2,237.9 1055.2,311.7 1058.6,295.9 	"/>
	<polygon class="st5" points="1052.8,220.9 1065.3,228.5 1052.9,220.2 	"/>
	<polygon class="st5" points="1074.9,215.7 1067.6,216.7 1054.9,207.7 1052.9,220.2 1065.3,228.5 1072.9,229.6 1075.6,217.2 	"/>
	<polygon class="st5" points="1058.7,183.6 1054.9,207.7 1067.6,216.7 1074.9,215.7 1062.3,184.7 	"/>
	<polygon class="st5" points="1076.6,189.2 1076.6,189.1 1062.3,184.7 1074.9,215.7 1075.6,217.2 1078.3,204.8 1076.6,189.2 	"/>
	<polygon class="st5" points="1074.9,215.7 1075.6,217.2 1075.6,217.2 	"/>
	<polygon class="st5" points="1079,189.9 1076.6,189.2 1078.3,204.8 1079.5,199.1 1079.1,189.9 	"/>
	<polygon class="st5" points="1079.1,189.9 1079.1,189.9 1078.9,189.9 1079,189.9 	"/>
	<polygon class="st5" points="1048.9,218.5 1050.2,237.8 1050.2,237.8 1048.9,218.5 1048.8,218.5 1050.2,237.9 1052.8,220.9 	"/>
	<polygon class="st5" points="1050.2,237.8 1050.2,237.7 1048.9,218.4 1048.9,218.4 	"/>
	<polygon class="st5" points="1048.8,218.4 1048.8,218.4 1048.9,218.5 1052.8,220.9 1052.9,220.2 1048.8,217.4 1048.8,218.5 
		1048.9,218.5 	"/>
	
		<rect x="1048.8" y="218.5" transform="matrix(-6.775838e-02 -0.9977 0.9977 -6.775838e-02 901.967 1279.6947)" class="st5" width="0.1" height="0"/>
	<polygon class="st5" points="1048,202.9 1048.2,205.3 1048.8,217.3 1048.8,217.4 1052.9,220.2 1054.9,207.7 	"/>
	<polygon class="st5" points="1047.8,202.7 1048.8,217.2 1048.2,205.3 1048,202.9 	"/>
	<polygon class="st5" points="1048.2,205.3 1048,202.9 1048,202.9 	"/>
	<polygon class="st5" points="1048.8,217.3 1048.2,205.3 1048.8,217.2 	"/>
	<polygon class="st5" points="1046.2,179.8 1046.2,179.8 1056.3,182.9 1058.6,183.6 1058.5,183.6 1056.3,182.9 1046.2,179.8 
		1047.8,202.7 1048,202.9 1048,202.7 1048,202.7 1048,202.9 1054.9,207.7 1058.7,183.6 	"/>
	<polygon class="st5" points="1048,202.7 1048,202.9 1048,202.9 1048,202.7 	"/>
	<rect x="1076.6" y="189.1" class="st5" width="0" height="0"/>
	<polygon class="st5" points="1079.2,190 1081.2,190.6 1081.2,190.6 	"/>
	<polygon class="st5" points="1079,189.9 1079,189.9 1081,190.6 1081,190.6 1079.1,190 	"/>
	<polygon class="st5" points="1079,189.9 1079,189.9 1079.1,189.9 1079.1,189.9 	"/>
	<polygon class="st5" points="1058.7,183.6 1058.7,183.6 1062.3,184.7 1062.3,184.7 	"/>
	<polygon class="st5" points="1077,189.1 1077,189.1 1062.5,184.7 1062.4,184.7 1076.6,189.1 1076.8,189.1 	"/>
	<polygon class="st5" points="1062.3,184.7 1062.3,184.7 1062.3,184.7 	"/>
	<polygon class="st5" points="1079.4,189.9 1077,189.2 1077,189.2 	"/>
	<rect x="1076.6" y="189.2" class="st5" width="0" height="0"/>
	<polygon class="st5" points="1076.6,189.1 1076.6,189.2 1076.6,189.2 1076.6,189.2 	"/>
	<polygon class="st5" points="1079.1,189.9 1077,189.2 1077,189.2 1079,189.9 1079,189.9 	"/>
	<rect x="1076.6" y="189.1" class="st5" width="0" height="0"/>
	<rect x="1076.6" y="189.1" class="st5" width="0" height="0"/>
	<rect x="1046.2" y="179.8" class="st5" width="0" height="0"/>
	<polygon class="st5" points="1046.1,179.8 1046.1,179.8 1046.2,179.8 1046.2,179.8 	"/>
	<polygon class="st5" points="1046,179.8 1046,179.8 1046.1,179.8 1046.1,179.8 	"/>
	<polygon class="st5" points="1056.2,182.9 1046,179.8 1046,179.8 	"/>
	<polygon class="st5" points="1058.6,183.6 1056.3,182.9 1058.5,183.6 	"/>
	<polygon class="st5" points="1078.3,204.8 1078.3,204.8 1078.3,204.8 	"/>
	<polygon class="st5" points="1078.3,204.8 1079.5,199.1 1078.3,204.8 	"/>
	<polygon class="st4" points="1055,309.5 1050.2,237.9 1047.7,253.5 	"/>
	<polygon class="st4" points="1047.7,253.5 1050.2,237.9 1048.8,218.5 1042.7,214.7 	"/>
	<polygon class="st4" points="1049,217.4 1048.8,217.4 1048.8,217.4 1042.5,213.1 1042.7,214.7 1049,218.5 1049,217.4 	"/>
	<polygon class="st4" points="1048.8,217.4 1048.8,217.4 1048.8,217.4 1048.8,217.4 1048.8,217.4 	"/>
	<polygon class="st4" points="1047.8,202.7 1040.4,197.5 1042.5,213.1 1048.8,217.4 1048.8,217.3 	"/>
	<polygon class="st4" points="1048.8,217.3 1048.8,217.4 1048.8,217.4 	"/>
	<polygon class="st4" points="1046.2,179.8 1046.2,179.8 1046.2,179.8 1046.2,179.8 	"/>
	<polygon class="st4" points="1046.2,179.8 1039.3,189.1 1040.4,197.5 1047.8,202.7 1046.2,179.8 	"/>
	<polygon class="st4" points="1046.2,179.8 1046.2,179.8 1046.2,179.8 1046.2,179.8 	"/>
	<polygon class="st4" points="1046.2,179.8 1046.2,179.8 1046.2,179.8 	"/>
	<polygon class="st5" points="1127.2,0.4 1124.6,0.4 1125.4,2.3 	"/>
	<polygon class="st8" points="1151.5,0.4 1176.4,43.2 1194,5.6 1190,0.4 	"/>
	<polygon class="st8" points="1150.6,0.4 1176,44.1 1176.4,43.2 1151.5,0.4 	"/>
	<polygon class="st6" points="1194,5.6 1193,0.4 1190,0.4 	"/>
</g>
<g>
</g>
<g>
</g>
<g>
</g>
<g>
</g>
<g>
</g>
<g>
</g>
<g>
</g>
<g>
</g>
<g>
</g>
<g>
</g>
<g>
</g>
<g>
</g>
<g>
</g>
<g>
</g>
<g>
</g>
</svg>
