<svg xmlns="http://www.w3.org/2000/svg" viewBox="0 0 1195 571.9" enable-background="new 0 0 1195 571.9"><style type="text/css">.st0{fill:#5AC6D1;} .st1{fill:none;} .st2{fill:#F07CB0;} .st3{fill:#F6AFC6;} .st4{fill:#EC1E82;} .st5{fill:#802956;} .st6{fill:#CB1B6C;} .st7{fill:#EE569E;} .st8{fill:#EF67A5;} .st9{fill:#801644;} .st10{fill:#027F80;} .st11{fill:#067F80;} .st12{fill:#064040;} .st13{fill:#1DBCBE;} .st14{fill:#7BD1DA;} .st15{fill:#BDE8ED;}</style><path class="st0" d="M253.5 537.4l18.8 12.5 14.5 21.5-95.3.4-7.8-9-2.4-29.5z"/><g id="_x31_3"><path class="st1" d="M1046 179.8l12.6 3.8h-.1zm31 9.3v.1l2.1.7h.1v.1l1.8.6h.2l-1.9-.7zm-10.1-90l2.1 18.8 7.6 71.2-7.6-71.2zm-448.9 338l-.3 2 .7-4.2zm-30.5-174.3l1.7 79.5h.2l28.6 96.8-28.6-96.8zm67.2 225.6l1.9 2.5-37.8-57.8-.1.3zm394.1-271v-.1zm-136.8-24.2l5-23.9zm-420-123l22.7 56.5-22.7-56.5zm88.9 217.8l-2.2-5.6 2.2 5.6zm9.1-45l2.9-24.8zm-.4 3.9l.4-3.8zm-15.9-40.3l6.6 4 5.5 18.8v-.1l-5.5-18.7zm-252.2 66.8l-1.1-2.3.2.5.9 1.8zm157.6-235.7l12.9 32.3-12.9-32.4-8.2-20.4zm99.6 244.7v-.3h-.1l-4 10.3v.3-.1l4.1-10.2zm-267.8-10.3l10.5 1.3 1 1.7-.1-.1-.9-1.7zm263.7 20.3l-10.6 26.8-4 10.2 4-10.2 10.6-26.8zm473.2-89.7l1 14.6v-.1l-1-14.5zm-489.4 79.2h13.1-6.6-6.6l-5-6.5 5 6.5-.1.4.1.1v-.2l6.6-.3h-6.5zm-236.9-8.5l.9 1.7-.1-.1 1.1 2.1 3.6-3.1-3.6 3.1zm231.7 1.9v.1l3.6-43.3zm329.9-33.9l.4.7h.1l-.5-.7-1.5 6 .2-.5zm-71.1-58.6v.1l10.7 3.3h.1zm105-13.8l20.6-98.7h.1zm-773.9-70.8l87.6-86.1v-.1zm415.1 184.1l.1.1zm-4.9-7l3.6-43.1-.1-.1-3.6 43.3h.1zm56-194.7l9.5-80.2-9.6 80.2zm83.4 456.8l-3.9 34.5 29.9-263.8zm-556.6-445.7l7 6.5-39-36.4zm851.7 359.7l4.5 6.9h.1l-4.6-6.9 38.6-246.6h-.1zm-29.1-6l5.2 1.1 23.9 4.9zm-114.3-445l-1.2 9.9 2.1-9.9zm120.7 138.5l14.1 72.9-14.1-72.9zm-264.9 142.2l18.5 27h.2l-18.4-27 33.1-280.7h-.2zm-611.3-218.4l-88.9 86.4 11.6-11.3zm545.5 207.7l65.8 10.7-65.8-10.7zm-113-146l2.4-.9 1-.3zm-354.7-124h-.1l-62.6 61.3-15.2.9.1.1 15.2-.9zm696.7 163.8l-.1-.3-4.3 20.6-12.2 9.2h.1l12.2-9.2zm106.6 49.8l9.2-2.2-51.8 12.4zm-497.5 37l-.1.8 17.6-161.5-.1-.1zm-191.6-250.6h-.1l27 140.5v-.5zm674.7 89.4zm-488.8-57.1l-.3-.9-2.4 8.9.7.8-.7 21.7v-.1l.7-23zm-159 110l-7.4 12.7h.1l7.3-12.5zm154.5 202l-.1.1-8.5 79-6.2 5.5 6.2-5.5zm-74.3-344.3h-.2l-8.2 261.8-15.2 16.4.1.1 15.3-16.5zm104.1 69.6l.1.2zm518 12.5l-33-82.1h-.1l33.1 82.3zm-88.7 110.6l-.1.2 6 30.9-7.7 13.2h.1l7.7-13.2zm172-11.7l-12.2 9.2h.1l12.2-9.2 38.2-181h-.1zm-173.7 56l22.9 121.7-3-15.9zm131.4-190.6l7.3-46.4h-.1l-7.2 46.3zm-67.6 468l-1.4 8.5 10.2-65zm-1.1-336.8l7 36.7 4.7-29.6z"/><path class="st2" d="M228.5.4h-61.8l-62.6 61.4 39 36.4 87.6-86.2z"/><path class="st3" d="M88.8 62.4l-6.8-8.4-16.3-19.9h-.1l16.4 19.9 6.8 8.4.1.2h-.1l15.2-.9 62.6-61.3h-73.5l-38.4 37.7 10.9-4v.1-.1z"/><path class="st4" d="M143.1 98.2l-57.2 42.3 28.2-5.5 27.8-22.4 91-89.2-2.2-11.3z"/><path class="st5" d="M85.9 140.5l-70.6 12.9 97.6-13.2 29-27.6-27.8 22.4z"/><path class="st6" d="M143.1 98.2l-7-6.5-49.5 35.9-68.7 14-6.3-3.8-11.6 11.3 15.3 4.3 70.6-12.9z"/><path class="st7" d="M17.9 141.6l68.7-14 49.5-35.9-32-29.9-15.2.9-77.3 75.1z"/><path class="st4" d="M65.6 34.2zm.1 0h-.1l-64.5 112.9.2-.3-1.3 2.2 88.8-86.4zm23.1 28.4zm-23.1-28.4l23.1 28.4h.1l-.1-.2-23.2-28.3v.1zm23.1 28.2l-6.8-8.4zm-23.1-28.3l16.3 19.9-16.4-19.9z"/><path class="st2" d="M54.7 38.2l-53.4 108.6 64.3-112.6zm10.9-4l-64.3 112.6-.2.3zm0 0h.1-.1z"/><path class="st4" d="M312.3.4h-31.4l26.9 140z"/><path class="st7" d="M230.7 12v.1l11.9-11.7zm69.7 143.4l7.4-12.7v-1.8l-27-140.5h-24.4l-23.5 23 28.2 146.9 2.7-11.3h.1zm-57.8-155h-14.1l2.2 11.6zm0 0l-11.9 11.7 2.2 11.3 23.5-23z"/><path class="st2" d="M300.5 155.4l5.9 31.2 1.4-43.7z"/><path class="st6" d="M264.3 159l40.4 80.3 1.7-52.7-5.9-31.2h-.1l-36.5 3.6 40.8 80.9v-.6zm.3 0l40.4 80.3zm35.8-3.6l-36.5 3.6 36.5-3.6z"/><path class="st5" d="M304.7 240.2l-40.8-80.8-2.7 11.1 43.3 74.1.1-.1zm-40.8-81.2z"/><path class="st7" d="M490 90.3l-17.6 161.5-.8 25.9-2.7 58.7-6.6 8.3-8.6 79.1 24.4 1.5 5.2.3 30.2-277.3-3.3-7.9z"/><path class="st4" d="M458.2 261.2l5.9-198.1v.1zm20.2-199.7l-5.9 189.5 17.4-160.8zm-30.9 367.8l6.2-5.5 8.5-79-33.3 41.9-4.7 44 3.2-5.3h.1zm23.4-412.1l-.3-.9z"/><path class="st3" d="M483.3 425.6l-9.3 36.6 10.1-11.7 3.9-18.5 29.7-273.6-4.2-10.1zm32.6-299.3l5.5-1.9z"/><path class="st5" d="M474 462.2l-25.5 29.1 37-38.3 2.5-21-3.9 18.5z"/><path class="st8" d="M483.3 425.6l-5.2-.3-8.4 31.4-24.3 28.9-4 .5-1 8.6 8.1-3.4 25.5-29.1z"/><path class="st2" d="M447.5 429.3l-6.1 56.8 4-.5 24.3-28.9 8.4-31.4-24.4-1.5z"/><path class="st6" d="M447.5 429.3l-20-3.9 12.9 69.3 1-8.6zm0 0l-20-3.9 20 3.9zm-6.1 56.8l-1 8.6 1-8.6zm0 0l6.1-56.8z"/><path class="st5" d="M427.5 425.4l-3.3 5.3 16 62.8-12.7-68.1zm0 0z"/><path class="st4" d="M464.8 41.5l-.7-.8-.4 1.3-35.3-41.6h-40.4l-8.2 261.8 62.8-.8 21.5-198.2zm-22.2 219.9h1.6l14-.2 5.9-198z"/><path class="st8" d="M334.9.4l25.1 129.4-25-129.4zm-14.5 270.7l-.3-.5.3.5.2.5zm67.4-270.7h-43l26.6 138.4 7 39.3-42.9 88.7-8.5 7.2 37.4 4.6 15.2-16.4zm-79.6 141.8l-.4-1.8v.5l.3 1.3-.3.5v.2zm13.2 131.1l-16.8-28.8v.1h-.1l-1.3 42.7 7.5-15.3.2.1v-.1zm-16.8-28.8l-.1.1h.1zm3.6-102.3l42.6-10.2 9.2-2.2-25.1-129.4h-22.6l-4.5 140zm-.4-1.3v1.8l.3-.5zm52.2-11.1l3.7 71 11-26.6-3.3-35.4-26.6-138.4h-9.8zm3.7 71l-28.2 66 42.9-88.7-7-39.3 3.3 35.4zm-3.7-71l-9.2 2.2 2.6 61.1-26.3 65-6.7 3.1 2.3 12.3 4.3.5 8.5-7.2 28.2-66zm-9.2 2.2l9.2-2.2zm-23.7 126.1l26.3-65-2.6-61.1-42.6 10.2-.4.7-1.4 43.7 14 74.6zm-18.9-115.9l42.6-10.2zm-3.5 97.1v.6l15.4 30.7-15.1-30.7zm18 34.2l-2.3-12.3-14-74.6-1.7 52.7.3.6 15.4 31.2 1.1 2.2zm-18-34.2l.3.6-.3-.6zm.3.6l15.1 30.7.3.5zm15.4 21.3l2.3 12.3-2.3-12.3zm0 0l-14-74.6 14 74.6zm.2 10.4l.9 1.7zm-16-27.1l16.8 28.8h.1l-1.1-2.2-15.7-31.2v.3zm0 0l.1-4.3-.1 4.3zm16.9 28.9l-.9-1.8-.2-.5 1.1 2.3z"/><path class="st2" d="M464.8 40.1l-.7 23 3.2-29.1-.5-1.3zm7.6 211.7l.1-.8-8.8 80.3.1-.1zm-7.5 77.9l6.7-52 .8-25.9-8.6 79.4zm13.5-268.2l-11.1-27.5-3.2 29.1-5.9 198.1-17.6 103 23.1-32.9 8.8-80.3z"/><path class="st5" d="M463.8 331.2l-.1.1-1.5 13.5.1-.1zm-85.1 118.7l50.2-63.2.9-7.5zm85.1-118.7l-1.5 13.5 6.6-8.3 2.7-58.7-6.7 52zm-.1.1l-23.1 32.9-10.8 15-.9 7.5 33.3-41.9z"/><path class="st6" d="M440.1 284.2l-11.9 65.8-58.7 84.7-10.6 2.3-.8 23.8 20.6-10.9 51.1-70.7zm4.1-22.8l-4.1 22.8-10.3 95 10.8-15 17.6-103z"/><path class="st7" d="M379.8 262.2l-15.3 16.5-5.6 158.3 10.6-2.3 58.7-84.7 11.9-65.8 2.5-22.8zm62.8-.8l-2.5 22.8 4.1-22.8z"/><path class="st6" d="M358.9 436.8l5.6-158.2h-.1l-37.4-4.6-3.6 3.1-1.1-2.1.1.1-1-1.7-10.5-1.3 6.4 25.5 40.7 163.2v-.4h.1zm0 .2l-.8 23.8.8-23.8zm0 0l5.6-158.3zm-35.5-159.9l3.6-3.1-4.3-.5zm0 0l-.7-3.6-1.2-.1zm-1.9-3.7l-.1-.1.9 1.7-.8-1.6.8 1.6.1.1zm0 0zm0 0l.8 1.6-.8-1.6zm-.1-.1l-10.5-1.3v.1l10.5 1.2zm5.6.7l37.4 4.7v-.1l-37.4-4.6zm-5.5-.7v.1-.1zm1.2.2l4.3.5zm-1.2-.1l1.2.1-1.2-.2zm0 0v-.1.1zm0 0v-.1h-.1zm0 0v-.1.1z"/><path class="st5" d="M310.9 272.4v-.3l-7.5 15.3 53.9 170.2-40-159.9-6.4-25.3zm0 0l6.4 25.5-6.4-25.5zm0-.4v.1z"/><path class="st9" d="M469.5 13.6l-5.3-13.2 5.3 13.2zm-3 18.2l-12.7-31.4h-23.9l34.2 40.3zm4.1-15.5l-1.1-2.7 1.1 2.7zm-6.9 25.7l.4-1.3-34.2-40.3h-1.5z"/><path class="st7" d="M544 188.4l-12.7-7.7-7.5 90.8 5.2.7 24.2 3.1 3.6-43.2zm7.8-74.7l.1-.1z"/><path class="st4" d="M556.9 232.2l-3.6 43.2 5 6.5h6.6l1.8-16zm-3.6 43.1v.1l3.6-43.2zm44.7-274.9h-21.1l16.3 40.4z"/><path class="st3" d="M526 309.2l-2.2-37.7 7.5-90.8-5-3.1-8.3 99.3.3 18.9z"/><path class="st5" d="M518.3 295.8l-.3-18.9-1.5 21.1 29 44.6-19.5-33.4z"/><path class="st8" d="M531.2 304.7l-2.2-32.5-5.2-.7 2.2 37.7 19.5 33.4 7.3 4.9.7-8.6-3.9-1.3z"/><path class="st2" d="M553.3 275.4v.2l4.9 6.7.1-.4zm-.1 0v-.1l-24.2-3.1 2.2 32.5 18.4 32.9 3.9 1.3 4.7-56.6-5-6.7zm.1.2v-.2h-.1v.2l5 6.7z"/><path class="st6" d="M560 329.4l4.7-45.4.2-1.6h-6.6l-4.8 56.7-.7 8.5.7-1.8-.2.5zm5-47v-.5h-6.6v.3l6.5.2zm-.1-.5z"/><path class="st5" d="M553.5 345.8l6.1-12.8.3-3.5zm6.4-16.4l-6.6 16.9.2-.5 6.4-16.3z"/><path class="st7" d="M567 109.9v-.1.1zm40.7 156.2l20.9 3.4-32.5-5.3zm-70.1-225.4l.1-.3-5.6-13.9v.3zm-9.7-24.3v-.3l-6.3-15.7h-.2zm4.2 10.1l-4.2-10.4v.3l4.2 10.4zm33 82.5l1.9.9v-.1l-1.8-.9-23.1-57.5-.1.2zm13.6 6.9h.1l-11.8-6.1v.1zm-36.6-64.5l-4.4-11-.1.3 4.4 10.9z"/><path class="st4" d="M559.6 198l-2.8 34.1.1.1 2.8-34.2zm-15.6-9.6l12.8 43.7 2.8-34.1zm-7.6-69.3l15.4-5.4zm37.3 87.5l-14-8.6-2.8 34.2 9.8 33.7z"/><path class="st3" d="M599.1 165.8z"/><path class="st7" d="M521.4 124.4l3.4-1.2-2.4-8.1zm-24.6-96.6l-.1-.2-4.6 42.4.1.2zm39.2 32.2l.1-.2-5.6-18.9v.2zm-17.4 41.9l-21.8-74.1-4.6 42.4 22.7 56.5 1-.4zm0-101.5h-.1l8.1 27.5v-.2zm-47.7 16.8l4.5-16.8h-.5l-4.3 15.9zm21.2 52.8l4.6-42.4-8-27.2h-8.4l-1.2 37.2zm38.4-29.1l-3.9-13.2v.2l3.9 13.2zm-8.1 74.2l-3.8-13.2-2.7 24.4 5.5-1.9zm-43.3-77.5l1.2-37.2h-4.9l-4.5 16.8zm-8.1-37.2h-6.8l5.3 13.2zm-1.5 13.2l1.1 2.7 4.3-15.9h-3.9zm82.3 100.1l.1-.1-11.7-39.7v.2zm-11.6-39.8l-4.1-14.1-.1.2 4.2 14.1zm-2.6-33.2l-5.5-13.9-1.6 14.1 5.6 18.9zm-11-13l1.3-11.3-6.5-16h-2.8zm3.9 13.2l1.6-14.1-4.2-10.4-1.3 11.3zm34.6 68.1l-23.1-57.4-1.8 22.3 11.7 39.7zm-24.9-35.1l1.8-22.3-4.4-10.9-1.5 19.1zm-9.7-32.8l-8.1 74 2.4 8.1 6.2-2.2 5-61zm-33.7-13.3l3-27.4h-.1l-3 27.2zm29.8.1l-8.1-27.5h-18.7l-3 27.4 21.8 74.1zm-26.9-27.5h-11l8 27.2zm30.8 40.7l-3.9-13.2-8 74 3.8 13.2zm9.7 33l-3.8 45 15.4-5.4zm-4.2-14.1l-5 61 5.4-1.9 3.8-45z"/><path class="st4" d="M606.8 101.5l2.5-20.9h-.1l-2.5 20.9zm-35.3-45.1l4.6-56h-.1l-4.6 55.8zm4.5-56h-21l16.4 55.8zm-4.5 56l14.2 48.4 7.5-64-16.3-40.4h-.8zm-4.5 53.4l3.3-38.8-.1-.2-3.2 39zm-26-109.4h-6.1l-2.8 26.1 5.6 13.9zm-11.4 0h-8l6.3 15.7zm2.5 26.1l2.8-26.1h-5.3l-1.7 15.7zm33.1 82.4l1.8.9 3.2-39-20.7-70.4h-3.2l-4.2 51zm17.6 4.9l-12.5-42.8-3.3 38.8 11.8 6.1zm-40.7-62.4l4.2-51h-5.3l-3.3 40zm29.4 5l-.1-.2-1.2 14.6.1.2zm-1.3 14.4l1.2-14.6-16.4-55.8h-5.5zm12.6 43l2-1 .9-8-14.2-48.4-1.2 14.6z"/><path class="st3" d="M492.1 70.3l.1.2v-.3l-.1-.2zm-2.2 19.9l.1.1 2.2-19.8-.1-.1zm2.2-19.8l.1.1-.1-.2zm-24.2-41.7l.4-3.7-1.8 6.8.3.9zm52.3 107.3l-2.1 19.5 8.5 16.5h.1l1.8-21.5zm-5.3-9.3l-22.7-56.5v.3l22.5 56.2-22.5-56.2-2.2 19.8 20.2 50.1 3.4 6.7 2.1-18.9zm-.3 0l-22.6-56.2zm-43.7-109.4v-.2.1l-.3-.9-2.3 8.7-.4 3.7zm0-.1v.1zm21.2 53.2l-.1-.2.1.1v-.3l-13-32.3v.2l12.9 32.1-12.9-32.1-.7 23.6 11.5 28.7zm-.1-.2l.1.2v-.1l-.1-.1zm0-.2l-13-32.1zm23.7 58.2l-2.1 18.9 4.5 8.4 2.1-19.5zm-48.9-95.5l.5 1.3.6-5.3zm4.1-15.4l8.1 20.3.1.3v-.2l-8.2-20.5zm8.1 20.4l-8.1-20.4-3 11.4-.6 5.3 11.1 27.5.7-23.6zm0 0l.1.2-.1-.3zm-8.1-20.4l8.1 20.4v-.1zm-2.6 7.7l1.2-11.4-5.3-13.2h-10.4l12.7 31.4zm1.2-11.4l-1.2 11.4 2.3-8.7zm67.9 152.3l-4.2-7.3-1.4 16.9 10.6 7.4zm-8.9-15.4l-1.8 21.5 5.1 3.5 1.4-16.9zm8.9 15.4l5 17 7.8 5.4z"/><path class="st5" d="M526.6 172l-8.5-16.5-.4 2.9 7.9 18.8.7.4.4-5.6zm-13.1-23.7l.1-1.2-3.4-6.7zm.1-1.2l-.1 1.2 4.2 10.1.4-2.9zm28.8 35.8l-10.6-7.4-.5 5.2 12.7 7.7zm-10.6-7.4l-5.1-3.5-.4 5.6 5 3.1zm28.1 19.3l-.3 3.2h.1l.3-3.1zm0 0l-9.7-6.5-7.8-5.4 1.6 5.5 15.6 9.6zm.1.1l-.3 3.1 14 8.6.3-2.2z"/><path class="st8" d="M526 127.2l-2.2-3.7-2.4.9-1.2 11.6 8.3 14.5 1-11.5zm-11.1-.5l.8 1.5.2-1.9zm1-.4l-.2 1.9 4.5 7.8 1.2-11.6zm17.3 32.3l4.2 7.3-3.8-12.8zm41.1 31.4l1 3.5v-.2l-1-3.2zm-44.8-51l-1 11.5 4.7 8.1.4-5.5zm44.8 51.1l1 3.2.3-2.4zm-48.3-62.9l3.5 11.8.4-5.1zm35.1 53.6v-.1l-1.2 14.1.1.1zm-1.2 14l1.2-14.1-6.3-4.4-20.2-34.5-1 11.3 3.8 12.8 12.8 22.4zm14.4-4.8l-13.2-9.2-1.1 14.1 14 9.5 1.3-10.9zm-44.8-51l4.1 14.1 1-11.3-4.7-7.9z"/><path class="st2" d="M563.4 152.8v.4-.2zm-39.6-29.3l2.2 3.7-1.2-4zm28.1-9.9l-.1.1 11.6 39.3v-.2zm22.4 76.5l-10.9-37.1v.2l10.9 36.8zm-10.9-37.1l3.6-43.1-3.6 42.9zm31.1 51.3l4.3-36.1zm-31.1-51.5l3.6-42.9-1.9-.9-13.2 4.6zm10.9 37.3l1.3.8 7.5-64.2-4.4-10.8-11.7-6-3.6 43.1zm-43.3-69.1l-6.2 2.2 1.2 4 3.9 6.7zm32.4 32.2v-.2l-2.3 27.7v.1zm-11.6-39.5l-15.4 5.4-1.8 22.7 20.2 34.5 6.3 4.4 2.3-27.7zm11.6 39.5l-2.3 27.6 13.2 9.2zm-32.4-32.2l-1.1 12.9 4.7 7.9 1.8-22.7zm67.8 47.2l.3-2.4-.3 2.4z"/><path class="st6" d="M600.4 154.8l6.4-53.3h-.1zm-16.3-36.6l-1.3-4.4-4 2.1h-.1l4.4 10.8zm15 47.6l1.3-11zm-14.3-53l-2 1 1.3 4.4zm22-11.3h-.1zm-28 14.4l4-2.1-4 2.1zm6-3.1l-2 1z"/><path class="st7" d="M615.4 205.8l4 9.9 6.1 14.9-10.1-24.8zm4.5-98.7l-8.4-8h-.1l8.4 8 5.5 121.3-13.9-129.3 14.1 131.5-2.9-.3 11.8 40.1 65.8 10.7 33.2-280.7h-114.6l-9.5 80.2zm-30 135.9v.1l.1.4v-.1zm.1.4v.1l6 20.7h.1zm19.8-14.9l-16.9-10.2-2.9 24.7 2.9-24.8h-.1l-2.9 24.8.1.4v-.3.3l6.1 20.8 32.5 5.3-11.8-40zm-19.8 14.5l2.9-24.7v-.1zm6.3 21.2l-6.2-20.7-2.4 19.3 2.3-19.3-.1-.4-.5 3.8-1.6 15.9h.2zm-8.6-1.4l2.3-19.3zm40.9 6.7l5.8.9-11.8-40.1-5.8-.8zm-17.2-170.4h.1l8.4 8-10.6-26.5-2.5 20.9zm-18.6 119.1h.1v.1l16.9 10.2-16.8-11.3zm.1 0v.1-.1zm25.4-2.4l4.3 14.5 2.9.3-6.1-14.9zm-23.8-11.5l-1.5 12.9 16.8 11.3 7 1-3.8-12.9-.9.1zm18.5 12.3l3.8 12.9 5.8.8-4.3-14.5zm6.4-.9l-4-9.9 2.9 10zm-24.9-11.4l17.6 12.4.9-.1-14.2-48.4zm4.3-36.1l14.2 48.4 5.3-.8-2.9-10-16.3-40zm1.6-13.4l15 51 10.1 24.8-14.1-131.5-4.6 2.4zm15 51l-15-51-1.3 11zm-8.6-104.3l4.6-2.4zm18.5 126.9l-5.5-121.3-8.4-8zm-13.9-129.3z"/><path class="st4" d="M815.9 243l-4.1-60.1zm-4.1-60.1l-.1-.1-6.9 9.4 38.4-181.9 1.2-9.9h-110.8l-33.1 280.7 18.4 27 78.5 2v.1h.3l7.5 23.7 8.6-73.4-8.9-68.3z"/><path class="st3" d="M609.2 80.6l9.6-80.2h-14l-4.8 57.3zm-23.4 148.5v.2l4.1 13.8v-.1zm-11.2 63.3v.1-.1zm14.6 50l-13.1-44.5v-.1l-12.2 26-.7 36.2 27.6 55-1.6-72.7zm10.8-284.7l4.8-57.3h-6.8l-4.8 40.4zm-35.1 224.2h6.6l-4.8-16zm15.5-71.3h-.1l5.5 18.7v-.2zm-15.4 71.8h-.1l.1 1.3v.1l-.9 35.4 10.5-26.8-3.1-10.2zm-.4 1.3l.3-1.8-.3 1.8v.1zm.3-1.8zm9.7 10.8v-.2l-10.6 26.7v.2l-.1 4.4 12.2-26zm0-.2v-.1l-10.6 26.8v.2-.2zm-10.6 26.7l10.6-26.7zm23-104.5l-1.2 14.4 4.1 13.9 2.9-24.8zm8.6-57.4l-3.2-7.8zm-15.2 53.3l5.4 18.5 1.2-14.4zm9 36.1l.5-3.7-4.1-13.8v.2l-4.9 58.6-2.1-5.6h-.1l2.2 5.6-4.7 9.9 13 44.4-1.7-79.7v-.2zm-1.9 15.7l1.9-15.9zm-11.4 35.5l13.1 44.5v-.1l-13-44.4zm2.6-15.5h-.1l.1-.1v.1h.1l2.1 5.6 4.9-58.6-5.5-18.8-6.6-4-7 59.3 4.8 16 7.2.2zm7.1-53l-4.9 58.6zm-7.2 52.7l.1-.2zm-7 .3h-.1l3.1 10.3 4-10.2zm0-.5l7 .2.1-.2zm0 0zm-.1 0zm.1 0h-.1zm-.1.5l.1-.2v-.2h7.1v.2l-7.2.2zm0-.5h.1-.1zm4.7 16l4.7-9.9-2.2-5.6-4.1 10.2 1.5 5.2zm-.1-.1v.1h.1zm-1.5-5.2v.1l1.5 5.1zm1.6 5.3l4.7-9.9-4.7 9.9zm0 0h-.1.1zm2.5-16zm16.9-124.6l3.5 8.5-3.5-8.5zm11.1-55.8l2.5-20.9-9.2-22.9-4.1 49.4zm-10.8 5.6l4.1-49.4-6.8-16.9-7.5 64 1.9 6.5zm-8.3 4.2l-1.9-6.5-.9 8zm-8 96.8l.7 2.5h.1l-.7-2.4zm7.4 6.6l5.8 3.5.2-1-5.9-4zm.1-1.5l-7.4-5 .7 2.4 6.6 4.1zm-7.5-5.1l-5.6-3.7-.3 2.2 6.6 4zm-4.3-14.8v.2l4.3 14.6.1.1zm12.9 6.6l-1.1 13.3 5.9 4 1.5-12.9zm-12.6-9l-.3 2.4 4.4 14.9 7.4 5 1.1-13.3zm-1.6 13.5l5.6 3.7-4.3-14.6zm14.2-4.5l6.3 4.4 4.3-36.1-3.2-10.9-3.2-7.8zm4.2-50.4l-9.3-22.8-7.5 64.2 12.6 9zm6.4 18.7l.3-2.4-3.5-8.5zm1.6-13.4l6.3-53.3-10.8 5.6-2.1 25.4zm-4.5-47.7l-8.3 4.2 6.2 21.2zm-.3 50.2l-3-10.2-.2 2.4zm-3-10.2l-8.5-28.9-1 8.5 9.3 22.8zm0 0l3 10.2 3.5 8.5 1.3-11-6.6-22.3zm0 0l1.2-14.6-6.2-21.2-2.8 1.5-.7 5.4zm14.1-45.6l-10.8 5.6zm-10.8 5.6l-8.3 4.2zm-8.3 4.2l-2.8 1.5z"/><path class="st5" d="M563.2 360l.7-36.2-4.3 9.2-3.7 35.8 105.4 182.9-70.5-136.7zm.8-40.8v.2-.2zm.6-35.4l-4.7 45.6 4.1-10.2zm.4-.1l-4.9 45.7h.1l4.8-45.6zm-1 35.7l-4 10 4-10v-.2l-4.1 10.2v.1l-.3 3.5 4.3-9.2zm-4.1 10.1v-.1zm.1-.1l4-10z"/><path class="st8" d="M655.7 486.7l1.5 5.2-1.5-5.2zm-59.6-222.5l12.8 43.7v-.1l-12.8-43.6zm81.8 267.7l-20-40.7-.7.7-38.4-58.8 37.8 57.8-1.9-2.5 1.9 2.9-38.9-52v-.2l.3-2-.2 2h.2l-28.6-96.8 1.4 72.7 70.6 136.7 27.4 20.2 3.9-34.5zm-69-224.1l-1.2-41.7-11.6-1.9zm10.1 125.1l9.5-2-16.7-33.8-2.8-89-12.9-43.9-8.6-1.4 1.7 79.5 28.4 96.8 1.2-6.2zm-.3.5l-.7 4 .4-2.3.3-1.7.1-.1-.1.1zm-30.7-170.6l8.3 1.4h.1zm8.1 1.4h-.1l12.9 43.9v-.2zm22.5 168.7l-1 6.2.4-2 .7-4.2zm.2.2l-.1-.2zm38.4 58.8l.7-.7-2.2-4.5zm-28.9-60.9l-9.3 1.9h-.2v.2l38.4 58.8-1.5-5.2zm-9.3 1.9l9.3-1.9v-.1l-9.6 2 .1.2v-.2zm-.6 2l-.7 4.2 37 49.3-36-55zm-.7 4.4l38.9 52-1.9-2.9-37-49.3zm1-5.9l-.3 1.5.3-1.5zm0-.5z"/><path class="st2" d="M609 308.1v.1l33.2 113.2-3.6 7.4h.1l3.6-7.5-33.4-113.5v.1zm0 0l-.1-.2v.2l.1.1zm46.7 178.6l-.9-3-16.1-54.9zm-21.3-216.3l42.7 145.3 5.7 20.4-19.4 49.6-5.5 5.5 20 40.7 14.8 5.5 26-229.3-18.5-27zm-26.7-4.3l1.2 41.7 33.4 113.5 23-7.9 5.1-1.7-41.8-142.2zm1.3 42.1l2.8 88.9 16.7 33.8 10.1-2.1 3.6-7.4zm2.8 88.9l-2.8-88.9-.1-.1 2.8 89 16.6 33.8h.2zm58.6 14.6l5.4 37.3 4.8-14.7-3.5-18.6-42.7-145.3-5.8-.9zm5.4 37.3l-12.4 36.7 19.4-49.6-5.7-20.4 3.5 18.6zm0 0l-5.4-37.3-5.1 1.7 4.4 32.2-11.3 36-3.6 2.1.9 3 2.2 4.5 5.5-5.5zm-10.5-35.6l5.1-1.7-5.1 1.7zm-26.6 15.4l16.1 54.9 3.6-2.1 11.3-36-4.4-32.2-23 7.9zm3.6-7.5l23-7.9zm-3.7 7.5l-10.1 2.1-.2.1 27.4 55.7-17-57.9zm-10.1 2.1h-.2v.1l.2-.1zm0 0l10.1-2.1-10.1 2.1z"/><path class="st6" d="M718.9 308.1h-.2l-29.9 263.8 108.6-261.7-78.4-2zm0 0l.1.1 78.4 2v-.1z"/><path class="st5" d="M797.4 310.4l-106.8 257.1 114.4-233.5-7.6-23.6zm0-.2v-.1z"/><path class="st7" d="M859.1 184.5l8.4 1.4-4.1-21.7zm32.2-147.3l9.3-8.9v-.1l-9.4 9 25.5 132.1.1-.3z"/><path class="st6" d="M863.3 163.9l-23-119.7-.5.5.4-1.1-.4-2.2 1.6-1.6 12.9-39.4h-9l-2.1 9.9-20.6 175.8.2.1h-.2l24.2 7.5 12.2-9.2zm-40.7 22.3l-10.6-3.3v-.1l10.6 3.3 20.6-175.8-38.4 181.9 6.9-9.4.1.1v-.1z"/><path class="st3" d="M916.9 170.1l4.4 23.2.1-.2-4.5-23.3zm0 0v-.3l-.1-.8-.1.3z"/><path class="st5" d="M835.9 310l51.7-45.5-1.7-2.8z"/><path class="st8" d="M880.4 252.3l1.2-5.1-.3.9-1 4.2-.4-2.2-48.4 48.7-7.3.2-3.4 15.8 15.1-4.8 50-48.3z"/><path class="st2" d="M859.1 184.5l-12.2 9.2-22.7 105.3 7.3-.2 48.4-48.7-12.4-64.2zm23.9 56.5l-1.7 7.1.3-.9 1.5-6.2zm.1 0l.5.9z"/><path class="st9" d="M846.9 193.7h-.1l-24.2-7.5-6.7 56.8 4.9 71.8 3.4-15.8zm-35.1-10.8l4.1 60.1 6.7-56.8zm10.8 3.3l24.2 7.5-24.2-7.5zm.1 0h.1l-.2-.1v.1zm-10.7-3.3l10.6 3.3v-.1l-10.6-3.3z"/><path class="st5" d="M820.6 312.6l-4.7-69.6-2.1 17.5zm-8.8-129.7l-6.9 9.3 8.9 68.3 2.1-17.5-4.1-60.1zm0 0v-.1z"/><path class="st7" d="M943.9 86.3l-22.5 106.8 6 31.1 51.8-12.4-14.1-72.9zm3.6-16.7l8.1 20.2zm-46.9-41.3l-9.3 8.9 25.5 131.8 20.6-98.7-8.2-20.5zm16.6 139.8l-.2.9.2-.9 20.3-97.6v-.2l-20.7 98.7.1.8.1-.5-.1.5 4.5 23.3 22.5-106.8-6.3-15.7zm-.2.9l.2-.9-.2.9zm20.6-98.4l-.1-.1-20.3 97.6zm6.4-9.7l3.5 8.7z"/><path class="st4" d="M888.9 42.5l-25.6 121.4.1.3 25.8-122.3zm-21.4 143.4l34.8 5.8 9.4 1.5zm53.8 7.4l-2.6 12.6-7.3 32.3 8.2-.8 7.7-13.2zm-4.6-24l-25.5-132.1-.5.5-1.5 4.2-25.8 122.3 4.1 21.7 44.2 7.3zm-29.3-122.6l-25.1-24-22 21.5 23 119.7 25.6-121.4zm-47.6-5.3l.4 2.2 1.2-3.8zm72.2 151.8l4.9-23.1-.2-.8-5 23.9-16.8 46.6 13.5-1.3 10.3-32.6 2.6-12.6-4.4-23.2zm.2 0l4.8-23.1zm-.8 45l7.3-32.3-10.3 32.6zm-31.5 11.9l.4 2.2 1-4.2-.3.9zm22.4-58.4l-18.3 49.2 10.9-1.1 16.8-46.6zm-19.2 49.3l.9-.1 18.3-49.2-34.8-5.8 12.4 64.2 1.1-1.1.3-.9 1.7-7.1z"/><path class="st3" d="M955.6 89.8l14.8 36.9-14.8-36.9zm26.8 88.2l-1.3-.8-15.4-36.8-.6-1.5 14.1 72.9 2.7 51.1 7.5-48.2z"/><path class="st5" d="M954.7 348.8l20.3-42 1.4-8.8z"/><path class="st8" d="M981.9 262.9l-2.7-51.1-9.2 2.2 2.6 61.2-26.3 65-6.7 3 3 15.9 12.1-10.3 21.7-50.8z"/><path class="st9" d="M919.7 237.4l19.9 105.8 6.7-3 26.3-65-2.6-61.2-42.6 10.2z"/><path class="st6" d="M919.6 237.4l-8.2.8-1.5 6.6-17.2 15.2 49.9 99.1-22.9-121.7zm-29.9 16.7l1.3 2.5 17-16.8.4-1.3-13.5 1.3zm21.7-15.9l-3 .3-.4 1.3-17 16.8 1.7 3.4 17.2-15.2zm-27.8 3.7l6.1 12.2 5.2-14.3-10.9 1.1zm.4-1l-.9.1.5.9zm27.4-2.7l8.2-.8-8.2.8zm-16.5 1.6l13.5-1.3zm13.5-1.3l3-.3zm-24.4 2.4l10.9-1.1-10.9 1.1zm0 0l-.9.1.9-.1z"/><path class="st5" d="M941.6 357.1l-48.9-97.1-5.1 4.5zm-54-97.1l3.4-3.4-1.3-2.5zm0 0l-1.7 1.7 1.7 2.8 5.1-4.5-1.7-3.4zm-4-18.1l-.1.2.1.1-2 5.2.2-.6-.2.4-1.2 5.1 5.5 9.4 1.7-1.7 2.1-5.9zm-.5-.5l-1.3 5.4 1.7-4.7-.4-.7zm-1.5 6l2-5.2-.1-.1-1.7 4.7zm1.5-6.4zm-43.3-196.3l.5-.5-.1-.6zm23.4-24.4l7.6-19.9h-16.5l-12.9 39.4 20.8-20.4zm0 0l-1-.9-20.8 20.4-1.2 3.8.1.6 22-21.5z"/><path class="st6" d="M897.9 0l-.1.4h.1v-.1zm-7.3 34.7l.1-.4v.2l7.2-34.1h-.1zm7.3-34.3l-7.2 34.1.5 2.7 9.4-9zm0 0v-.1zm-7.3 34.3l7.2-34.3h-2.1l-4.7 5-2.2-5h-18l-7.6 19.9 24.1 23zm3.5-34.3h-2.7l.9 1.9zm1.6 0h-1.6l-1.8 1.9-.9-1.9h-2.6l2.2 5zm-5 33.9l-.1.4-1.7 7.8.3-.6 1.5-7.4zm-1.5 7.6l1.5-4.2.5-.5-.5-2.7zm-1.9 1.4l-24.1-23-.9 2.4 25.1 24 1.5-4.2 1.7-7.8z"/><path class="st9" d="M941 53.4zm-12.4-5l-19.3-48h-11.4l2.7 27.8v.1l.6-.6zm3-18.4l9.4 23.4-9.4-23.4zm9.4 23.4l2.4 6.1-2.4-6.1zm-11.4-28.3l-7.6-19 7.6 18.9zm2 4.9l-2-4.9v-.1zm-3 18.4l-27.4-20.7-.6.6 28.6 21.5zm14.8 11.1l.6 1.4z"/><path class="st7" d="M922 6.1l-2.3-5.7 2.3 5.7zm30.1 19.4l.1-1-.4.9-.1 1zm.5-2l.2.7 7.8-16.7-5.8 27.3 17.6 91.2 7-2.5 25.7-9.1 5-31.7-33.1-82.3h-19l1.6 8.3zm-2.4 41.1l.6.5 4.8 24.7-5-25.7.5-11.6-.5 2.2zm10.4-57.1l-7.8 16.7 2 10.6zm-10 47.2l.5-2.2 1-27-.4.9zm1.3-31.6l-.1 2.3.4-.9.1-2.8.3 1.8 7-14.8-6.4-8.3h-16.6zm7.7-14.4l-1.6-8.3h-4.8zm-9.4 55.9v1l-1.6-1.2-1.1 5.2 8.1 20.2-4.8-24.7zm-6.2-3.7l3.5 8.7 1.1-5.2zm8.1-35.4l.7-1.3-.2-.7-.4 1zm-1.5 38.6l5 25.7 14.8 36.9 2-.7-17.6-91.2-3.7 17.7zm.5-11.6l3.7-17.7-2-10.6-.7 1.3zm1.1-28l.4-1-.3-1.8zm-2 40.1l.4-9.9-1.9 8.8zm-7.9-17.7l-1.3 6.5 1.5-7.4 9.2-19.6.1-1-9.8 20.9zm-10.7-16.9l9.4 23.4 1.3-6.5-.3-.6-.4.9zm19 24.7l1.1-28.3-9.2 19.6-1.5 7.4 2.4 6.1 5.3 4zm-21-29.6l12.4 21.2 9.8-20.9.1-2.3-29.9-17zm12 22.1l.4-.9-12.4-21.2 2 4.9zm7 17.2l1.6 1.2v-1l-1.5-1.1zm.1-.9l-5.3-4 .6 1.4 4.6 3.5zm3.2-40.4l-15.3-22.7h-16.9l2.3 5.7z"/><path class="st4" d="M1051.1 46.8v-.1l-10.3 65.8h.1zm-28.1-46.4h-45.9l33 82.1z"/><path class="st3" d="M955.6 89.8l9.5 49.1-9.5-49.1zm18 42.4l7.1 36.9 1.5 2.9 12.6 8.7 1.4-9.1zm-26.1-62.6l-3.6 16.7 21.2 52.6-9.5-49.1zm-10.1.7h.1l2.5-12.4zm0 0l2.6-12.4-10.8-8.1zm6.6-9.4l-4-3-2.5 12.4v.2l.1-.2h.1l-.1.3 6.3 15.7 3.6-16.7zm-6.3 9.4h-.1l-.1.2.1.1zm35.9 61.9l-3.2-5.5-14.8-36.9 9.5 49.1.6 1.5 15 28.7zm-32.6-78.8l-.8 3.7.8-3.7zm-9.4-23.4l-16.1-27.6-3.4-2h-2.8l19.3 48 11.6 8.7.8-3.7zm8.6 27.1l3.2 2.4-2.4-6.1zm-18.2-51l-5.1-3 12.7 21.9zm7.6 18.9l-12.7-21.9-1.4-.7 16.1 27.6zm10.6 32.1l-.2.8.2-.8zm-11-7.3l10.8 8.1.2-.8-11.6-8.7zm11 7.3l-.2.8 4 3-.6-1.4zm-25.8-56.7h-2.3l3.4 2zm7.6 5.7l-2.3-5.7h-4.4l1.6 2.7zm-6.5-3.7l1.4.7-1.6-2.7h-.9z"/><path class="st5" d="M1026.7 202.5l-.4 2.3h.1l.4-2.3zm-31.9-21.8l-12.6-8.7-1.5-2.9 1.7 8.9 11.7 7.1zm-29.1-40.3l15.4 36.8 1.3.8-1.7-8.9z"/><path class="st8" d="M1026.7 202.5h.1l2-13.1v-.1zm-30.5-30.9l2.4-15.3-19.2-32.8-7 2.5 1.2 6.2zm-16.8-48.1l-7 2.5 7-2.5zm-5.8 8.7l-1.2-6.2-2 .7z"/><path class="st2" d="M998.6 156.3l6.5-41.9-25.7 9.1zm6.5-41.9l-25.7 9.1zm33.5 12.1l-9.8 62.8v.1l9.8-62.7z"/><path class="st6" d="M1040.9 112.5l-.1.1-2.2 13.9v.2zm0 0h-.1v.1zm-2.3 14v.2z"/><path class="st7" d="M1026.3 204.8l-27.3-16.7-6.7 42.4 5.3 29.6-14.7 30.3-24.2 155 29.1 6zm32-204.4h-25.8l18.6 46.3zm-37.6 108.6l13.6 6.9h.1l-13.6-7-6.8-16.8-.1.2zm-28.9 124.8l-6.9 44.2 9-21.8zm.5-3.3l-.5 3.3 2.1 22.4-9 21.8-2 12.4 14.7-30.3zm21.6-138.2l-3.1 20.1 9.9-3.4zm20.5 23.6l6.4-3.4 10.3-65.8-18.6-46.3h-4.2l-14.3 91.7 6.8 16.8zm-28.6 72.4l-5.4-9.3-.8 5zm-6.2-4.3l-.6 4.1 27.3 16.7.4-2.3-20.9-14.2zm10.7-7.7l-7.5-12.8-2.4 15.5 5.4 9.3 20.9 14.2 2.1-13.2zm10.4-67.3l-9.9 3.4-8 51.1 7.5 12.8 18.5 13 9.8-62.8-4.3-10.6zm13.7 6.9h-.1l4.3 10.6 2.2-13.9zm6.4-3.3v-.1l-6.4 3.4z"/><path class="st6" d="M1063 76.3l16.1-75.9h-20.7l-7.3 46.4zm-36.6 128.5l-38.6 246.6 4.6 6.9 20.1 1.4.2-.3 1.7 6v.1l.1.2 33.2-212.2-5-38.8zm30.8-100.7l5.8-27.8-11.9-29.5-10.2 65.7zm-30.8 100.7l16.3 9.9-.2-1.6-15.7-10.6zm22.4 12.6v1.1-1.1zm-20-28l-2 13.1 15.7 10.6-2.1-15.6zm20 27.8v.2-.1zm0 .2zm-2.6-37.6zm-.1 0h.1l-.1-.1zm.1 0h-.1l-6.9 9.3 8.5-40.2-9.1-22.2-9.8 62.7 11.6 8.1-1.1-8.4zm-5.3-67.3l-2.3 14.2 9.1 22.2 9.5-44.8zm16.3-8.4l-16.3 8.4 16.3-8.4z"/><path class="st3" d="M958.1 483.2l.6-37.8 24.2-155-7.9 16.4-22.5 143.5-1 18.9zm31.3-268.5l1.2 6.1 1.7 9.7 6.7-42.4-4.9-3zm24.6-122.6l-3.9-9.6v.2l3.8 9.6zm-23.4 128.7l-1.2-6.1-7.5 48.2 1 19.9 2-4.8 6.9-44.2zm1.2 13l.5-3.3-1.7-9.7zm-6.9 44.2l-2 4.8-6.5 15.2-1.4 8.8 7.9-16.4zm-8.5 20l6.5-15.2-1-19.9zm37.5-205.7l-3.8-9.6-5 31.7 5.7-2zm.1-.2l14.3-91.7h-5.3l-12.9 82.1zm-19.2 88.6l4.8 3.3.8-5-4.2-7.4zm0 0l-.7 4.4 4.9 3 .6-4.1zm1.4-9.1l4.2 7.4 2.4-15.5-4.2-7.2zm6.6-8.1l8-51.1-5.7 2-6.5 41.9z"/><path class="st5" d="M951.5 469.2l1-18.9-3 21 25.7 46.6-17.1-34.7z"/><path class="st8" d="M979.7 513.2l-16-34.2.2-32.5-5.2-1.1-.6 37.8 17.1 34.7 6.9 5.4 1.4-8.5z"/><path class="st2" d="M963.9 446.5l-.2 32.5 16 34.2 3.8 1.6 8.8-56.5-4.5-6.9z"/><path class="st6" d="M1012.5 459.7l-20.1-1.4h-.1l-10.2 65 1.1-2.3-.6 1zm0 0l-20.1-1.4z"/><path class="st5" d="M1012.7 459.4l-29.5 61.4 31.2-55.4-1.6-5.9zm0 0l-.2.3h.2l.1.1 1.6 5.7v-.1zm-.2.3l-29.9 62.3.6-1 29.5-61.3zm.2 0z"/><path class="st6" d="M1150.6.4h-18.9l-38.2 181 43.2 7.2 9.4 1.5 30.7-146.3-.4-.6-.4.9z"/><path class="st4" d="M1072 98.5l3.5 8.6-4.2-4-.1.1 4.1 3.9 3.8 82.8 2.1.7 12.2-9.2 38.2-181h-4.4l-1.8 1.9-.8-1.9h-37.3zm3.5 8.6l-3.5-8.6-.7 4.6zm-16.8 76.5l3.6 1.1-2.8-6.8zm.8-5.7l2.8 6.8 14.3 4.4-7.6-71.2zm9.5-60l7.6 71.2-7.6-71.2v-.3.3l7.6 71.2 2.5.8-3.8-82.8-4.1-3.9-2.2 14.4zm7.6 71.2l-7.6-71.2zm-9.6-90v.2-.1l4.2 4 .1-.1-4.2-4zm0 0v.1zm5-.6l15.3-98.1h-8.2l-16.1 75.9zm-5.1.6h.2l4.2 4 .7-4.6-9-22.2-5.8 27.8zm-20.9 80.7h.1v-.1l.1.1 12.5 3.8.8-5.7-11.8-29-8.5 40.2 6.9-9.3h-.1zm20.9-80.7l-9.7 5-9.5 44.8 11.8 29 9.5-60zm0 0l-9.7 5zm2.1 18.5l2.2-14.4-4.2-4zm0 .3v-.3l-2-18.4v-.1h-.1zm-2-18.8h-.1z"/><path class="st3" d="M1146.1 190.1l-24.1 66.9 20.4-20.2 10.7-34 41.9-198.4-18 38.5z"/><path class="st5" d="M1122 257l-51.6 49.9 73.9-65.2 8.8-38.9-10.7 34z"/><path class="st8" d="M1146.1 190.1l-9.4-1.5-21.3 57.3-49.4 49.8-7.4.2-3.4 15.8 15.2-4.8 51.6-49.9z"/><path class="st2" d="M1081.3 190.6l-1.8 8.5 1.3 29.3-2.5-23.6 2.7 25.8-8.1-1-14.3 66.3 7.4-.2 49.4-49.8 21.3-57.3-43.2-7.2zm-5.7 26.6l-2.7 12.4 8.1 1zm5.4 13.4l-2.7-25.8-2.7 12.4zm-5.4-13.4l5.4 13.4-5.4-13.4zm5.2 11.2l-1.3-29.3-1.2 5.7z"/><path class="st6" d="M1076.6 189.4l1.7 15.5zm4.5 1.2h-.1l-2-.7.4 9.2 1.9-8.5h-.1zm-1.9-.6l-.1-.1zm-6.3 39.6l-7.6-1.1-12.5-7.6-2.6 17 5 73.8 3.4-15.8zm-20.1-8.7l12.5 7.6-12.4-8.3zm22.1-5.2l-7.3 1-12.7-9-2 12.5 12.4 8.3 7.6 1.1 2.7-12.4zm-16.2-32.1l-3.8 24.1 12.7 9 7.3-1-12.6-31zm17.9 5.6v-.1l-14.3-4.4 12.6 31 .7 1.5 2.7-12.4-1.7-15.6zm-1.7 26.5l.7 1.5zm4.1-25.8l-2.4-.7 1.7 15.6 1.2-5.7-.4-9.2zm.1 0h-.2.1zm-30.2 28.6l1.3 19.3-1.3-19.3h-.1l1.4 19.4 2.6-17zm1.3 19.3v-.1l-1.3-19.3zm-1.4-19.4l.1.1 3.9 2.4.1-.7-4.1-2.8v1.1h.1zm-.8-15.5l.2 2.4.6 12v.1l4.1 2.8 2-12.5zm-.2-.2l1 14.5-.6-11.9-.2-2.4zm.4 2.6l-.2-2.4zm.6 12l-.6-12 .6 11.9zm-2.6-37.5l10.1 3.1 2.3.7h-.1l-2.2-.7-10.1-3.1 1.6 22.9.2.2v-.2.2l6.9 4.8 3.8-24.1zm1.8 22.9v.2-.2zm31.2-12.7l2 .6zm-.2-.1l2 .7-1.9-.6zm0 0h.1zm-20.3-6.3l3.6 1.1zm18.3 5.5l-14.5-4.4h-.1l14.2 4.4h.2zm-14.7-4.4zm17.1 5.2l-2.4-.7zm-2.8-.8v.1zm2.5.8l-2.1-.7 2 .7zm-33-10.1h.1zm-.1 0h.1zm10.2 3.1l-10.2-3.1zm2.4.7l-2.3-.7 2.2.7zm19.7 21.2zm0 0l1.2-5.7-1.2 5.7z"/><path class="st5" d="M1055 309.5l-4.8-71.6-2.5 15.6zm-7.3-56l2.5-15.6-1.4-19.4-6.1-3.8zm1.3-36.1h-.2l-6.3-4.3.2 1.6 6.3 3.8v-1.1zm-.2 0zm-1-14.7l-7.4-5.2 2.1 15.6 6.3 4.3v-.1zm1 14.6v.1zm-2.6-37.5zm0 0l-6.9 9.3 1.1 8.4 7.4 5.2-1.6-22.9zm0 0zm0 0z"/><path class="st6" d="M1127.2.4h-2.6l.8 1.9z"/><path class="st9" d="M1151.5.4l24.9 42.8 17.6-37.6-4-5.2zm-.9 0l25.4 43.7.4-.9-24.9-42.8z"/><path class="st7" d="M1194 5.6l-1-5.2h-3z"/></g><path class="st0" d="M186.1 290.5l11.1-3.8 18.2 20.3-4.1 36.1 5.3 28.8 9.8 55.1 16.2 37.2 11 38.9-.1 48.6-65.6-9.7-21.7-28.5-5.1-69.4-3.3-37.3zm4.5-1.5l6.6-2.3 18.2 20.3 5.9-18-7.2-34-21.2 14.4zm7.2-39.9l15.4-13 2.7 14-1.8 4.9-21.2 14.4zm4.5-25.4l-4.5 25.4 12.6-10.2 4.1-4-.1-17.4z"/><path class="st10" d="M218.8 277.1l2.5 11.9-5.9 18-4 34.5 15 85.5 16.2 37.2 11 38.9-.1 48.6-25.2-44.9 1.9-35.8-20.9-38.6-5-81.1-9.6 3.9 7.5-14.1-7.5-12 12.7 5.6 4.3-27.7 5.3-16.4-.2-12.6zm-46.3 69.4l-14.7 60.3 8.4 106.7 21.7 28.5-17-31.2-5.7-112.7zm3.3-14.5l10.2-41.4 4.5-1.6 2.4-19.6 4.8-20.3 4.6-25.4 12.1-6.2-8.7 7.5-3.5 12.7 5.2 5.7h-5.6l3.9 3.6-4.9 2.6-3 10.3 7.9-5.2-7.9 14.6-2.7 14.2 14.2 9.8-3.6 3-11-4.2-6.8 4.5z"/><path class="st11" d="M214.1 254.8l1.8-4.8-.9-4.3v4.2l-5.3-4.2zm.4-19.9l-2.5-1.6 1.2 2.8z"/><path class="st12" d="M214.5 217.5l-12.2 6.2-4.5 25.4-4.9 20.3-2.3 19.6-4.6 1.6-28.2 116.2 1.7 22.4 2-23.7 6.4-49.5 10.7-44.2 9.6-18.1 4.1-2.6 9.1.3-8-7.9.7-14.1 3.7-5.1-1.9-1 3.3-14.2 3-2.4-2-2.7.5-1.6h3l-2.4-3.9 1.7-13.7zm5 63.2l1.8 8.3-3 9.3 1.5-8.8zm-7.6 57l-.5 3.8 15 85.5 16.2 37.2 11 38.9-.1 48.6-2.3-48.6-11.1-37.2-18.2-35.2-11.8-80.5-8.6-2.1 5.9-5.7-5.9-5.7z"/><path class="st2" d="M104.5 413.5l22.2 6.5 3.7 6.8-12.8 52.6-3.4-1.7-12.4-33.6z"/><path class="st1" d="M130.5 426.9l-3.8-6.7 102.3-419.8-102.3 419.7-22.2-6.5-2.7 30.6 12.4 33.5 3.4 1.7-1.9 7.9 14.7-60.4z"/><path class="st5" d="M91 433.9l2.5-17.7-4.5 19.6 20.5 46-13.3-34.2z"/><path class="st8" d="M114.2 477.7l-12.4-33.6 2.7-30.6-4.8-1.4-3.5 35.5 13.3 34.2 6.2 5.5 1.9-7.9z"/><path class="st6" d="M130.5 426.9l-.1-.1-14.7 60.5 33.8-57.4-19-3z"/><path class="st5" d="M116.2 486.6l34.5-50.6-1.2-5.6z"/><path class="st7" d="M99.7 412.3l4.8 1.3 22.2 6.6 102.3-419.8h-28.9zm0-.2l4.8 1.4z"/><path class="st4" d="M150.8 435.8l106.1-435.4h-27.9l-102.3 419.8 3.8 6.7 19 3 .1.1zm-1.3-5.9v-.1zm-19-3l19 3v-.1zm19 3v-.1z"/><path class="st3" d="M96.2 447.6l3.5-35.3 100.4-411.9h-5.2l-101.4 416-2.5 17.6z"/><path class="st0" d="M144 208.4h-8.5l-6.6 10.2 9.3 12.1 6.8-9.2zm-18.7 24.1l-6.5 8.3 5 10.3 12.1 3.9 7-11.9-9.1-10.3zm6.9 25l-7.2-1.5-11.4 1.1-3.4 11.6 18.4 16.3 9.4-7.2-7.7-12.6zm-.2 36.5l-19.7-10.5-6.5 12.2 1.3 10.9 10.3 11.8 3.3-13.7-12.1-7.5 14.6 8.9 7.5-4.7z"/><path class="st13" d="M132.2 257.5l-7.2-1.5 5.3 9.2zm-11.5 47.2l-12.1-7.5-1.5 9.4 10.3 11.8z"/><path class="st11" d="M137.3 236.7l3.5 6.5-6.4 11.3 1.5.5 7-11.9zm6.7-28.5l1 13.2-6.8 9.3-1.2-1.7 1 .1 5.8-8.1zm-14.1 56.4l8.1 13.2-9.4 7.2-2.5-2.3 2.8.8 6.4-5.7zm-5.8 25.2l7.9 4.2-1.3 7.4-7.5 4.7-1.8-1 2.7-.5 5.7-3.6.7-6.2zm-13.9 8.5l10.5 6.4-3.3 13.7z"/><path class="st12" d="M110.2 298.3l10.5 6.4-3.3 13.7 1.4-13.1z"/><path class="st14" d="M124.1 289.8l-10.5-1.1-7.8 7 6.5-12.2 11.8 6.3M110.2 269.4l3.4-12.3 11.4-1.1 4.9 8.6-9.2-4.3-5.8-.6zm23.6-36.6l-7.1 2.3-4 6.3-1.3 4.8-2.6-5.4 6.5-8.3 8.5.3m10.3-24.3l-7.1 1.9-8.1 8.2 6.6-10.2h8.5"/><path class="st15" d="M105.8 295.7l6.5-12.2 11.8 6.3-11.1-3.1zm7.8-38.6l11.4-1.1 4.9 8.6-5.8-5.9zm20.2-24.3l-8.5-.3-6.5 8.3 1.9 4 .7-4.1 4.9-6.7zm10.2-24.4h-8.5l-2.6 4 4.1-2.9z"/><path class="st10" d="M253.5 546.2l14.3 6.4 11.2 18.8h8l-14.7-21.5-18.8-12.5z"/><path class="st12" d="M253.5 537.4l18.8 12.5 14.7 21.5-15.6-19.7z"/><path class="st10" d="M181.3 533.3l2.4 29.5 7.8 9 3.2-.4-8.6-10z"/></svg>