<?xml version="1.0" encoding="utf-8"?>
<!-- Generator: Adobe Illustrator 18.1.1, SVG Export Plug-In . SVG Version: 6.00 Build 0)  -->
<svg version="1.1" id="Layer_1" xmlns="http://www.w3.org/2000/svg" xmlns:xlink="http://www.w3.org/1999/xlink" x="0px" y="0px"
	 viewBox="0 0 260 160" style="enable-background:new 0 0 260 160;" xml:space="preserve">
<style type="text/css">
	.st0{fill:#FFFFFF;}
</style>
<g>
	<path class="st0" d="M82.9,121.3l6.1-0.4c3.9,0,5.9,1.3,5.9,3.8c0,1.6-0.7,2.7-2,3.4c-1.4,0.7-2.9,1.1-4.6,1.1H73.8
		c-1.3,0-2.4-0.5-3.3-1.4c-0.9-0.9-1.4-2.1-1.5-3.5s0-3.2,0.3-5.3c0.3-2.1,0.4-3.8,0.4-5l-0.8-19.7l1.1-45l-0.8-13
		c0-7.3,2.2-10.9,6.5-10.9c1.2,0,2.3,0.4,3.4,1.1c0.4,0.1,1.4,0.1,2.9,0.3c1.5,0.1,2.9,0.3,4,0.5c1.2,0.2,2.4,0.5,3.8,0.8
		c2.9,0.8,4.4,2.2,4.4,4.1c0,2.1-1.5,3.7-4.5,4.8c-4.7-1.6-8.6-2.6-11.7-2.9c0.2,2.2,0.2,4.4,0.2,6.6l-0.7,22.1
		c0,0.1,0.2,0.9,0.5,2.4l5.5-0.2c5,0,7.4,1.4,7.4,4.2c0,1.5-0.4,2.8-1.3,4c-0.9,1.2-2.1,1.7-3.7,1.7c-1.6,0-3-0.5-4.2-1.4h-3.9
		c0.3,3.9,0.5,7.6,0.5,11.1l-0.7,27.9C77.4,118.4,79.2,121.3,82.9,121.3z"/>
	<path class="st0" d="M116,66.3l0.9,39.9v17.5c0,1.4-0.4,2.5-1.1,3.4c-0.7,0.9-1.7,1.4-2.9,1.4c-3.4,0-5-3.1-5-9.4l-0.3-54.3
		l0.9-28.7c0-6.9,1.9-10.4,5.6-10.4c2.3,0,3.9,1.7,4.9,5.2c1.4,6.6,3.8,16.1,7.3,28.6c3.5,12.4,5.9,21.9,7.2,28.3
		c1,3.2,2.2,7.8,3.7,14c1.5,6.2,2.7,10.8,3.5,14c0.4-22.3,0.6-49.3,0.6-81l-0.2-4.1c0-1.4,0.3-2.5,0.8-3.3s1.4-1.2,2.7-1.2
		c1.3,0,2.3,0.3,3.1,0.9c1.6,1.2,2.4,2.9,2.4,5.1c0,14.1-0.4,32.2-1.2,54.3c-0.8,22.1-2,35.9-3.6,41.5c-0.2,0-0.6,0.2-1.3,0.4
		c-0.7,0.2-1.1,0.4-1.4,0.4c-2.9,0.7-4.7,0.5-5.4-0.4c-0.8-0.9-1.3-2.1-1.6-3.6c-0.3-1.5-0.7-3-1.1-4.4c-0.4-1.4-2-8.3-4.8-20.5
		c-7.4-32.4-11.9-51.2-13.6-56.4V66.3z"/>
	<path class="st0" d="M199.4,66.3l-0.3,7.7v8.4c0,10.2-0.5,17.1-1.4,20.6c-0.9,3.6-1.8,6.5-2.7,8.8c-0.9,2.3-2,4.4-3.3,6.2
		c-3,4.1-6.8,7.4-11.4,9.9h-10.5c-2.6,0-3.9-6.7-3.9-20.2l0.5-48.5c0-9-0.2-17.4-0.5-25.3c-0.9-1-1.3-2.2-1.3-3.6
		c0-1.4,0.6-2.6,1.7-3.6c1.2-1,2.5-1.5,4.2-1.5c1.6,0,3,0.9,4.2,2.7c0.8,0.3,1.9,0.6,3.3,0.8c1.5,0.3,2.6,0.6,3.3,0.9
		c5.7,2.7,10.2,7.4,13.4,14.1C197.8,50.6,199.4,58,199.4,66.3z M174.2,48.4l1.7,68v3.7h2.8c5.4-6.5,8.8-12.5,10.4-17.9
		c1.5-5.1,2.2-12.1,2.2-21.2c0-31-5.3-47.2-15.9-48.6C174.6,36.5,174.2,41.8,174.2,48.4z"/>
</g>
<g>
</g>
<g>
</g>
<g>
</g>
<g>
</g>
<g>
</g>
<g>
</g>
<g>
</g>
<g>
</g>
<g>
</g>
<g>
</g>
<g>
</g>
<g>
</g>
<g>
</g>
<g>
</g>
<g>
</g>
</svg>
