<svg xmlns="http://www.w3.org/2000/svg" viewBox="0 0 260 160" enable-background="new 0 0 260 160"><style type="text/css">.st0{fill:#FFFFFF;}</style><path class="st0" d="M82.9 121.3l6.1-.4c3.9 0 5.9 1.3 5.9 3.8 0 1.6-.7 2.7-2 3.4-1.4.7-2.9 1.1-4.6 1.1h-14.5c-1.3 0-2.4-.5-3.3-1.4-.9-.9-1.4-2.1-1.5-3.5s0-3.2.3-5.3c.3-2.1.4-3.8.4-5l-.8-19.7 1.1-45-.8-13c0-7.3 2.2-10.9 6.5-10.9 1.2 0 2.3.4 3.4 1.1.4.1 1.4.1 2.9.3 1.5.1 2.9.3 4 .5 1.2.2 2.4.5 3.8.8 2.9.8 4.4 2.2 4.4 4.1 0 2.1-1.5 3.7-4.5 4.8-4.7-1.6-8.6-2.6-11.7-2.9.2 2.2.2 4.4.2 6.6l-.7 22.1c0 .1.2.9.5 2.4l5.5-.2c5 0 7.4 1.4 7.4 4.2 0 1.5-.4 2.8-1.3 4-.9 1.2-2.1 1.7-3.7 1.7s-3-.5-4.2-1.4h-3.9c.3 3.9.5 7.6.5 11.1l-.7 27.9c-.2 5.9 1.6 8.8 5.3 8.8zM116 66.3l.9 39.9v17.5c0 1.4-.4 2.5-1.1 3.4-.7.9-1.7 1.4-2.9 1.4-3.4 0-5-3.1-5-9.4l-.3-54.3.9-28.7c0-6.9 1.9-10.4 5.6-10.4 2.3 0 3.9 1.7 4.9 5.2 1.4 6.6 3.8 16.1 7.3 28.6 3.5 12.4 5.9 21.9 7.2 28.3 1 3.2 2.2 7.8 3.7 14s2.7 10.8 3.5 14c.4-22.3.6-49.3.6-81l-.2-4.1c0-1.4.3-2.5.8-3.3s1.4-1.2 2.7-1.2c1.3 0 2.3.3 3.1.9 1.6 1.2 2.4 2.9 2.4 5.1 0 14.1-.4 32.2-1.2 54.3-.8 22.1-2 35.9-3.6 41.5-.2 0-.6.2-1.3.4-.7.2-1.1.4-1.4.4-2.9.7-4.7.5-5.4-.4-.8-.9-1.3-2.1-1.6-3.6-.3-1.5-.7-3-1.1-4.4-.4-1.4-2-8.3-4.8-20.5-7.4-32.4-11.9-51.2-13.6-56.4v22.8zM199.4 66.3l-.3 7.7v8.4c0 10.2-.5 17.1-1.4 20.6-.9 3.6-1.8 6.5-2.7 8.8-.9 2.3-2 4.4-3.3 6.2-3 4.1-6.8 7.4-11.4 9.9h-10.5c-2.6 0-3.9-6.7-3.9-20.2l.5-48.5c0-9-.2-17.4-.5-25.3-.9-1-1.3-2.2-1.3-3.6s.6-2.6 1.7-3.6c1.2-1 2.5-1.5 4.2-1.5 1.6 0 3 .9 4.2 2.7.8.3 1.9.6 3.3.8 1.5.3 2.6.6 3.3.9 5.7 2.7 10.2 7.4 13.4 14.1 3.1 6.9 4.7 14.3 4.7 22.6zm-25.2-17.9l1.7 68v3.7h2.8c5.4-6.5 8.8-12.5 10.4-17.9 1.5-5.1 2.2-12.1 2.2-21.2 0-31-5.3-47.2-15.9-48.6-.8 4.1-1.2 9.4-1.2 16z"/></svg>