<?xml version="1.0" encoding="utf-8"?>
<!-- Generator: Adobe Illustrator 18.1.1, SVG Export Plug-In . SVG Version: 6.00 Build 0)  -->
<svg version="1.1" id="Layer_1" xmlns="http://www.w3.org/2000/svg" xmlns:xlink="http://www.w3.org/1999/xlink" x="0px" y="0px"
	 viewBox="0 0 608 108" style="enable-background:new 0 0 608 108;" xml:space="preserve">
<style type="text/css">
	.st0{fill:#FFFFFF;}
</style>
<g>
	<path class="st0" d="M23.5,33.5l-0.2,11c0,5.2,0.4,9.6,1.3,13.1v0c-0.4,1.8-0.6,4-0.6,6.5l0.7,15.3c0,2.8-0.8,4.2-2.5,4.2
		c-0.9,0-1.6-0.4-2.1-1.3c-0.4-0.9-0.7-1.9-0.7-3l0.7-13.6c0-2.9-0.2-7.4-0.6-13.3c-0.4-5.9-0.6-10.4-0.6-13.3l0.1-7.5
		c0-4.1-0.3-6.7-0.8-8l-4.6,0.5c-0.7,0-1.4-0.2-1.9-0.6c-0.6-0.4-0.9-1-0.9-1.7c0-0.7,0.7-1.3,2-1.8c1.4-0.5,3-0.8,5-1.1
		c3.4-0.4,6.3-0.6,8.6-0.6c0.7,0,1.3,0.2,1.9,0.7c0.6,0.5,0.9,1,0.9,1.7c0,0.7-0.3,1.2-0.8,1.6c-0.5,0.4-1.1,0.6-1.8,0.6l-3-0.2
		c-0.4,0-0.7,0-0.9,0C23.3,26.3,23.5,29.8,23.5,33.5z"/>
	<path class="st0" d="M40.8,31.7L40.5,53c1,0.3,2.5,0.4,4.5,0.4h3.3v-1.8c0-2.6-0.2-6.5-0.6-11.8c-0.4-5.2-0.6-9.2-0.6-11.8
		c0-0.6,0.2-1.2,0.7-1.6c0.5-0.4,0.9-0.6,1.3-0.6c0.4,0,0.7,0,1-0.1c0.3,0,0.5-0.1,0.7,0c0.2,0,0.4,0.1,0.6,0.2
		c0.4,0.2,0.6,0.8,0.6,1.9c0,6,0.3,14.9,0.8,26.8c0.5,11.9,0.8,20.9,0.8,26.8c0,0.5-0.2,0.9-0.6,1.2c-0.4,0.3-1,0.4-1.6,0.4
		s-1.3-0.2-1.9-0.5c-0.6-0.3-0.9-0.8-0.9-1.4C48.2,75.5,48,68.5,48,60.2v-0.3l0-2.5l0-0.8v-0.1c-0.4,0.1-1.1,0.2-1.9,0.2l-5.3-0.8
		l-0.2,9.4v0.4l0.7,14c0,0.8-0.2,1.6-0.6,2.2c-0.4,0.6-1,0.9-1.8,0.9c-1.1,0-1.9-1-2.4-3.1c-0.4-2.1-0.6-4.9-0.6-8.5l0.2-13l0-4.9
		l0.2-5l-0.6-19.3c0-0.7,0.2-1.3,0.7-1.8c0.5-0.5,1-0.8,1.7-0.8C39.9,26.6,40.8,28.3,40.8,31.7z"/>
	<path class="st0" d="M69.9,79.8l3.4-0.2c2.2,0,3.3,0.7,3.3,2.1c0,0.9-0.4,1.5-1.1,1.9c-0.8,0.4-1.6,0.6-2.5,0.6h-8
		c-0.7,0-1.3-0.3-1.9-0.8s-0.8-1.1-0.8-1.9c0-0.8,0-1.8,0.2-2.9c0.2-1.2,0.2-2.1,0.2-2.8l-0.4-10.9l0.6-24.9l-0.5-7.2
		c0-4,1.2-6,3.6-6c0.7,0,1.3,0.2,1.9,0.6c0.2,0,0.8,0.1,1.6,0.1c0.8,0.1,1.6,0.2,2.2,0.3c0.6,0.1,1.3,0.3,2.1,0.5
		c1.6,0.4,2.4,1.2,2.4,2.3c0,1.2-0.8,2.1-2.5,2.7c-2.6-0.9-4.8-1.4-6.5-1.6c0.1,1.2,0.1,2.4,0.1,3.7l-0.4,12.3
		c0,0.1,0.1,0.5,0.2,1.3l3-0.1c2.8,0,4.1,0.8,4.1,2.3c0,0.8-0.2,1.6-0.7,2.2c-0.5,0.6-1.2,1-2.1,1s-1.7-0.3-2.3-0.8h-2.2
		c0.2,2.2,0.2,4.2,0.2,6.2L66.8,75C66.8,78.2,67.8,79.8,69.9,79.8z"/>
	<path class="st0" d="M87.8,57.8c-0.4,1.6-0.6,3-0.6,4.4c0,1.3,0.2,4.2,0.5,8.6c0.3,4.4,0.5,7.2,0.5,8.5c0,1.3-0.2,2.3-0.7,2.9
		c-0.5,0.7-1,1-1.6,1c-0.8,0-1.4-0.6-1.6-1.7c0.1-2.1,0.1-4.7,0.1-7.8c0-3.1-0.2-9.8-0.7-20.2C83.2,43.1,83,35.3,83,30.2
		c0-2.7,0.9-4,2.8-4c3,0,5.5,0.8,7.5,2.3c2,1.6,3,3.8,3,6.7c0,3.9-0.3,6.9-0.9,9.1c-0.6,2.2-1.8,4.9-3.5,8.1
		c0.3,1.4,0.8,4.1,1.6,8.2c1.6,8.8,3.5,15.2,5.5,19.1c0.6,1.1,0.9,2,0.9,2.6s-0.2,1.2-0.5,1.6c-0.3,0.4-0.8,0.6-1.4,0.6
		c-1.9,0-3.6-3.1-5.1-9.3c-0.7-2.7-1.3-5.4-1.8-8.2c-1.5-7.5-2.5-11.8-2.9-12.7C88.3,55,88.1,56.2,87.8,57.8z M87.6,29.3l-0.3,1.2
		c0,2.3,0.1,5.7,0.2,10.1c0.1,4.4,0.2,7.6,0.2,9.6c1.3-0.7,2.4-2.5,3.2-5.4c0.8-2.9,1.2-5.2,1.2-6.7s0-2.7-0.1-3.4
		c-0.1-0.7-0.3-1.5-0.5-2.4C90.9,30.3,89.7,29.4,87.6,29.3z"/>
	<path class="st0" d="M114.6,79.8l3.4-0.2c2.2,0,3.3,0.7,3.3,2.1c0,0.9-0.4,1.5-1.1,1.9c-0.8,0.4-1.6,0.6-2.5,0.6h-8
		c-0.7,0-1.3-0.3-1.9-0.8s-0.8-1.1-0.8-1.9c0-0.8,0-1.8,0.2-2.9c0.2-1.2,0.2-2.1,0.2-2.8l-0.4-10.9l0.6-24.9l-0.5-7.2
		c0-4,1.2-6,3.6-6c0.7,0,1.3,0.2,1.9,0.6c0.2,0,0.8,0.1,1.6,0.1c0.8,0.1,1.6,0.2,2.2,0.3c0.6,0.1,1.3,0.3,2.1,0.5
		c1.6,0.4,2.4,1.2,2.4,2.3c0,1.2-0.8,2.1-2.5,2.7c-2.6-0.9-4.8-1.4-6.5-1.6c0.1,1.2,0.1,2.4,0.1,3.7l-0.4,12.3
		c0,0.1,0.1,0.5,0.2,1.3l3-0.1c2.8,0,4.1,0.8,4.1,2.3c0,0.8-0.2,1.6-0.7,2.2c-0.5,0.6-1.2,1-2.1,1s-1.7-0.3-2.3-0.8h-2.2
		c0.2,2.2,0.2,4.2,0.2,6.2L111.6,75C111.6,78.2,112.6,79.8,114.6,79.8z"/>
	<path class="st0" d="M160.1,69.2l-0.5,1.7c0,0.7,0.2,2.4,0.8,5.1c0.5,2.7,0.8,4.5,0.8,5.3v0.1c0,1.3-0.4,2.1-1.3,2.4
		c-1.2,0-2.1-0.2-2.8-0.6s-1-1.4-1-2.9c0-1.6-0.4-4.8-1.3-9.7l-2.6-0.3h-2.8c-0.6-0.3-1.8-0.4-3.4-0.4c0,0.1,0,0.4-0.1,1.1
		c-0.1,0.7-0.1,1.2-0.2,1.6c0,0.4-0.1,1-0.2,1.9c-0.1,0.8-0.2,1.5-0.3,2.1c-0.1,0.6-0.2,1.2-0.4,2c-0.2,0.8-0.4,1.4-0.6,1.9
		c-0.2,0.5-0.4,1-0.7,1.5c-0.5,1-1.1,1.5-1.8,1.5s-1.4-0.2-1.9-0.6c-0.6-0.4-0.9-1-0.9-1.6c1.5-5.8,2.8-11.8,3.9-18.1
		c1.1-6.3,1.7-10.1,1.9-11.2c0.2-1.2,0.7-3.5,1.5-6.8c0.8-3.4,1.2-5.6,1.4-6.8c0.2-1.1,0.3-2.6,0.4-4.4c0.2-3.9,0.8-6.5,1.5-7.6h2.9
		c1.9,0,2.9,0.6,2.9,1.8c0,11,1.1,21.9,3.2,32.7c0.1,0.6,0.3,1.5,0.6,2.7C159.7,65.8,160.1,67.8,160.1,69.2z M154.2,67.4
		c-0.2-0.8-0.2-2.2-0.2-4c0-1.9-0.1-4.1-0.4-6.8c-0.2-2.7-0.6-5.7-1-9.2c-0.4-3.5-0.8-6-0.9-7.6c-0.3,1.6-1,4.3-2,8.1
		c-2,7.9-3,13.9-3,18.2C147.7,66.7,150.2,67.1,154.2,67.4z"/>
	<path class="st0" d="M172.7,57.8c-0.4,1.6-0.6,3-0.6,4.4c0,1.3,0.2,4.2,0.5,8.6c0.3,4.4,0.5,7.2,0.5,8.5c0,1.3-0.2,2.3-0.7,2.9
		c-0.5,0.7-1,1-1.6,1c-0.8,0-1.4-0.6-1.6-1.7c0.1-2.1,0.1-4.7,0.1-7.8c0-3.1-0.2-9.8-0.7-20.2c-0.5-10.4-0.7-18.2-0.7-23.3
		c0-2.7,0.9-4,2.8-4c3,0,5.5,0.8,7.5,2.3c2,1.6,3,3.8,3,6.7c0,3.9-0.3,6.9-0.9,9.1c-0.6,2.2-1.8,4.9-3.5,8.1
		c0.3,1.4,0.8,4.1,1.6,8.2c1.6,8.8,3.5,15.2,5.5,19.1c0.6,1.1,0.9,2,0.9,2.6s-0.2,1.2-0.5,1.6c-0.3,0.4-0.8,0.6-1.4,0.6
		c-1.9,0-3.6-3.1-5.1-9.3c-0.7-2.7-1.3-5.4-1.8-8.2c-1.5-7.5-2.5-11.8-2.9-12.7C173.3,55,173.1,56.2,172.7,57.8z M172.6,29.3
		l-0.3,1.2c0,2.3,0.1,5.7,0.2,10.1c0.1,4.4,0.2,7.6,0.2,9.6c1.3-0.7,2.4-2.5,3.2-5.4c0.8-2.9,1.2-5.2,1.2-6.7s0-2.7-0.1-3.4
		c-0.1-0.7-0.3-1.5-0.5-2.4C175.9,30.3,174.6,29.4,172.6,29.3z"/>
	<path class="st0" d="M199.6,79.8l3.4-0.2c2.2,0,3.3,0.7,3.3,2.1c0,0.9-0.4,1.5-1.1,1.9c-0.8,0.4-1.6,0.6-2.5,0.6h-8
		c-0.7,0-1.3-0.3-1.9-0.8s-0.8-1.1-0.8-1.9c0-0.8,0-1.8,0.2-2.9c0.2-1.2,0.2-2.1,0.2-2.8l-0.4-10.9l0.6-24.9l-0.5-7.2
		c0-4,1.2-6,3.6-6c0.7,0,1.3,0.2,1.9,0.6c0.2,0,0.8,0.1,1.6,0.1c0.8,0.1,1.6,0.2,2.2,0.3c0.6,0.1,1.3,0.3,2.1,0.5
		c1.6,0.4,2.4,1.2,2.4,2.3c0,1.2-0.8,2.1-2.5,2.7c-2.6-0.9-4.8-1.4-6.5-1.6c0.1,1.2,0.1,2.4,0.1,3.7l-0.4,12.3
		c0,0.1,0.1,0.5,0.2,1.3l3-0.1c2.8,0,4.1,0.8,4.1,2.3c0,0.8-0.2,1.6-0.7,2.2c-0.5,0.6-1.2,1-2.1,1s-1.7-0.3-2.3-0.8h-2.2
		c0.2,2.2,0.2,4.2,0.2,6.2L196.5,75C196.5,78.2,197.5,79.8,199.6,79.8z"/>
	<path class="st0" d="M230,49.4l0.5,22.1v9.7c0,0.8-0.2,1.4-0.6,1.9c-0.4,0.5-0.9,0.8-1.6,0.8c-1.9,0-2.8-1.7-2.8-5.2l-0.2-30.1
		l0.5-15.9c0-3.8,1-5.8,3.1-5.8c1.3,0,2.2,1,2.7,2.9c0.8,3.7,2.1,8.9,4.1,15.8c1.9,6.9,3.3,12.1,4,15.7c0.5,1.8,1.2,4.3,2,7.8
		c0.8,3.4,1.5,6,2,7.7c0.2-12.3,0.3-27.3,0.3-44.8l-0.1-2.3c0-0.8,0.1-1.4,0.4-1.9c0.3-0.5,0.8-0.7,1.5-0.7c0.7,0,1.3,0.2,1.7,0.5
		c0.9,0.7,1.3,1.6,1.3,2.8c0,7.8-0.2,17.8-0.7,30.1c-0.4,12.3-1.1,19.9-2,23c-0.1,0-0.3,0.1-0.7,0.2c-0.4,0.1-0.6,0.2-0.8,0.2
		c-1.6,0.4-2.6,0.3-3-0.2c-0.4-0.5-0.7-1.2-0.9-2c-0.2-0.8-0.4-1.6-0.6-2.4c-0.2-0.8-1.1-4.6-2.6-11.4c-4.1-17.9-6.6-28.3-7.5-31.3
		V49.4z"/>
	<path class="st0" d="M277,60.1c0,16.4-3.3,24.5-10,24.5c-6.2,0-9.6-7.8-10.4-23.3c-0.1-1.5-0.1-2.9-0.1-4.4l0-5.2v-1.7
		c0-12,1.8-19.5,5.3-22.3c0.9-0.7,1.8-1.1,2.9-1.1c0.8,0.3,1.8,0.5,3,0.8c1.2,0.2,2,0.5,2.6,0.7c1,0.5,2.1,1.7,3.3,3.7
		c1.2,2,2.1,4.6,2.6,8c0.6,3.3,0.9,6.6,0.9,10V60.1z M261.1,40l0.1,5l0,8.2c0,0.7,0,1.5,0,2.5c0,0.9,0.1,2.2,0.1,3.7
		c0,1.5,0.1,3.1,0.2,4.6c0.1,1.5,0.3,3.1,0.4,4.8c0.2,1.7,0.4,3.2,0.7,4.7c0.3,1.4,0.6,2.7,0.9,3.9c0.8,2.5,1.7,3.8,3,3.8
		c1.6,0,2.9-1.5,3.8-4.6c1.3-4.6,1.9-10.2,1.9-16.9l0.1-8.8c0-6.2-0.3-10.3-0.8-12.5c-0.5-2.1-1-3.8-1.5-4.8
		c-0.9-2.2-2.4-3.3-4.3-3.3c-0.1,0-0.1,0-0.2,0C262.6,30.2,261.1,33.4,261.1,40z"/>
	<path class="st0" d="M317,69.2l-0.5,1.7c0,0.7,0.2,2.4,0.8,5.1c0.5,2.7,0.8,4.5,0.8,5.3v0.1c0,1.3-0.4,2.1-1.3,2.4
		c-1.2,0-2.1-0.2-2.8-0.6s-1-1.4-1-2.9c0-1.6-0.4-4.8-1.3-9.7l-2.6-0.3h-2.8c-0.6-0.3-1.8-0.4-3.4-0.4c0,0.1,0,0.4-0.1,1.1
		c-0.1,0.7-0.1,1.2-0.2,1.6c0,0.4-0.1,1-0.2,1.9c-0.1,0.8-0.2,1.5-0.3,2.1c-0.1,0.6-0.2,1.2-0.4,2c-0.2,0.8-0.4,1.4-0.6,1.9
		c-0.2,0.5-0.4,1-0.7,1.5c-0.5,1-1.1,1.5-1.8,1.5s-1.4-0.2-1.9-0.6c-0.6-0.4-0.9-1-0.9-1.6c1.5-5.8,2.8-11.8,3.9-18.1
		c1.1-6.3,1.7-10.1,1.9-11.2c0.2-1.2,0.7-3.5,1.5-6.8c0.8-3.4,1.2-5.6,1.4-6.8c0.2-1.1,0.3-2.6,0.4-4.4c0.2-3.9,0.8-6.5,1.5-7.6h2.9
		c1.9,0,2.9,0.6,2.9,1.8c0,11,1.1,21.9,3.2,32.7c0.1,0.6,0.3,1.5,0.6,2.7C316.7,65.8,317,67.8,317,69.2z M311.2,67.4
		c-0.2-0.8-0.2-2.2-0.2-4c0-1.9-0.1-4.1-0.4-6.8c-0.2-2.7-0.6-5.7-1-9.2c-0.4-3.5-0.8-6-0.9-7.6c-0.3,1.6-1,4.3-2,8.1
		c-2,7.9-3,13.9-3,18.2C304.6,66.7,307.1,67.1,311.2,67.4z"/>
	<path class="st0" d="M330.1,49.4l0.5,22.1v9.7c0,0.8-0.2,1.4-0.6,1.9c-0.4,0.5-0.9,0.8-1.6,0.8c-1.9,0-2.8-1.7-2.8-5.2l-0.2-30.1
		l0.5-15.9c0-3.8,1-5.8,3.1-5.8c1.3,0,2.2,1,2.7,2.9c0.8,3.7,2.1,8.9,4.1,15.8c1.9,6.9,3.3,12.1,4,15.7c0.5,1.8,1.2,4.3,2,7.8
		c0.8,3.4,1.5,6,2,7.7c0.2-12.3,0.3-27.3,0.3-44.8l-0.1-2.3c0-0.8,0.1-1.4,0.4-1.9c0.3-0.5,0.8-0.7,1.5-0.7c0.7,0,1.3,0.2,1.7,0.5
		c0.9,0.7,1.3,1.6,1.3,2.8c0,7.8-0.2,17.8-0.7,30.1c-0.4,12.3-1.1,19.9-2,23c-0.1,0-0.3,0.1-0.7,0.2c-0.4,0.1-0.6,0.2-0.8,0.2
		c-1.6,0.4-2.6,0.3-3-0.2c-0.4-0.5-0.7-1.2-0.9-2c-0.2-0.8-0.4-1.6-0.6-2.4c-0.2-0.8-1.1-4.6-2.6-11.4c-4.1-17.9-6.6-28.3-7.5-31.3
		V49.4z"/>
	<path class="st0" d="M356.5,79.5l4.5,0.6c1.1,0,2-0.5,2.8-1.4c0.8-0.9,1.4-2.1,1.8-3.5c0.8-2.7,1.1-5.1,1.1-7.2
		c0-2.1-0.3-4.2-1-6.2c-0.7-2.1-1.5-4-2.5-5.7c-1-1.8-2-3.6-3-5.4c-2.4-4.3-3.6-8.6-3.6-12.8c0-2.6,0.4-4.8,1.3-6.8
		c1.6-3.7,3.8-5.5,6.4-5.5c1,0,2,0.3,2.9,1c0.9,0.6,1.4,1.3,1.4,2.1c0,1.3-0.7,2-2.1,2c-0.6,0-1.2-0.2-1.8-0.5c-1.8,0.1-3,2.1-3.7,6
		c-0.1,0.9-0.2,1.9-0.2,3c0,1.2,0.2,2.6,0.8,4.3c0.5,1.7,1.1,3.2,1.9,4.5c0.8,1.3,1.6,2.8,2.5,4.4c0.9,1.6,1.7,3.1,2.5,4.6
		c1.8,3.5,2.6,7.4,2.6,11.9c0,3.6-0.7,6.8-2.1,9.9c-0.8,1.6-1.8,2.8-3.2,3.8c-1.4,1-3,1.5-4.8,1.5v0.2c-1.1-0.1-2-0.5-2.9-1.1
		c-0.9-0.6-1.3-1.3-1.5-2.2V79.5z"/>
	<path class="st0" d="M404.8,33.3c-0.4,2.8-0.7,4.8-0.7,6.1v6.3c0,11.6-0.7,20.9-2.2,27.9c-0.3,1.3-0.4,2.5-0.4,3.7
		c0,5.8-1,8.7-3.1,8.7c-1,0-1.7-0.7-2-2.2c-0.1-0.5-0.2-1.4-0.2-2.8c0-1.3-0.3-3.9-1-7.9c-0.3-1.7-0.5-3.4-0.7-5.2
		c-0.2-1.8-0.5-5.5-0.9-11.1s-0.8-10-1.3-13c-0.2,1.9-0.2,4.1-0.2,6.8c0,2.6-0.5,7.4-1.6,14.3c-0.5,3.3-0.8,5.4-0.9,6.3
		c-0.1,0.8-0.2,2.1-0.4,3.9c-0.1,1.7-0.5,3.7-1,6c-0.6,2.6-1.4,3.9-2.7,3.9c-1.7,0-2.9-2.4-3.5-7.3c-0.3-2.2-0.5-4.3-0.6-6.3
		c-0.2-2.1-0.3-4.1-0.3-6.1c-0.1-2-0.2-3.5-0.2-4.2c-0.1-0.8-0.4-2.7-0.9-5.9c-0.5-3.2-0.8-5.4-0.9-6.7c-0.1-1.3-0.2-3-0.3-5.1
		c-0.1-2.1-0.2-4.3-0.4-6.8c-0.2-2.5-0.8-4.9-1.8-7.2c0.5-1,1.3-1.5,2.5-1.5c1.8,0,2.8,2.1,2.8,6.2s0.6,10.4,1.8,18.9
		c1.2,8.5,1.9,14.6,2,18.5c0.1-0.6,0.3-1.8,0.6-3.9c0.3-2,0.5-3.4,0.6-4.2c0.1-0.8,0.3-2,0.5-3.8c0.2-1.8,0.4-3.2,0.5-4.2
		c0.1-1.1,0.2-2.3,0.3-3.8c0.1-1.4,0.1-2.9,0.1-4.5s0.2-4,0.5-7.5c0.3-3.5,0.5-5.7,0.6-6.8h2.3c0.6,0,1.2,0.2,1.6,0.5
		c0.4,0.4,0.7,0.9,0.7,1.5v0.7c1.4,5.4,2.6,13.3,3.4,23.8c0.4,4.8,0.8,8.5,1.1,11c0.9-7.9,1.4-17.4,1.4-28.2c0-1.4,0.2-3.6,0.6-6.4
		c0.4-2.8,0.6-5,0.6-6.4c-0.2-0.5-0.3-1-0.3-1.5c0-1.4,0.8-2.1,2.4-2.1c1.6,0,2.4,0.7,2.4,2C405.5,28.7,405.3,30.6,404.8,33.3z"/>
	<path class="st0" d="M421.3,79.8l3.4-0.2c2.2,0,3.3,0.7,3.3,2.1c0,0.9-0.4,1.5-1.1,1.9c-0.8,0.4-1.6,0.6-2.5,0.6h-8
		c-0.7,0-1.3-0.3-1.9-0.8s-0.8-1.1-0.8-1.9c0-0.8,0-1.8,0.2-2.9c0.2-1.2,0.2-2.1,0.2-2.8l-0.4-10.9l0.6-24.9l-0.5-7.2
		c0-4,1.2-6,3.6-6c0.7,0,1.3,0.2,1.9,0.6c0.2,0,0.8,0.1,1.6,0.1c0.8,0.1,1.6,0.2,2.2,0.3c0.6,0.1,1.3,0.3,2.1,0.5
		c1.6,0.4,2.4,1.2,2.4,2.3c0,1.2-0.8,2.1-2.5,2.7c-2.6-0.9-4.8-1.4-6.5-1.6c0.1,1.2,0.1,2.4,0.1,3.7l-0.4,12.3
		c0,0.1,0.1,0.5,0.2,1.3l3-0.1c2.8,0,4.1,0.8,4.1,2.3c0,0.8-0.2,1.6-0.7,2.2c-0.5,0.6-1.2,1-2.1,1s-1.7-0.3-2.3-0.8h-2.2
		c0.2,2.2,0.2,4.2,0.2,6.2L418.2,75C418.2,78.2,419.2,79.8,421.3,79.8z"/>
	<path class="st0" d="M439.1,57.8c-0.4,1.6-0.6,3-0.6,4.4c0,1.3,0.2,4.2,0.5,8.6c0.3,4.4,0.5,7.2,0.5,8.5c0,1.3-0.2,2.3-0.7,2.9
		c-0.5,0.7-1,1-1.6,1c-0.8,0-1.4-0.6-1.6-1.7c0.1-2.1,0.1-4.7,0.1-7.8c0-3.1-0.2-9.8-0.7-20.2c-0.5-10.4-0.7-18.2-0.7-23.3
		c0-2.7,0.9-4,2.8-4c3,0,5.5,0.8,7.5,2.3c2,1.6,3,3.8,3,6.7c0,3.9-0.3,6.9-0.9,9.1c-0.6,2.2-1.8,4.9-3.5,8.1
		c0.3,1.4,0.8,4.1,1.6,8.2c1.6,8.8,3.5,15.2,5.5,19.1c0.6,1.1,0.9,2,0.9,2.6s-0.2,1.2-0.5,1.6c-0.3,0.4-0.8,0.6-1.4,0.6
		c-1.9,0-3.6-3.1-5.1-9.3c-0.7-2.7-1.3-5.4-1.8-8.2c-1.5-7.5-2.5-11.8-2.9-12.7C439.7,55,439.5,56.2,439.1,57.8z M439,29.3l-0.3,1.2
		c0,2.3,0.1,5.7,0.2,10.1c0.1,4.4,0.2,7.6,0.2,9.6c1.3-0.7,2.4-2.5,3.2-5.4c0.8-2.9,1.2-5.2,1.2-6.7s0-2.7-0.1-3.4
		c-0.1-0.7-0.3-1.5-0.5-2.4C442.3,30.3,441,29.4,439,29.3z"/>
	<path class="st0" d="M457.1,79.5l4.5,0.6c1.1,0,2-0.5,2.8-1.4c0.8-0.9,1.4-2.1,1.8-3.5c0.8-2.7,1.1-5.1,1.1-7.2
		c0-2.1-0.3-4.2-1-6.2c-0.7-2.1-1.5-4-2.5-5.7c-1-1.8-2-3.6-3-5.4c-2.4-4.3-3.6-8.6-3.6-12.8c0-2.6,0.4-4.8,1.3-6.8
		c1.6-3.7,3.8-5.5,6.4-5.5c1,0,2,0.3,2.9,1c0.9,0.6,1.4,1.3,1.4,2.1c0,1.3-0.7,2-2.1,2c-0.6,0-1.2-0.2-1.8-0.5c-1.8,0.1-3,2.1-3.7,6
		c-0.1,0.9-0.2,1.9-0.2,3c0,1.2,0.2,2.6,0.8,4.3c0.5,1.7,1.1,3.2,1.9,4.5c0.8,1.3,1.6,2.8,2.5,4.4c0.9,1.6,1.7,3.1,2.5,4.6
		c1.8,3.5,2.6,7.4,2.6,11.9c0,3.6-0.7,6.8-2.1,9.9c-0.8,1.6-1.8,2.8-3.2,3.8c-1.4,1-3,1.5-4.8,1.5v0.2c-1.1-0.1-2-0.5-2.9-1.1
		c-0.9-0.6-1.3-1.3-1.5-2.2V79.5z"/>
	<path class="st0" d="M496,31.7L495.7,53c1,0.3,2.5,0.4,4.5,0.4h3.3v-1.8c0-2.6-0.2-6.5-0.6-11.8c-0.4-5.2-0.6-9.2-0.6-11.8
		c0-0.6,0.2-1.2,0.7-1.6c0.5-0.4,0.9-0.6,1.3-0.6s0.7,0,1-0.1c0.3,0,0.5-0.1,0.7,0c0.2,0,0.4,0.1,0.6,0.2c0.4,0.2,0.6,0.8,0.6,1.9
		c0,6,0.3,14.9,0.8,26.8c0.5,11.9,0.8,20.9,0.8,26.8c0,0.5-0.2,0.9-0.6,1.2c-0.4,0.3-1,0.4-1.6,0.4s-1.3-0.2-1.9-0.5
		c-0.6-0.3-0.9-0.8-0.9-1.4c-0.3-5.7-0.5-12.6-0.5-20.9v-0.3l0-2.5l0-0.8v-0.1c-0.4,0.1-1.1,0.2-1.9,0.2l-5.3-0.8l-0.2,9.4v0.4
		l0.7,14c0,0.8-0.2,1.6-0.6,2.2c-0.4,0.6-1,0.9-1.8,0.9c-1.1,0-1.9-1-2.4-3.1c-0.4-2.1-0.6-4.9-0.6-8.5l0.2-13l0-4.9l0.2-5
		l-0.6-19.3c0-0.7,0.2-1.3,0.7-1.8c0.5-0.5,1-0.8,1.7-0.8C495.1,26.6,496,28.3,496,31.7z"/>
	<path class="st0" d="M525.1,79.8l3.4-0.2c2.2,0,3.3,0.7,3.3,2.1c0,0.9-0.4,1.5-1.1,1.9c-0.8,0.4-1.6,0.6-2.5,0.6h-8
		c-0.7,0-1.3-0.3-1.9-0.8c-0.5-0.5-0.8-1.1-0.8-1.9c0-0.8,0-1.8,0.2-2.9s0.2-2.1,0.2-2.8l-0.4-10.9l0.6-24.9l-0.5-7.2
		c0-4,1.2-6,3.6-6c0.7,0,1.3,0.2,1.9,0.6c0.2,0,0.8,0.1,1.6,0.1c0.8,0.1,1.6,0.2,2.2,0.3c0.6,0.1,1.3,0.3,2.1,0.5
		c1.6,0.4,2.4,1.2,2.4,2.3c0,1.2-0.8,2.1-2.5,2.7c-2.6-0.9-4.8-1.4-6.5-1.6c0.1,1.2,0.1,2.4,0.1,3.7L522,47.4c0,0.1,0.1,0.5,0.2,1.3
		l3-0.1c2.8,0,4.1,0.8,4.1,2.3c0,0.8-0.2,1.6-0.7,2.2c-0.5,0.6-1.2,1-2.1,1c-0.9,0-1.7-0.3-2.3-0.8h-2.2c0.2,2.2,0.2,4.2,0.2,6.2
		L522,75C522,78.2,523,79.8,525.1,79.8z"/>
	<path class="st0" d="M543,57.8c-0.4,1.6-0.6,3-0.6,4.4c0,1.3,0.2,4.2,0.5,8.6c0.3,4.4,0.5,7.2,0.5,8.5c0,1.3-0.2,2.3-0.7,2.9
		c-0.5,0.7-1,1-1.6,1c-0.8,0-1.4-0.6-1.6-1.7c0.1-2.1,0.1-4.7,0.1-7.8c0-3.1-0.2-9.8-0.7-20.2c-0.5-10.4-0.7-18.2-0.7-23.3
		c0-2.7,0.9-4,2.8-4c3,0,5.5,0.8,7.5,2.3s3,3.8,3,6.7c0,3.9-0.3,6.9-0.9,9.1c-0.6,2.2-1.8,4.9-3.5,8.1c0.3,1.4,0.8,4.1,1.6,8.2
		c1.6,8.8,3.5,15.2,5.5,19.1c0.6,1.1,0.9,2,0.9,2.6s-0.2,1.2-0.5,1.6s-0.8,0.6-1.4,0.6c-1.9,0-3.6-3.1-5.1-9.3
		c-0.7-2.7-1.3-5.4-1.8-8.2c-1.5-7.5-2.5-11.8-2.9-12.7C543.5,55,543.4,56.2,543,57.8z M542.8,29.3l-0.3,1.2c0,2.3,0.1,5.7,0.2,10.1
		c0.1,4.4,0.2,7.6,0.2,9.6c1.3-0.7,2.4-2.5,3.2-5.4c0.8-2.9,1.2-5.2,1.2-6.7s0-2.7-0.1-3.4c-0.1-0.7-0.3-1.5-0.5-2.4
		C546.1,30.3,544.9,29.4,542.8,29.3z"/>
	<path class="st0" d="M569.8,79.8l3.4-0.2c2.2,0,3.3,0.7,3.3,2.1c0,0.9-0.4,1.5-1.1,1.9c-0.8,0.4-1.6,0.6-2.5,0.6h-8
		c-0.7,0-1.3-0.3-1.9-0.8c-0.5-0.5-0.8-1.1-0.8-1.9c0-0.8,0-1.8,0.2-2.9s0.2-2.1,0.2-2.8l-0.4-10.9l0.6-24.9l-0.5-7.2
		c0-4,1.2-6,3.6-6c0.7,0,1.3,0.2,1.9,0.6c0.2,0,0.8,0.1,1.6,0.1c0.8,0.1,1.6,0.2,2.2,0.3c0.6,0.1,1.3,0.3,2.1,0.5
		c1.6,0.4,2.4,1.2,2.4,2.3c0,1.2-0.8,2.1-2.5,2.7c-2.6-0.9-4.8-1.4-6.5-1.6c0.1,1.2,0.1,2.4,0.1,3.7l-0.4,12.3
		c0,0.1,0.1,0.5,0.2,1.3l3-0.1c2.8,0,4.1,0.8,4.1,2.3c0,0.8-0.2,1.6-0.7,2.2c-0.5,0.6-1.2,1-2.1,1c-0.9,0-1.7-0.3-2.3-0.8h-2.2
		c0.2,2.2,0.2,4.2,0.2,6.2L566.8,75C566.8,78.2,567.8,79.8,569.8,79.8z"/>
	<path class="st0" d="M586.7,84.4c-0.9,0-1.6-0.3-2.2-0.9s-0.9-1.3-0.9-2.2c0-0.8,0.3-1.6,1-2.2c0.6-0.7,1.4-1,2.2-1
		c0.8,0,1.6,0.3,2.2,1c0.6,0.7,0.9,1.4,0.9,2.3c0,0.9-0.3,1.6-1,2.2C588.4,84.1,587.6,84.4,586.7,84.4z"/>
</g>
<g>
</g>
<g>
</g>
<g>
</g>
<g>
</g>
<g>
</g>
<g>
</g>
<g>
</g>
<g>
</g>
<g>
</g>
<g>
</g>
<g>
</g>
<g>
</g>
<g>
</g>
<g>
</g>
<g>
</g>
</svg>
