<?xml version="1.0" encoding="utf-8"?>
<!-- Generator: Adobe Illustrator 18.1.1, SVG Export Plug-In . SVG Version: 6.00 Build 0)  -->
<svg version="1.1" id="Layer_1" xmlns="http://www.w3.org/2000/svg" xmlns:xlink="http://www.w3.org/1999/xlink" x="0px" y="0px"
	 viewBox="0 0 177.4 582.9" style="enable-background:new 0 0 177.4 582.9;" xml:space="preserve">
<style type="text/css">
	.st0{fill:#5AC6D1;}
	.st1{fill:#027F80;}
	.st2{fill:#067F80;}
	.st3{fill:#064040;}
	.st4{fill:#F07CB0;}
	.st5{fill:#1DBCBE;}
	.st6{fill:#7BD1DA;}
	.st7{fill:#BDE8ED;}
	.st8{fill:none;}
	.st9{fill:#802956;}
	.st10{fill:#EF67A5;}
	.st11{fill:#CB1B6C;}
	.st12{fill:#EE569E;}
	.st13{fill:#EC1E82;}
	.st14{fill:#F6AFC6;}
</style>
<polygon class="st0" points="102.6,306.9 114.3,302.9 133.6,324.4 129.2,362.5 134.9,392.9 145.2,451.1 162.2,490.4 173.9,531.5 
	173.8,582.9 104.5,572.6 81.5,542.5 76.2,469.2 72.7,429.8 "/>
<polygon class="st0" points="107.4,305.3 114.3,302.9 133.6,324.4 139.8,305.3 132.2,269.4 109.8,284.6 "/>
<polygon class="st0" points="114.9,263.1 131.2,249.5 134.1,264.3 132.2,269.4 109.8,284.6 "/>
<polygon class="st0" points="119.7,236.3 114.9,263.1 128.2,252.4 132.6,248.2 132.5,229.8 "/>
<polygon class="st1" points="137.1,292.7 139.8,305.3 133.6,324.4 129.4,360.8 145.2,451.1 162.2,490.4 173.9,531.5 173.8,582.9 
	147.1,535.5 149.1,497.6 127.1,456.8 121.8,371.2 111.7,375.2 119.6,360.4 111.7,347.7 125.1,353.6 129.6,324.4 135.3,307 
	135.1,293.7 "/>
<polygon class="st1" points="88.2,366 72.7,429.8 81.5,542.5 104.5,572.6 86.5,539.6 80.5,420.6 "/>
<polygon class="st1" points="91.7,350.8 102.5,307.1 107.3,305.4 109.7,284.6 114.9,263.1 119.7,236.4 132.5,229.8 123.3,237.7 
	119.6,251 125.1,257 119.1,257 123.3,260.9 118.1,263.6 114.9,274.5 123.3,269.1 114.9,284.6 112.1,299.5 127.1,309.8 123.3,313.1 
	111.7,308.6 104.5,313.3 "/>
<polygon class="st2" points="132.2,269.2 134.1,264.1 133.1,259.5 133.1,264 127.6,259.5 "/>
<polygon class="st2" points="132.6,248.2 130,246.4 131.2,249.5 "/>
<polygon class="st3" points="132.6,229.8 119.7,236.4 114.9,263.1 109.7,284.6 107.3,305.4 102.5,307.1 72.7,429.8 74.5,453.5 
	76.6,428.5 83.3,376.1 94.6,329.5 104.8,310.2 109.1,307.5 118.8,307.9 110.3,299.5 111,284.6 114.9,279.2 112.9,278.1 116.4,263.1 
	119.6,260.7 117.5,257.8 118,256 121.1,256 118.6,251.9 120.5,237.5 "/>
<polygon class="st3" points="137.9,296.5 139.8,305.3 136.6,315.1 138.2,305.8 "/>
<polygon class="st3" points="129.8,356.8 129.4,360.8 145.2,451.1 162.2,490.4 173.9,531.5 173.8,582.9 171.4,531.5 159.6,492.2 
	140.4,455 127.9,370 118.9,367.8 125.1,361.8 118.9,355.8 "/>
<polygon class="st4" points="16.4,436.8 39.8,443.7 43.7,451 30.2,506.5 26.6,504.7 13.5,469.2 "/>
<polygon class="st0" points="58.1,220 49.1,220 42.2,230.8 52,243.7 59.1,233.9 "/>
<polygon class="st0" points="38.3,245.6 31.5,254.4 36.7,265.3 49.6,269.4 57,256.8 47.4,245.9 "/>
<polygon class="st0" points="45.7,272 38,270.5 26,271.6 22.4,283.9 41.9,301.1 51.7,293.5 43.7,280.2 "/>
<polygon class="st0" points="45.4,310.6 24.6,299.5 17.7,312.4 19.1,323.9 30,336.4 33.5,321.9 20.7,314 36.1,323.4 44.1,318.4 "/>
<polygon class="st5" points="45.7,272 38,270.5 43.7,280.2 "/>
<polygon class="st5" points="33.5,321.9 20.7,314 19.1,323.9 30,336.4 "/>
<polygon class="st2" points="51,250 54.8,256.9 48,268.9 49.6,269.4 57,256.8 "/>
<polygon class="st2" points="58.1,220 59.1,233.9 52,243.7 50.7,241.9 51.7,242 57.9,233.5 "/>
<polygon class="st2" points="43.2,279.5 51.7,293.5 41.9,301.1 39.1,298.7 42.2,299.5 48.9,293.5 "/>
<polygon class="st2" points="37.1,306.1 45.4,310.6 44.1,318.4 36.1,323.4 34.2,322.3 37.1,321.8 43.1,318 43.9,311.4 "/>
<polygon class="st2" points="22.4,315.1 33.5,321.9 30,336.4 "/>
<polygon class="st3" points="22.4,315.1 33.5,321.9 30,336.4 31.5,322.5 "/>
<polyline class="st6" points="37.1,306.1 26,305 17.7,312.4 24.6,299.5 37.1,306.1 "/>
<polygon class="st6" points="22.4,284.6 26,271.6 38,270.5 43.2,279.5 33.5,275 27.4,274.3 "/>
<polyline class="st6" points="47.4,245.9 39.9,248.3 35.6,255 34.2,260.1 31.5,254.4 38.3,245.6 47.4,245.9 "/>
<polyline class="st6" points="58.1,220 50.7,222.1 42.2,230.8 49.1,220 58.1,220 "/>
<polygon class="st7" points="17.7,312.4 24.6,299.5 37.1,306.1 25.3,302.9 "/>
<polygon class="st7" points="26,271.6 38,270.5 43.2,279.5 37.1,273.3 "/>
<polygon class="st7" points="47.4,245.9 38.3,245.6 31.5,254.4 33.5,258.6 34.2,254.3 39.4,247.2 "/>
<polygon class="st7" points="58.1,220 49.1,220 46.4,224.3 50.7,221.2 "/>
<polygon class="st8" points="43.8,451 39.9,443.7 147.9,0 147.9,0 39.8,443.7 16.4,436.8 13.5,469.2 26.6,504.7 30.2,506.5 
	28.2,514.9 43.7,451 "/>
<polygon class="st9" points="2.1,458.5 4.8,439.7 0,460.4 21.7,509 7.6,472.9 "/>
<polygon class="st10" points="26.6,504.7 13.5,469.2 16.4,436.8 11.3,435.4 7.6,472.9 21.7,509 28.2,514.9 30.2,506.5 "/>
<polygon class="st11" points="43.8,451 43.7,451 28.2,514.9 63.9,454.1 43.8,451 "/>
<polygon class="st9" points="28.8,513.8 65.2,460.1 63.9,454 63.9,454 "/>
<polygon class="st12" points="11.3,435.4 16.4,436.8 16.4,436.8 39.8,443.7 147.9,0 117.4,0 "/>
<polygon class="st12" points="11.3,435.4 16.4,436.8 16.4,436.8 "/>
<polygon class="st13" points="65.3,460.2 177.4,0 147.9,0 39.9,443.7 43.8,451 63.9,454.1 63.9,454.1 64,454.2 "/>
<polygon class="st13" points="63.9,454.1 63.9,454.1 63.9,454.1 "/>
<polygon class="st13" points="43.8,451 43.8,451 63.9,454.1 63.9,454.1 "/>
<polygon class="st13" points="63.9,454.1 63.9,454.1 63.9,454.1 "/>
<polygon class="st14" points="7.6,472.9 11.3,435.4 117.4,0 111.9,0 4.8,439.7 2.1,458.5 "/>
<g>
</g>
<g>
</g>
<g>
</g>
<g>
</g>
<g>
</g>
<g>
</g>
<g>
</g>
<g>
</g>
<g>
</g>
<g>
</g>
<g>
</g>
<g>
</g>
<g>
</g>
<g>
</g>
<g>
</g>
</svg>
