<svg xmlns="http://www.w3.org/2000/svg" viewBox="0 0 360 160" enable-background="new 0 0 360 160"><style type="text/css">.st0{fill:#FFFFFF;}</style><path class="st0" d="M56.9 117.8l.2 4.2c0 1.5-.3 2.7-.9 3.5-.6.8-1.6 1.2-3 1.2s-2.5-.3-3.4-1c-.9-.7-1.3-1.6-1.2-2.9 0-1.3.6-13.1 1.6-35.5s1.6-39.3 1.6-50.6c.1-2.4.5-4 1.1-4.8.6-.8 1.5-1.3 2.6-1.3 1.1-.1 1.8 0 2.2.1.4.2.7.5 1 .9.3.4.6.8.8 1.2.2.4.4.9.6 1.7.2.8.3 1.3.4 1.7.1.4.2 1 .3 1.9.1.9.3 1.7.4 2.5.1.8.8 4.1 2.1 9.8 1.2 5.7 2.6 13.2 4.1 22.2 1.5 9.1 3.2 20.6 5.2 34.5 2.9-15.5 5.4-30.3 7.5-44.2 2.1-13.9 3.2-21.3 3.4-22.2.1-.9.2-1.5.3-1.9l.4-1.9c.2-.8.4-1.5.5-1.9.2-.5.4-1 .7-1.6.3-.6.7-1.1 1-1.4.9-.8 1.9-1.2 3.1-1.2 1.2 0 2.4.3 3.5 1s1.7 1.6 1.7 2.8c0 21.7.2 36.7.6 45.1.4 8.4.6 13.4.6 15.1l-.1 22.8c.4 1 .6 2.1.6 3.2s-.4 2.3-1.1 3.6c-.7 1.3-1.7 1.9-2.9 1.9-3 0-4.4-3-4.4-8.9l.2-13.1c0-9.2-.1-17.4-.3-24.6.1-4.3.2-15.5.2-33.6-1.4 8.9-3.4 20.7-6 35.6-2.5 14.9-3.9 22.8-4 23.7-.2.9-.3 1.8-.4 2.6-.1.8-.2 1.5-.3 2.1-.1.6-.3 1.3-.5 2.1-.3.8-.5 1.4-.9 1.9-.8 1.2-1.9 1.9-3.3 1.9-2.8 0-4.4-2-5-6.1-.7-5.8-2.2-15.9-4.5-30.4-2.3-14.5-4-24.3-5.1-29.3-.9 32.4-1.2 54.9-1.2 67.6zM128.1 122.4l-5.3.1-6.2.3c-2.6 0-4.4-.9-5.3-2.6 0-1.4.2-2.5.5-3.2.3-.8 1.1-1.1 2.2-1.1h4l.3-1.9-1-30.1.8-31.6c0-5.3-.2-10.3-.7-15.1h-5.5c-1.7 0-2.9-.3-3.7-.8-.8-.5-1.2-1.5-1.2-3 0-2.2 2.6-3.3 7.7-3.3h.5c12.1 0 18.2 1.6 18.2 4.8 0 .5-.3 1.4-.8 2.6h-7.3c.4 3.5.6 7.5.6 12.2l-.8 27.1 1 30.1v4.2c0 .8-.2 2.1-.5 3.8h6c3.9 0 5.8 1.2 5.8 3.5 0 1.1-.3 2-1 2.7-.7.7-1.4 1.1-2.2 1.1l-6.1.2zM179.6 68l-.3 7.1v7.8c0 9.4-.4 15.7-1.2 19-.8 3.3-1.7 6-2.5 8.1-.9 2.1-1.9 4-3.1 5.7-2.8 3.7-6.3 6.8-10.5 9.1h-9.7c-2.4 0-3.6-6.2-3.6-18.5l.4-44.6c0-8.3-.2-16-.5-23.3-.8-.9-1.2-2-1.2-3.3 0-1.3.5-2.4 1.6-3.3 1.1-.9 2.3-1.4 3.8-1.4s2.8.8 3.8 2.5c.7.3 1.7.5 3.1.8 1.4.2 2.4.5 3 .8 5.3 2.4 9.4 6.8 12.4 13 3.1 6.1 4.5 13 4.5 20.5zm-23.1-16.4l1.6 62.6v3.4h2.6c4.9-6 8.1-11.5 9.6-16.5 1.3-4.7 2-11.2 2-19.5 0-28.5-4.9-43.4-14.7-44.7-.8 3.7-1.1 8.6-1.1 14.7zM224.3 68l-.3 7.1v7.8c0 9.4-.4 15.7-1.2 19-.8 3.3-1.7 6-2.5 8.1-.9 2.1-1.9 4-3.1 5.7-2.8 3.7-6.3 6.8-10.5 9.1h-9.7c-2.4 0-3.6-6.2-3.6-18.5l.4-44.6c0-8.3-.2-16-.5-23.3-.8-.9-1.2-2-1.2-3.3 0-1.3.5-2.4 1.6-3.3 1.1-.9 2.3-1.4 3.8-1.4s2.8.8 3.8 2.5c.7.3 1.7.5 3.1.8 1.4.2 2.4.5 3 .8 5.3 2.4 9.4 6.8 12.4 13 3 6.1 4.5 13 4.5 20.5zm-23.2-16.4l1.6 62.6v3.4h2.6c4.9-6 8.1-11.5 9.6-16.5 1.3-4.7 2-11.2 2-19.5 0-28.5-4.9-43.4-14.7-44.7-.8 3.7-1.1 8.6-1.1 14.7zM245.9 44.5l.4 34.1c-.6 1.3-.8 3.9-.8 7.7l-.6 22.6c0 6.5 1.6 9.8 4.8 9.8l5.9-.2c5.1 0 7.6 1.4 7.6 4.2 0 1-.4 1.9-1.3 2.5-.9.7-1.9 1.1-3 1.2-3.5-1.1-7.7-1.7-12.7-1.7-1.5.9-3 1.3-4.4 1.3s-2.5-.5-3.3-1.5c-.8-1-1.2-2-1.2-3.2l1.4-63.3v-1c-.3-3-.4-7.4-.4-13.3 0-9 1.6-13.4 4.9-13.4 1 0 1.8.3 2.5 1s1.1 1.5 1.1 2.5l-.9 10.7zM286.9 118.6l5.6-.3c3.6 0 5.4 1.2 5.4 3.5 0 1.4-.6 2.5-1.9 3.1-1.2.6-2.7 1-4.2 1h-13.4c-1.2 0-2.2-.4-3.1-1.2-.9-.8-1.3-1.9-1.4-3.2s0-2.9.3-4.8.4-3.5.4-4.6l-.6-18.3 1-41.4-.8-12c0-6.7 2-10 6-10 1.1 0 2.1.3 3.1 1 .4 0 1.3.1 2.7.2 1.4.1 2.6.3 3.7.5s2.2.4 3.5.8c2.7.7 4 2 4 3.8 0 1.9-1.4 3.4-4.2 4.4-4.3-1.5-7.9-2.4-10.7-2.7.1 2 .2 4.1.2 6.1l-.6 20.3c0 .1.1.8.4 2.2l5.1-.2c4.6 0 6.9 1.3 6.9 3.9 0 1.4-.4 2.6-1.2 3.7-.8 1.1-2 1.6-3.4 1.6s-2.8-.4-3.9-1.2h-3.8c.3 3.6.4 7 .4 10.2l-.6 25.7c0 5.3 1.7 7.9 5.1 7.9z"/></svg>