<?xml version="1.0" encoding="utf-8"?>
<!-- Generator: Adobe Illustrator 18.1.1, SVG Export Plug-In . SVG Version: 6.00 Build 0)  -->
<svg version="1.1" id="Layer_1" xmlns="http://www.w3.org/2000/svg" xmlns:xlink="http://www.w3.org/1999/xlink" x="0px" y="0px"
	 viewBox="0 0 120 360" style="enable-background:new 0 0 120 360;" xml:space="preserve">
<style type="text/css">
	.st0{fill:#FFFFFF;}
</style>
<g>
	<path class="st0" d="M76.6,321.5c6.6-0.8,11.7-1.2,15.4-1.2V320c11.8,0,17.6,3.5,17.6,10.5c0,8.2-15.9,12.3-47.8,12.3L49.3,343
		c-5.2,0-9.3-0.8-12.4-2.3c-3.1-1.5-4.6-4.6-4.6-9.2v-9c8.9,0.7,13.8,1,14.8,1c6.2,0,9.2-2.3,9.2-7c0-42.4-2.4-97.4-7.2-164.9
		c-0.4-5.9-1.2-14.2-2.3-24.8c-2.2-23.5-3.3-41.5-3.3-54l0.6-15.4c0-13.1-4.9-19.7-14.6-19.7L20,38.2c-7.9,0-11.9-3-11.9-9
		C8.1,21.7,19.4,18,41.9,18c9.8,0,16,2.3,18.5,7c-0.5,1-0.6,3.9-0.1,8.8c0.5,4.9,0.7,9.8,0.7,14.6c0,4.8,1.1,15.7,3.2,32.8
		c2.1,17.1,3.2,33.3,3.2,48.6c0,15.3,1.5,45.1,4.6,89.3c3.1,44.2,4.6,77.4,4.6,99.6V321.5z"/>
</g>
<g>
</g>
<g>
</g>
<g>
</g>
<g>
</g>
<g>
</g>
<g>
</g>
<g>
</g>
<g>
</g>
<g>
</g>
<g>
</g>
<g>
</g>
<g>
</g>
<g>
</g>
<g>
</g>
<g>
</g>
</svg>
