<?xml version="1.0" encoding="utf-8"?>
<!-- Generator: Adobe Illustrator 18.1.1, SVG Export Plug-In . SVG Version: 6.00 Build 0)  -->
<svg version="1.1" id="Layer_1" xmlns="http://www.w3.org/2000/svg" xmlns:xlink="http://www.w3.org/1999/xlink" x="0px" y="0px"
	 viewBox="0 0 113 191" style="enable-background:new 0 0 113 191;" xml:space="preserve">
<style type="text/css">
	.st0{fill:none;}
	.st1{fill:#EE569E;}
	.st2{fill:#F6AFC6;}
	.st3{fill:#802956;}
	.st4{fill:#EF67A5;}
	.st5{fill:#F07CB0;}
	.st6{fill:#CB1B6C;}
</style>
<rect x="0" y="0" class="st0" width="113" height="191"/>
<polygon class="st0" points="27.7,88.1 33,87.4 57.2,84.2 "/>
<polygon class="st1" points="64.3,164.4 33,149.4 27.7,88.1 57.2,84.2 "/>
<polygon class="st2" points="29.8,50.4 27.7,88.1 33,149.4 27.5,146.7 22,82.8 22.2,63.9 "/>
<polygon class="st3" points="22.2,63.9 22,82.8 20.4,61.6 49.2,16.9 29.8,50.4 "/>
<polygon class="st4" points="53.4,21.9 35.1,54.9 33,87.4 27.7,88.1 29.8,50.4 49.2,16.9 56.5,12 57.2,20.6 "/>
<polygon class="st5" points="33,87.4 35.1,54.9 53.4,21.9 57.2,20.6 62.3,77.6 57.2,84.2 "/>
<polygon class="st6" points="94.1,179 64.2,164.5 57.2,84.2 62.2,77.6 56.5,12 82.4,78.1 84.8,71.7 "/>
<polygon class="st3" points="82.4,78.1 56.5,12 84.8,71.7 "/>
<g>
</g>
<g>
</g>
<g>
</g>
<g>
</g>
<g>
</g>
<g>
</g>
<g>
</g>
<g>
</g>
<g>
</g>
<g>
</g>
<g>
</g>
<g>
</g>
<g>
</g>
<g>
</g>
<g>
</g>
</svg>
