<?xml version="1.0" encoding="utf-8"?>
<!-- Generator: Adobe Illustrator 18.1.1, SVG Export Plug-In . SVG Version: 6.00 Build 0)  -->
<svg version="1.1" id="Layer_1" xmlns="http://www.w3.org/2000/svg" xmlns:xlink="http://www.w3.org/1999/xlink" x="0px" y="0px"
	 viewBox="0 0 120 360" style="enable-background:new 0 0 120 360;" xml:space="preserve">
<style type="text/css">
	.st0{fill:#FFFFFF;}
</style>
<g>
	<path class="st0" d="M92,333.7l-62,3.8c-3.8,0-7.3-1.1-10.3-3.4c-3-2.2-4.6-5.2-4.6-8.9v-1.6c5.7-6.8,10.5-15.7,14.3-26.7
		c3.8-11.1,6.6-18.3,8.1-21.8c15.5-34.3,27-65.8,34.6-94.4c7.5-28.6,11.3-59.5,11.3-92.8c0-33.2-6.5-50.4-19.5-51.5
		c-4.4,2.4-7.4,8.9-9.1,19.5c-1.5,9.9-5.5,14.9-12,14.9S33,66.7,33,58.4c0-13.1,3.8-23.8,11.5-32.2c4.1-4.5,9-6.8,14.7-6.8v-0.2
		c14.2,0,24.4,4.4,30.6,13.1c4.8,6.5,7.7,12.3,8.9,17.5s2,9.3,2.5,12.3c0.5,3,0.8,7,1.1,11.7c0.4,7.2,0.6,14.5,0.6,22.1
		c0,23.4-2.9,50-8.8,79.6c-5.9,29.6-13.4,54.7-22.5,75.2c-1.6,3.7-6.4,13.5-14.3,29.3c-7.9,15.8-13.4,28.3-16.5,37.4
		c16.4-2.8,31.8-4.2,46.1-4.2l12.3,10.3L92,333.7z"/>
</g>
<g>
</g>
<g>
</g>
<g>
</g>
<g>
</g>
<g>
</g>
<g>
</g>
<g>
</g>
<g>
</g>
<g>
</g>
<g>
</g>
<g>
</g>
<g>
</g>
<g>
</g>
<g>
</g>
<g>
</g>
</svg>
